<svg width="180" height="42" viewBox="0 0 180 42" fill="none" xmlns="http://www.w3.org/2000/svg">
<g clip-path="url(#clip0_229_897)">
<path d="M25.4788 41.1531H32.9785V11.0814H25.4788V13.4998C18.4016 8.61049 8.68367 10.3454 3.77187 17.4427C-1.13992 24.5401 0.602976 34.1609 7.733 39.0502C13.0673 42.7303 20.1445 42.7303 25.5316 39.0502V41.1531H25.4788ZM8.26115 26.275C8.26115 21.5434 12.1166 17.653 16.87 17.653C21.6233 17.653 25.5316 21.4908 25.5316 26.2224C25.5316 30.9539 21.6761 34.8443 16.9228 34.8443C12.1166 34.8443 8.26115 31.0065 8.26115 26.275ZM60.6008 0.829712V13.4998C53.5236 8.61049 43.8056 10.3454 38.8938 17.4427C33.982 24.5401 35.7249 34.1609 42.8549 39.0502C48.1893 42.7303 55.2665 42.7303 60.6536 39.0502V41.1531H68.1533V0.829712H60.6008ZM43.3831 26.275C43.3831 21.5434 47.2386 17.653 51.9919 17.653C56.7453 17.653 60.6536 21.4908 60.6536 26.2224C60.6536 30.9539 56.7981 34.8443 52.0448 34.8443C47.2386 34.8443 43.3831 31.0591 43.3831 26.275ZM79.2445 8.29506V0.829712H71.7447V8.29506H79.2445ZM79.2445 41.1531V11.0814H71.7447V41.1531H79.2445ZM106.867 0.829712V13.4998C99.7895 8.61049 90.0715 10.3454 85.1597 17.4427C80.2479 24.4875 81.9908 34.1609 89.1208 39.0502C94.4552 42.7303 101.532 42.7303 106.919 39.0502V41.1531H114.419V0.829712H106.867ZM89.649 26.275C89.649 21.5434 93.5045 17.7056 98.2578 17.7056C103.011 17.7056 106.867 21.5434 106.867 26.275C106.867 31.0065 103.011 34.8443 98.2578 34.8443C93.5045 34.8443 89.649 31.0591 89.5962 26.3275C89.649 26.275 89.649 26.275 89.649 26.275ZM141.989 41.1531H149.488V11.0814H141.989V13.4998C134.911 8.61049 125.193 10.3454 120.282 17.4427C115.37 24.4875 117.113 34.1609 124.243 39.0502C129.577 42.7303 136.654 42.7303 142.041 39.0502L141.989 41.1531ZM124.771 26.275C124.771 21.5434 128.626 17.653 133.38 17.653C138.133 17.653 142.041 21.4908 142.041 26.2224C142.041 30.9539 138.186 34.8443 133.433 34.8443C128.679 34.8443 124.824 31.0591 124.824 26.3275C124.771 26.275 124.771 26.275 124.771 26.275ZM152.288 31.3745C152.552 37.4204 157.727 41.7314 166.442 41.7314C173.519 41.7314 179.382 38.6822 179.382 31.9003C179.382 27.1687 176.741 24.4349 170.562 23.2257L165.755 22.2794C162.692 21.7011 160.527 21.1228 160.527 19.2828C160.527 17.285 162.586 16.3913 165.174 16.3913C168.977 16.3913 170.509 18.2839 170.614 20.492H178.167C177.744 14.6038 173.044 10.6608 165.386 10.6608C157.516 10.6608 152.869 14.9718 152.869 20.5445C152.869 27.379 158.414 28.483 163.22 29.3768L167.181 30.0602C170.033 30.5859 171.248 31.4271 171.248 33.0569C171.248 34.5289 169.822 36.0009 166.442 36.0009C161.53 36.0009 159.946 33.4774 159.893 31.2694L152.288 31.3745Z" fill="white"/>
</g>
<defs>
<clipPath id="clip0_229_897">
<rect width="178.409" height="40.9542" fill="white" transform="translate(0.919983 0.829712)"/>
</clipPath>
</defs>
</svg>
