<svg width="181" height="56" viewBox="0 0 181 56" fill="none" xmlns="http://www.w3.org/2000/svg">
<g clip-path="url(#clip0_231_904)">
<path d="M58.7961 4.38461C61.3411 2.69622 64.265 1.55388 67.2996 1.15858C72.4869 0.632631 77.6608 1.62423 82.7341 2.61247C90.1412 4.07306 97.6187 5.2958 105.17 5.6576C109.076 5.77485 113.013 5.75475 116.859 4.97086C116.846 6.00935 115.615 6.33095 114.897 6.83009C110.247 9.10138 104.935 9.50673 99.8352 9.46318C92.304 9.58043 84.9271 7.86524 77.4898 6.96744C72.7116 6.40465 67.8495 5.80165 63.0579 6.55875C60.6738 6.97749 58.1892 7.69774 56.412 9.42968C54.266 11.6172 53.374 14.9839 54.219 17.9386C54.8025 19.7443 56.4992 20.9402 58.2193 21.5633C58.6619 21.7744 59.3024 21.8313 59.3862 22.451C56.5696 22.4276 53.6725 20.6957 52.7504 17.9554C51.8048 15.1682 52.472 12.0628 53.8569 9.53688C54.9634 7.38284 56.7942 5.70115 58.7961 4.38461Z" fill="white"/>
<path d="M149.009 10.4246C150.776 8.36772 152.805 6.23713 155.541 5.58054C157.013 5.19194 158.918 5.74804 159.387 7.33928C159.836 9.16837 158.847 10.9405 158.233 12.6155C154.552 20.8464 148.868 28.0489 142.464 34.3368C142.246 35.727 141.703 37.2981 142.501 38.608C143.181 39.6197 144.663 39.4019 145.572 38.8291C147.309 37.7035 148.684 36.129 150.152 34.6919C154.31 30.3134 158.156 25.6536 162.016 21.0206C162.388 20.4142 163.552 20.4142 163.498 21.2919C164.179 25.3019 165.426 29.2716 165.215 33.3787C165.144 35.6265 164.571 38.0653 162.817 39.6063C161.704 40.628 160.192 40.953 158.76 41.2478C162.68 41.8575 166.848 41.4521 170.355 39.4991C174.473 37.2311 177.581 33.0772 178.198 28.3771C178.805 24.0255 177.88 19.1346 174.694 15.9219C174.805 15.7913 175.023 15.5266 175.133 15.3926C178.168 17.4763 180.062 20.9301 180.592 24.5314C181.3 28.3001 180.237 32.2832 177.977 35.3518C175.69 38.4338 172.437 40.8592 168.722 41.9144C165.295 42.8256 161.637 42.9328 158.173 42.1623C155.843 41.5928 153.345 40.484 152.238 38.2127C151.966 37.5628 151.547 36.5712 152.288 36.0821C152.845 35.8376 153.492 36.2228 153.757 36.7253C154.076 37.4455 153.945 38.3601 154.528 38.9597C155.306 39.8877 156.728 39.7302 157.714 39.2512C158.961 38.5142 159.545 37.0703 159.83 35.7136C160.467 32.5278 160.074 29.2548 159.592 26.0791C155.437 30.9466 151.44 36.0553 146.316 39.9614C144.509 41.3248 141.92 42.0049 139.811 40.9563C138.685 40.4337 138.105 39.2914 137.581 38.2361C136.311 39.4455 134.986 40.7252 133.239 41.1774C131.392 41.7637 129.162 41.7 127.619 40.4136C126.761 39.7034 126.429 38.6013 126.181 37.5594C124.598 39.5125 122.422 41.1238 119.89 41.5258C118.043 41.8374 115.94 41.3952 114.643 39.9714C113.788 39.077 113.409 37.8609 113.14 36.6817C111.893 38.273 110.538 39.8609 108.788 40.9161C107.148 41.8374 104.751 41.9881 103.416 40.4706C102.122 38.9296 102.32 36.7253 102.809 34.9063C103.842 31.3687 105.941 28.2029 106.769 24.6051C107.018 23.2416 105.173 23.2115 104.379 23.7877C100.888 25.8379 97.5618 28.6887 96.1132 32.578C94.9262 35.4255 93.7258 38.2696 92.5354 41.1205C90.7683 41.1205 89.0012 41.1205 87.2341 41.1205C87.6667 40.0987 88.0925 39.0736 88.5385 38.0586C87.0899 39.4689 85.4636 40.8357 83.5021 41.4454C81.6746 42.0216 79.4951 41.1339 78.7372 39.3416C77.8285 37.1239 78.3349 34.6081 79.1933 32.4541C80.6787 28.8897 82.1843 25.3354 83.6764 21.7743C85.4402 21.7743 87.2039 21.7743 88.9677 21.7743C87.0094 26.5313 85.0009 31.2715 83.0628 36.0352C82.7141 37.1105 82.1977 38.4371 82.9354 39.4622C83.6228 39.8743 84.4577 39.412 85.0646 39.0368C86.9055 37.7638 88.4111 36.0754 89.9636 34.4842C91.8614 30.2933 93.5447 26.002 95.3554 21.771C97.1158 21.7777 98.8762 21.7676 100.637 21.7777C100.073 23.1746 99.4865 24.5649 98.893 25.9484C101.116 23.6604 103.913 21.7241 107.138 21.2685C108.657 21.0206 110.508 21.379 111.39 22.7626C112.171 24.1093 111.997 25.7843 111.511 27.2013C110.431 30.3637 109.019 33.3988 107.594 36.4171C107.219 37.3584 106.736 38.3299 106.803 39.3684C106.967 40.1691 107.876 39.824 108.349 39.546C110.374 38.2328 111.776 36.2094 113.107 34.243C113.664 29.9851 116.148 26.1394 119.444 23.456C121.788 21.6001 124.813 20.1864 127.864 20.8129C129.299 21.0876 130.433 22.1227 131.123 23.3723C131.398 22.7257 131.68 22.0825 131.965 21.4393C133.725 21.4393 135.489 21.4393 137.253 21.4393C135.315 26.0891 133.357 30.7355 131.408 35.382C130.993 36.4138 130.637 37.5661 130.952 38.6716C131.177 39.5158 132.159 39.8944 132.951 39.6364C134.725 39.1909 136.086 37.8743 137.377 36.6549C137.307 34.9666 137.712 33.315 138.101 31.6836C140.053 23.8848 144.003 16.679 149.009 10.4246ZM157.331 7.66087C155.886 8.52182 154.937 9.98241 153.905 11.2722C149.364 17.5165 145.562 24.3706 143.218 31.7472C148.218 26.3404 152.593 20.3338 156.067 13.8382C156.902 12.1364 157.808 10.4112 158.119 8.52517C158.294 8.07292 157.824 7.34598 157.331 7.66087ZM125.846 22.8128C124.055 23.7508 122.771 25.3756 121.654 27.0137C119.947 29.6166 118.599 32.5043 118.043 35.5796C117.838 36.8727 117.667 38.3634 118.452 39.5058C119.371 40.5275 120.937 39.9212 121.969 39.3852C125.416 37.4355 126.935 33.5998 128.444 30.1593C129.179 28.1929 130.315 26.0925 129.735 23.9451C129.242 22.3472 127.153 21.9854 125.846 22.8128Z" fill="white"/>
<path d="M77.2618 12.4915C79.0189 10.9941 80.9268 9.5737 83.0862 8.73621L83.6261 8.84341C82.0032 10.783 80.6686 12.9371 79.2737 15.0275C77.7011 15.3625 76.1151 15.731 74.5056 15.8147C75.0655 14.4513 76.2257 13.4865 77.2618 12.4915Z" fill="white"/>
<path d="M37.9228 17.7243C38.9556 16.2871 40.3974 14.994 42.2182 14.7562C43.0665 14.6322 44.1663 14.7696 44.5553 15.654C45.0046 16.6221 44.4782 17.6472 44.3139 18.612C46.6477 18.8599 48.9949 18.88 51.3354 18.7527C51.2649 19.3188 50.7217 19.5098 50.2925 19.7208C48.0124 20.7895 45.5076 21.3054 42.9994 21.3858C41.2659 24.2634 38.9388 26.7591 36.2798 28.806C35.5622 29.2616 35.3509 30.1292 34.9888 30.8495C36.5849 29.3185 38.6035 27.8378 40.9339 28.0187C42.2517 28.0958 43.5963 29.2113 43.328 30.6384C43.0061 32.6585 41.8896 34.434 41.0882 36.2898C40.7092 37.2345 39.9984 38.1759 40.1459 39.2345C41.7957 39.0502 42.929 37.536 43.7707 36.2396C44.4949 32.7188 47.0534 29.4793 50.5105 28.3236C52.177 27.8311 54.2258 27.801 55.6207 28.9701C56.697 29.9115 56.2511 31.5831 55.4966 32.5881C53.6088 35.1508 50.316 36.0687 47.3116 36.5143C47.0467 37.4389 46.8958 38.7889 47.999 39.2244C49.4744 39.7403 51.0738 39.1675 52.4117 38.5142C53.3238 38.0988 53.9508 37.134 55.0205 37.1005C55.121 38.072 54.1654 38.5343 53.5015 39.0167C51.446 40.3735 48.7568 41.1574 46.3693 40.2629C45.2494 39.8743 44.5084 38.9028 44.0121 37.8744C42.7412 39.2445 41.1787 40.8056 39.1433 40.6147C37.5405 40.551 36.5715 38.7956 36.9068 37.3317C37.4969 34.6417 39.2506 32.3503 39.7972 29.6502C37.4835 29.9282 35.6024 31.697 34.345 33.5663C32.9635 35.593 31.9542 37.8375 31.0019 40.0854C29.8618 40.1658 28.7218 40.2294 27.5784 40.1926C28.5407 37.4288 29.835 34.789 30.9516 32.0856C29.9423 32.5245 28.923 32.9767 27.8332 33.1744C27.7292 33.0571 27.5213 32.8193 27.4174 32.702C28.6379 31.5965 30.3279 31.1878 31.7027 30.29C33.2049 27.1209 34.5462 23.8782 36.1657 20.766C30.8108 19.952 25.4793 18.5483 20.0237 18.7795C17.6061 18.8431 15.1784 20.22 14.2228 22.498C13.6896 23.5901 13.7601 24.8363 14.0115 25.992C15.165 25.8681 16.342 25.8078 17.4888 26.0188C17.5357 26.1628 17.6296 26.4509 17.6765 26.595C16.5633 26.6218 15.44 26.6251 14.3502 26.8931C14.8029 27.5531 15.3025 28.2331 16.0603 28.5581C17.3815 29.2448 18.9105 28.9333 20.3188 28.7892C20.2819 29.8445 18.8669 29.7574 18.0923 29.8713C16.0972 30.1024 14.2664 28.9299 13.304 27.2348C11.6073 28.1494 9.92407 29.3654 9.14949 31.1912C8.20055 33.2581 8.00942 35.794 9.0556 37.8576C10.2661 40.2294 13.4449 41.2813 15.8424 40.1524C17.8878 39.211 19.3397 37.3685 20.52 35.5126C22.9309 31.5262 24.5572 27.0506 27.5247 23.4092C28.8324 22.0122 30.3279 20.4444 32.313 20.1731C31.7027 21.6035 30.6532 22.7861 30.0127 24.2031C28.2959 27.8881 27.119 31.8243 25.0668 35.3485C23.2763 38.5544 20.0874 41.087 16.3755 41.5426C14.4676 41.7001 12.4523 41.7537 10.6551 40.9932C7.48969 39.5996 5.82653 35.7237 6.65811 32.434C7.45616 29.4123 9.97436 27.0573 12.9553 26.2265C12.3618 24.0423 12.7742 21.6035 14.1356 19.7845C15.8558 17.5032 18.5718 16.0091 21.4287 15.8014C27.0016 15.2587 32.4873 16.7159 37.9228 17.7243ZM40.9809 18.21C41.6481 18.2971 42.3154 18.3808 42.9827 18.4612C43.2878 17.6573 43.5359 16.8198 43.4856 15.9521C42.1679 15.9354 41.6179 17.2921 40.9809 18.21ZM36.8632 26.6687C38.6471 25.121 40.2901 23.3857 41.5375 21.3657C40.8266 21.302 40.1124 21.2451 39.4015 21.1747C38.5431 23.0005 37.678 24.8229 36.8632 26.6687ZM47.724 35.3753C50.5943 35.0336 53.4042 33.3452 54.5175 30.5982C55.0205 29.5999 53.7362 28.8093 52.8811 29.2582C50.2489 30.2934 48.8809 32.9734 47.724 35.3753Z" fill="white"/>
<path d="M71.1993 21.2987C72.9295 20.8364 74.7469 20.2769 76.5442 20.5583C73.1944 28.0589 69.8447 35.8275 64.094 41.8542C58.6016 47.4386 51.7343 51.7533 44.1697 53.8772C33.6509 56.9492 21.9249 55.9777 12.2277 50.7919C8.1167 48.6982 4.21029 45.7401 2.09446 41.5426C0.558724 38.4338 0.112757 34.4675 2.01734 31.419C2.65779 30.5145 3.31836 29.4023 4.51208 29.208C4.11976 30.424 3.31501 31.4692 3.05011 32.7322C2.12799 36.1893 3.26136 39.8576 5.28665 42.7051C8.16365 46.9428 12.8815 49.5055 17.6497 51.0599C30.5559 55.177 45.4405 52.3362 55.9291 43.7703C62.9707 37.804 66.9878 29.3051 71.1993 21.2987Z" fill="white"/>
<path d="M90.8353 14.6121C93.424 13.2956 95.9153 11.7814 98.5442 10.5319C97.6891 12.0561 96.6933 13.4932 95.8181 15.0041C97.897 15.1816 99.9793 15.2922 102.052 15.5434C99.2752 16.4714 96.4585 17.262 93.6453 18.0727C92.6158 19.7343 91.5898 21.3958 90.5101 23.0239C89.7187 21.8514 88.9106 20.6957 88.1025 19.5333C85.135 20.3674 82.1507 21.1278 79.1798 21.9452C81.4935 20.2468 83.9714 18.7829 86.4125 17.2754C85.648 16.2905 84.8533 15.3257 84.0419 14.3743C86.3086 14.381 88.572 14.6758 90.8353 14.6121Z" fill="#FA002C"/>
<path d="M65.9349 19.8716C71.2161 17.3189 76.9902 15.463 82.9219 15.6506C83.4417 16.2704 83.9647 16.8868 84.4811 17.5065C83.549 18.0727 82.6905 18.7695 81.7014 19.2351C79.7163 19.2083 77.7178 19.1949 75.7495 19.5064C69.4892 20.4076 63.7218 23.1546 57.9846 25.6671C55.0171 26.987 51.6136 27.6502 48.4214 26.796C50.497 26.6721 52.5693 26.3404 54.5275 25.6269C58.5714 24.2232 62.1257 21.7777 65.9349 19.8716Z" fill="#FA002C"/>
</g>
<defs>
<clipPath id="clip0_231_904">
<rect width="180.399" height="54.9397" fill="white" transform="translate(0.578857 0.837036)"/>
</clipPath>
</defs>
</svg>
