<svg width="190" height="67" viewBox="0 0 190 67" fill="none" xmlns="http://www.w3.org/2000/svg">
<g clip-path="url(#clip0_229_901)">
<path d="M130.785 20.5515C130.972 19.7197 131.909 19.037 132.868 19.037H155.674L154.366 24.8811L137.241 43.5191C138.769 43.4532 142.346 43.4532 144.969 43.4532H150.652L149.044 50.9724H123.834L125.079 45.1283L142.493 26.2349C141.111 26.2966 138.618 26.3626 135.2 26.3626H129.517L130.785 20.5514V20.5515ZM185.578 19.0384H162.768C161.802 19.0384 160.87 19.7211 160.69 20.5529L159.415 26.364H165.096C168.523 26.364 171.002 26.298 172.383 26.2364L154.971 45.1297L153.735 50.9738C153.846 50.9609 153.953 50.9609 154.062 50.9451C155.228 50.8591 159.599 50.6769 166.866 52.0293C167.459 52.1469 168.067 52.266 168.677 52.3793C168.734 52.3864 168.783 52.4008 168.836 52.4065C172.263 53.0318 176.137 53.4262 181.783 52.646L183.318 45.58C175.744 46.5294 171.724 45.1383 166.752 44.2491L184.264 24.8826L185.578 19.0384V19.0384ZM125.193 19.0384H117.72C116.83 19.0886 115.978 19.7096 115.77 20.474L115.756 20.5457L113.617 30.49C111.193 42.4837 106.014 44.6148 101.295 44.6148C98.9666 44.6148 98.3097 43.0115 99.1081 39.0934L103.482 19.0399H96.0072C95.1112 19.0901 94.2706 19.711 94.0559 20.4754L94.0396 20.5472L89.5615 41.0797C88.2997 47.0643 90.2087 51.3209 96.5551 51.6478C96.5551 51.6478 98.1926 51.6665 99.0121 51.5747C103.894 51.2219 107.734 49.7648 110.637 46.8478C110.064 48.6161 109.716 49.9498 109.523 50.9738H118.414C119.141 47.1203 120.596 40.1203 121.549 35.7461L125.193 19.0384H125.193ZM86.9404 28.2901C86.9404 40.3712 80.6784 51.5575 63.6976 51.5575C58.9641 51.5575 54.8112 51.166 50.8778 50.3958L59.7072 9.6979L59.691 9.69504L59.7105 9.62476C59.9203 8.85893 60.7707 8.23365 61.6634 8.18776H69.1302L67.0505 17.6918C66.7058 19.3755 66.1919 21.1136 65.374 23.3724C67.7562 20.9186 71.9612 18.3687 78.415 18.3271C83.9517 18.3286 86.9404 21.4836 86.9404 28.2901ZM77.5418 29.8346C77.5418 26.6838 76.3515 25.3974 73.8702 25.3974C68.8424 25.3974 64.8407 29.9278 61.7252 42.4894L61.2178 44.6794C62.4585 44.9332 63.696 45.1268 65.2992 45.1268C73.6799 45.1283 77.5418 36.5177 77.5418 29.8346ZM46.8631 53.1479L45.3362 60.2225C31.8579 62.0812 28.435 57.2625 17.2836 58.5518L18.4836 52.6976L18.4868 52.6689C18.6153 52.2387 18.9453 51.8644 19.373 51.6048C8.5159 50.8949 3.47839 45.0723 3.47839 35.8752C3.47839 20.1298 15.6445 6.89417 32.1099 6.89417C44.0565 6.89417 50.4014 12.6809 50.4014 22.7643C50.4014 37.764 39.9426 49.1352 26.4187 51.3036C33.5164 51.9074 37.4385 54.3325 46.8631 53.1479ZM22.9991 44.0942C32.9815 44.0942 40.4125 34.781 40.4125 23.7281C40.4125 18.1364 37.3507 14.4148 30.7294 14.4148C20.2316 14.4148 13.4542 24.1153 13.4542 34.4583C13.4542 40.5648 16.812 44.0942 22.9991 44.0942Z" fill="white"/>
</g>
<defs>
<clipPath id="clip0_229_901">
<rect width="188.819" height="66.6137" fill="white" transform="translate(0.227783)"/>
</clipPath>
</defs>
</svg>
