<svg width="180" height="42" viewBox="0 0 180 42" fill="none" xmlns="http://www.w3.org/2000/svg">
<path d="M176.17 40.1494C176.17 39.1857 176.956 38.4008 177.919 38.4008C178.884 38.4008 179.67 39.1857 179.67 40.1494C179.67 41.1145 178.884 41.9002 177.919 41.9002C176.956 41.9002 176.17 41.1145 176.17 40.1494ZM179.242 40.1494C179.242 39.3315 178.652 38.7402 177.919 38.7402C177.188 38.7402 176.597 39.3315 176.597 40.1494C176.597 40.9702 177.188 41.56 177.919 41.56C178.652 41.56 179.242 40.9702 179.242 40.1494ZM177.246 39.1528H177.983C178.458 39.1528 178.715 39.3165 178.715 39.7337C178.715 40.0716 178.52 40.2376 178.197 40.266L178.73 41.1347H178.351L177.839 40.2802H177.616V41.1347H177.246V39.1528ZM177.616 40.0006H177.939C178.158 40.0006 178.347 39.9707 178.347 39.7045C178.347 39.472 178.134 39.4332 177.945 39.4332H177.616V40.0006H177.616Z" fill="white"/>
<path d="M170.705 11.3591C170.705 8.46748 168.028 5.21922 163.738 6.52824C158.627 8.08471 157.34 16.0338 157.511 21.7939C157.699 28.1319 159.827 35.1174 163.3 35.5831C165.63 35.8821 167.012 34.4333 167.025 33.2013L167.011 23.6741C167.011 22.3374 166.026 21.071 164.447 20.9992V17.2329L174.752 17.2351L174.741 41.4987L165.761 40.0088C156.634 39.0855 151.555 32.7423 150.172 24.4882C148.165 12.5552 154.527 3.67991 165.227 2.21091C165.227 2.21091 172.317 1.08131 174.624 0.713501L174.627 11.3277L170.705 11.3591" fill="white"/>
<path d="M39.7843 5.95479C42.8838 6.48184 47.5069 9.90876 47.4426 15.8431C47.3477 24.314 41.3004 26.5418 37.5259 26.5201L31.2469 26.4887L31.2798 31.976C31.2798 32.5651 31.7904 33.5257 33.6639 33.9698L33.6803 37.0453C29.7555 37.5066 26.0654 37.9297 22.0658 38.4754L22.0763 34.9484C24.0469 34.6837 24.3983 33.1512 24.3983 32.6047V16.4755C24.3834 15.7115 23.5274 15.1127 22.1047 14.9983L22.1152 11.2544L31.2581 12.5657V22.4884L36.5398 22.519C39.2199 22.4473 40.9244 19.599 40.9678 16.7507C41.0336 12.3907 38.5254 10.3483 35.6569 9.89307L10.7153 6.91917C10.3288 6.87731 9.68735 6.9715 9.23282 7.37819C8.53383 8.00467 8.57345 9.26509 8.90986 9.79214C8.90986 9.79214 15.052 21.9965 17.9788 27.5989C19.5323 30.5182 19.927 34.3824 17.7889 36.9683C15.1791 40.1291 10.6577 39.6499 0.350023 41.4979V31.6231L4.07673 31.6463C4.04533 33.0727 4.87665 35.2698 6.69701 36.0929C7.89464 36.6349 9.7494 36.4562 10.6472 35.5778C13.0261 33.2401 10.6577 30.5802 8.47402 26.2749L0.980237 11.0974C0.721573 10.5412 -0.827422 6.92067 1.57158 4.12844C3.58183 1.79523 6.30154 1.71674 7.87521 1.93279L39.7843 5.95479Z" fill="white"/>
<path d="M149.826 7.37012C147.891 7.60785 147.289 9.01929 147.289 10.2678V37.5464L139.389 36.6388C136.492 30.1333 131.119 16.9302 131.119 16.9302L131.129 29.3566C131.129 31.3893 131.9 32.4755 133.321 32.8209V36.0265C126.639 35.3985 119.719 34.8483 112.814 34.4439L112.849 31.3952C114.53 31.3033 115.385 30.0339 115.385 28.2195L115.401 12.7041C115.401 11.8339 114.431 10.7014 112.864 10.8157L112.829 7.75064L121.753 7.11968L121.748 28.3974C121.714 29.4179 122.078 31.2487 124.328 31.4221C125.635 31.5343 126.823 30.6447 126.823 29.5255L126.801 12.0448C126.801 10.9742 125.875 10.0554 124.424 10.0203L124.455 6.90288L134.056 6.02447L142.938 26.3857L142.93 10.8613C142.93 9.72875 142.032 8.50046 140.388 8.46832L140.422 5.39575C140.422 5.39575 147.57 4.52706 149.827 4.30054V7.37012" fill="white"/>
<path fill-rule="evenodd" clip-rule="evenodd" d="M111.979 20.2876C112.39 29.592 106.313 33.762 101.32 33.7366L89.717 33.6649L89.7133 15.7325C89.7133 13.4023 89.0121 11.9057 87.2351 11.9632L87.1894 8.54004L101.76 8.5976C106.973 8.62975 111.657 12.9777 111.979 20.2876M105.183 21.773C105.183 26.7587 102.943 29.9748 100.236 29.9568L96.366 29.959V12.3796L99.6472 12.3774C102.95 12.266 105.183 16.2521 105.183 21.7731" fill="white"/>
<path fill-rule="evenodd" clip-rule="evenodd" d="M67.6363 29.0627C67.8785 29.7841 68.6538 30.3366 69.4417 30.2199C70.7545 30.0345 71.1559 29.1726 71.1253 28.0871L71.1148 13.2827C71.1111 11.9789 69.6196 11.3322 68.6246 11.3591L68.662 8.0137L77.8916 8.38077L77.8961 29.9284C78.779 29.894 80.7855 29.9912 80.7855 29.9912C82.626 29.8641 83.716 28.3129 83.7369 25.9826L87.522 26.0051C87.522 28.6739 87.5302 30.984 87.522 33.6581C82.3554 33.5796 64.222 34.2763 58.8327 34.7712L58.8431 31.289C60.2867 31.3294 60.8452 30.7283 60.5872 29.9284L60.2254 28.1805L51.5475 28.176L50.8776 29.7676C50.3027 31.3667 51.8024 32.1345 52.6935 32.0141V35.2041L42.4725 36.1401L42.5159 32.4074C44.026 32.207 45.4076 30.9384 45.9204 29.5097L52.0275 12.7145C52.6936 11.4302 51.9034 10.4478 50.3978 10.3006L50.4329 6.8385L60.0229 7.54123L67.6363 29.0627ZM58.9337 24.2153L53.0494 24.1623L56.0891 15.7676L58.9337 24.2153V24.2153Z" fill="white"/>
</svg>
