<svg width="61" height="61" viewBox="0 0 61 61" fill="none" xmlns="http://www.w3.org/2000/svg">
<path d="M27.5243 38.9525L24.0634 42.4228L24.0257 42.451C23.428 40.2053 22.1341 38.2068 20.3297 36.7424L24.8157 32.2563C25.4458 33.8834 26.4145 36.3192 27.5243 38.9525Z" fill="#9E6861"/>
<path d="M45.6471 5.14254L44.7161 11.4155H43.7756V9.53453L41.8946 6.71312H30.609L28.7281 9.53453V11.4155H27.7876L26.8566 5.14254C26.8022 4.64 26.852 4.13166 27.0029 3.64922C27.1537 3.16678 27.4023 2.7206 27.7332 2.33851C28.0641 1.95641 28.4702 1.64661 28.9262 1.42841C29.3821 1.21022 29.8782 1.08832 30.3833 1.07031H42.1204C42.6255 1.08832 43.1215 1.21022 43.5775 1.42841C44.0334 1.64661 44.4395 1.95641 44.7704 2.33851C45.1013 2.7206 45.35 3.16678 45.5008 3.64922C45.6516 4.13166 45.7014 4.64 45.6471 5.14254Z" fill="#414952"/>
<path d="M42.9574 45.2441L40.0137 51.8556L36.3553 51.329L38.0199 43.0058C38.0962 42.6429 38.2759 42.3097 38.5372 42.0465L40.5498 40.0339L41.8946 43.3914L42.8351 45.2723L42.9574 45.2441Z" fill="#9E6861"/>
<path d="M49.4184 43.9087V48.5358C49.4213 49.4628 49.0794 50.3578 48.4591 51.0468L42.1109 58.138C41.7622 58.5289 41.3347 58.8415 40.8566 59.0555C40.3784 59.2694 39.8604 59.3798 39.3366 59.3794H35.9603C35.587 59.3798 35.2158 59.3227 34.8599 59.2101L25.1073 56.558L18.571 57.4985L13.6806 56.511L11.4329 56.0595C11.1622 56.0059 10.9067 55.8934 10.6844 55.73C10.4621 55.5665 10.2785 55.3562 10.1465 55.1139C10.0146 54.8716 9.93761 54.6032 9.92099 54.3278C9.90437 54.0524 9.94854 53.7767 10.0504 53.5203L10.7933 51.6487L12.3357 47.774C12.5083 47.3471 12.8315 46.9984 13.244 46.7938C13.6565 46.5893 14.1298 46.5432 14.574 46.6643L20.9222 48.4511C22.0978 48.7427 23.0853 47.4354 23.0853 46.2128V44.3413C23.0852 44.0832 23.1386 43.828 23.2422 43.5916C23.3458 43.3553 23.4973 43.143 23.6872 42.9682C23.8458 42.8102 24.0345 42.6855 24.242 42.6014C24.4741 42.5029 24.7235 42.4518 24.9756 42.451C25.2217 42.4497 25.4657 42.4973 25.6933 42.5909C25.9209 42.6845 26.1277 42.8223 26.3018 42.9963C26.4758 43.1704 26.6136 43.3772 26.7072 43.6048C26.8008 43.8324 26.8484 44.0764 26.8471 44.3225V49.9747L33.4304 50.9152L36.3553 51.329L40.0137 51.8556L42.9574 45.2441L46.597 44.3319C47.554 44.3415 48.5064 44.1987 49.4184 43.9087Z" fill="#BA7B72"/>
<path d="M44.716 11.4155C45.2144 11.417 45.692 11.6157 46.0444 11.9681C46.3968 12.3205 46.5955 12.7981 46.597 13.2965V14.2369C46.597 14.9852 46.2997 15.7029 45.7706 16.232C45.2415 16.7611 44.5239 17.0583 43.7756 17.0583L43.7191 17.0489C43.757 16.74 43.7758 16.4291 43.7756 16.1179V11.4155H44.716Z" fill="#BA7B72"/>
<path d="M28.7281 16.1179C28.7279 16.4291 28.7467 16.74 28.7845 17.0489L28.7281 17.0583C27.9798 17.0583 27.2622 16.7611 26.733 16.232C26.2039 15.7029 25.9067 14.9852 25.9067 14.2369V13.2965C25.9082 12.7981 26.1068 12.3205 26.4592 11.9681C26.8117 11.6157 27.2892 11.417 27.7876 11.4155H28.7281V16.1179Z" fill="#BA7B72"/>
<path d="M43.7756 11.4155V16.1178C43.7758 16.429 43.757 16.74 43.7191 17.0489C43.479 18.924 42.5465 20.6415 41.1046 21.8641C39.6642 23.082 37.8189 23.7144 35.9342 23.636C34.0496 23.5576 32.2631 22.7742 30.9288 21.4409C30.015 20.5104 29.3489 19.3658 28.9914 18.1116C28.8981 17.7625 28.829 17.4075 28.7845 17.0489C28.7467 16.74 28.7278 16.429 28.7281 16.1178V9.53454L30.609 6.71313H41.8946L43.7756 9.53454V11.4155Z" fill="#BA7B72"/>
<path d="M24.0257 28.4849C24.0272 29.0653 24.0807 29.6445 24.1856 30.2154L24.0257 30.2248L23.1511 29.6417C22.5277 29.2063 22.0364 28.6075 21.731 27.9112C21.3791 27.1343 21.1995 26.2906 21.2043 25.4378C21.2043 23.2747 22.3047 21.3938 23.8753 20.8671L24.0257 20.8201V28.4849Z" fill="#BA7B72"/>
<path d="M30.9288 21.441C32.2631 22.7743 34.0496 23.5577 35.9342 23.6361C37.8189 23.7145 39.6642 23.0821 41.1046 21.8642L43.7756 23.6417L34.3709 31.1654L29.6685 22.7012V19.8798L29.725 19.8516C30.0524 20.4334 30.4574 20.9681 30.9288 21.441Z" fill="#9E6861"/>
<path d="M49.4184 43.9087C48.5064 44.1987 47.554 44.3415 46.597 44.3319L42.9574 45.2441L42.8351 45.2724L41.8946 43.3914L40.5498 40.0339L40.0137 38.6891C40.0137 32.971 42.9574 30.2249 46.597 30.2249C50.1237 30.2249 52.0611 32.0117 52.8135 35.5291C53.0795 36.8792 53.2025 38.2536 53.1803 39.6295C53.1803 41.6704 51.6473 43.2127 49.4184 43.9087Z" fill="#BA7B72"/>
<path d="M55.2305 34.946L53.1803 26.4629L42.8351 19.8797L42.7787 19.8514C42.3455 20.617 41.7785 21.2987 41.1047 21.864L43.7756 23.6415L34.3709 31.1653L29.6686 22.7011V19.8797L29.725 19.8514C29.4064 19.3056 29.1599 18.7207 28.9914 18.1116L24.0257 18.9392V28.4849C24.0272 29.0654 24.0807 29.6445 24.1856 30.2154C24.2936 30.787 24.4542 31.3474 24.6653 31.8894C24.7123 32.0117 24.7593 32.134 24.8157 32.2562C25.4458 33.8832 26.4145 36.319 27.5243 38.9524C29.1762 43.0887 31.151 47.0886 33.4304 50.9151L36.3553 51.3289L38.0199 43.0058C38.0962 42.6428 38.2759 42.3097 38.5372 42.0465L40.5498 40.0339L40.0137 38.689C40.0137 32.971 42.9574 30.2248 46.597 30.2248C50.1237 30.2248 52.0611 32.0117 52.8135 35.5291C53.0795 36.8792 53.2025 38.2536 53.1803 39.6295C53.1803 41.6703 51.6473 43.2127 49.4184 43.9086V48.5357C49.4213 49.4628 49.0794 50.3578 48.4591 51.0468L42.111 58.1379C41.7622 58.5288 41.3347 58.8415 40.8566 59.0554C40.3784 59.2694 39.8604 59.3798 39.3366 59.3793H56.0017L59.7636 53.7365L55.2305 34.946Z" fill="#FEA632"/>
<path d="M11.4329 56.0594L13.6806 56.5108V56.5202C13.3702 56.5485 13.0599 56.5579 12.7401 56.5579C9.77791 56.5604 6.93386 55.3963 4.82348 53.3176C2.71311 51.239 1.50617 48.4128 1.4639 45.4509C1.70842 47.3131 5.62077 50.774 10.7933 51.6486L10.0504 53.5202C9.94855 53.7766 9.90438 54.0523 9.92099 54.3277C9.93762 54.6031 10.0146 54.8714 10.1465 55.1138C10.2785 55.3561 10.4621 55.5664 10.6844 55.7298C10.9067 55.8933 11.1622 56.0058 11.4329 56.0594Z" fill="#EF680C"/>
<path d="M1.45449 45.2725H23.0853V46.2129C23.0853 47.4355 22.0978 48.7428 20.9222 48.4512L14.574 46.6644C14.1298 46.5433 13.6565 46.5894 13.244 46.7939C12.8315 46.9985 12.5083 47.3472 12.3357 47.7741L10.7933 51.6488C5.62076 50.7742 1.70841 47.3133 1.46389 45.4511C1.45631 45.3919 1.45317 45.3322 1.45449 45.2725Z" fill="#EF680C"/>
<path d="M23.0853 44.3412V45.2722H1.45448C1.45448 43.1938 6.72111 38.689 13.2103 38.689C17.1234 38.7127 20.8764 40.2455 23.6872 42.9681C23.4973 43.1429 23.3458 43.3552 23.2422 43.5915C23.1386 43.8279 23.0852 44.0831 23.0853 44.3412Z" fill="#EF680C"/>
<path d="M24.0634 42.4228L24.242 42.6015C24.0345 42.6856 23.8458 42.8103 23.6872 42.9683C20.8764 40.2457 17.1234 38.7128 13.2103 38.6892C6.72111 38.6892 1.45448 43.194 1.45448 45.2724C1.45448 42.2793 2.6435 39.4088 4.75997 37.2923C6.87643 35.1758 9.74697 33.9868 12.7401 33.9868C15.5134 33.9948 18.1973 34.9692 20.3297 36.7424C22.1341 38.2068 23.428 40.2054 24.0257 42.451L24.0634 42.4228Z" fill="#EF680C"/>
<path d="M45.6565 14.707V13.9236C45.61 13.4683 45.3872 13.0493 45.0356 12.7563C44.6841 12.4633 44.2318 12.3196 43.7756 12.3559V16.1177C43.7756 16.2344 43.7596 16.35 43.754 16.4685C44.231 16.4562 44.6872 16.2706 45.0373 15.9464C45.3874 15.6222 45.6075 15.1817 45.6565 14.707Z" fill="#8C5956"/>
<path d="M28.7281 12.3559C28.2719 12.3196 27.8196 12.4633 27.468 12.7563C27.1165 13.0493 26.8936 13.4683 26.8471 13.9236V14.707C26.8961 15.1817 27.1162 15.6222 27.4664 15.9464C27.8165 16.2706 28.2727 16.4562 28.7497 16.4685C28.7441 16.35 28.7281 16.2344 28.7281 16.1177V12.3559Z" fill="#8C5956"/>
<path d="M41.8947 6.71313H40.0137L40.8517 7.9696C41.5317 8.99016 41.8946 10.1891 41.8947 11.4155V16.1178C41.8949 16.429 41.876 16.74 41.8382 17.0489C41.5981 18.924 40.6656 20.6415 39.2237 21.8641C38.1145 22.8042 36.7546 23.3995 35.3114 23.5767C35.6232 23.6179 35.9373 23.6395 36.2518 23.6416C38.0294 23.6455 39.7501 23.0152 41.1047 21.8641C42.5465 20.6415 43.4791 18.924 43.7192 17.0489C43.757 16.74 43.7758 16.429 43.7756 16.1178V9.53454L41.8947 6.71313Z" fill="#C9867B"/>
<path d="M52.8135 35.5291C52.0611 32.0117 50.1237 30.2248 46.597 30.2248C45.4019 30.2103 44.2287 30.5464 43.2226 31.1916C46.4945 31.3242 48.3284 33.0885 49.0535 36.4695C49.3189 37.8197 49.4412 39.1941 49.4184 40.57C49.3927 41.3637 49.1455 42.1344 48.7048 42.795C48.264 43.4557 47.6473 43.9798 46.9243 44.3083C47.7704 44.2946 48.6103 44.16 49.4184 43.9086C51.6473 43.2127 53.1803 41.6703 53.1803 39.6295C53.2025 38.2536 53.0795 36.8792 52.8135 35.5291Z" fill="#C9867B"/>
<path d="M43.7756 23.6415L41.1046 21.864C40.5952 22.2957 40.0303 22.6572 39.425 22.939C39.6127 23.3255 39.6625 23.7646 39.5659 24.1833C39.4694 24.6019 39.2325 24.975 38.8945 25.2403L33.4398 29.4837L34.3709 31.1652L43.7756 23.6415Z" fill="#8C5956"/>
<path d="M24.0257 28.4849V20.8201L23.8753 20.8671C23.5928 20.9692 23.3267 21.1118 23.0853 21.2903V25.5224C23.084 25.9658 22.926 26.3946 22.6393 26.7329C22.3527 27.0712 21.9557 27.2973 21.5184 27.3714C21.5794 27.555 21.6504 27.7353 21.731 27.9112C22.0364 28.6075 22.5277 29.2063 23.1511 29.6417L24.0257 30.2248L24.1856 30.2154C24.0807 29.6445 24.0272 29.0653 24.0257 28.4849Z" fill="#8C5956"/>
<path d="M36.2518 23.6417C34.6412 23.6404 33.0736 23.1211 31.7808 22.1604C31.4794 21.942 31.1946 21.7016 30.9288 21.441C30.4574 20.9681 30.0524 20.4334 29.725 19.8516L29.6685 19.8798V22.7012L30.1999 23.6576C30.3194 23.5833 30.6701 23.3407 30.9871 23.114C31.1447 23.0052 31.3314 22.946 31.523 22.9442C31.7146 22.9423 31.9023 22.9979 32.062 23.1037C32.6869 23.4741 33.3809 23.7128 34.1014 23.8053C34.8219 23.8978 35.5536 23.8421 36.2518 23.6417Z" fill="#8C5956"/>
<path d="M31.6059 19.8515C31.2874 19.3056 31.0408 18.7208 30.8723 18.1116C30.779 17.7625 30.7099 17.4075 30.6654 17.0489C30.6276 16.74 30.6088 16.429 30.609 16.1178V11.3863C30.6348 10.6293 30.9567 9.9126 31.5054 9.39043C32.0541 8.86825 32.7859 8.5823 33.5433 8.59407H43.1483L41.8946 6.71313H30.609L29.3554 8.59407L28.7281 9.53454V16.1178C28.7278 16.429 28.7467 16.74 28.7845 17.0489C28.829 17.4075 28.8981 17.7625 28.9914 18.1116C29.3489 19.3658 30.015 20.5104 30.9288 21.4409C31.7372 22.2561 32.7233 22.8731 33.81 23.2436C34.8966 23.6141 36.0543 23.7281 37.1923 23.5767C35.5354 23.3692 33.9941 22.618 32.8097 21.4409C32.3383 20.968 31.9333 20.4334 31.6059 19.8515Z" fill="#9E6861"/>
<path d="M28.7281 11.4156V9.53462L30.609 6.71321H41.8946L43.7756 9.53462V11.4156H44.716L45.3236 7.32076L42.8351 4.83228H29.6685L27.1801 7.32076L27.7876 11.4156H28.7281Z" fill="#333940"/>
<path d="M45.1731 48.3628L45.2672 48.1361C45.3872 47.8361 45.5824 47.5721 45.8341 47.3694C46.0858 47.1668 46.3855 47.0325 46.7042 46.9793L49.4184 46.526V43.9087C48.5064 44.1987 47.554 44.3416 46.597 44.3319L42.9574 45.2442L40.0137 51.8557C41.1242 51.8555 42.2092 51.5227 43.1288 50.9001C44.0484 50.2775 44.7605 49.3938 45.1731 48.3628Z" fill="#9E6861"/>
<path d="M42.8351 45.2723L41.8946 43.3914L40.5498 40.0339L38.5372 42.0465C38.4008 42.1849 38.2866 42.3435 38.1986 42.5168L40.1322 44.4504C40.3792 44.6974 40.5526 45.0084 40.6328 45.3484C40.7131 45.6884 40.697 46.0441 40.5865 46.3755L39.6244 49.2628C39.4745 49.7131 39.16 50.0901 38.7438 50.3182C38.3276 50.5464 37.8406 50.6088 37.3804 50.4929L36.5603 50.2879L36.3553 51.329L40.0137 51.8556L42.9574 45.2441L42.8351 45.2723Z" fill="#8C5956"/>
<path d="M24.9662 47.2896V42.4509C24.7174 42.4529 24.4713 42.5037 24.242 42.6005C24.0345 42.6845 23.8458 42.8092 23.6872 42.9672C23.4972 43.1422 23.3457 43.3546 23.2421 43.5911C23.1384 43.8276 23.0851 44.0831 23.0853 44.3413V46.2128C23.0853 47.4354 22.0978 48.7427 20.9222 48.4511L20.277 48.2696L22.4401 49.0568C22.7243 49.1606 23.0294 49.1942 23.3294 49.155C23.6294 49.1157 23.9155 49.0046 24.1634 48.8312C24.4114 48.6578 24.6138 48.4271 24.7536 48.1587C24.8933 47.8903 24.9663 47.5922 24.9662 47.2896Z" fill="#9E6861"/>
<path d="M38.1328 57.4983H35.9603C35.587 57.4988 35.2158 57.4417 34.8599 57.3291L27.0813 55.2139C25.7801 54.8597 24.4201 54.7762 23.0853 54.9685L18.571 55.6174L13.6806 54.6299L11.4329 54.1785C11.1652 54.1268 10.9122 54.0169 10.6918 53.8565C10.4714 53.696 10.289 53.4891 10.1576 53.2502L10.0504 53.5202C9.94854 53.7766 9.90437 54.0523 9.92099 54.3277C9.93761 54.6031 10.0146 54.8715 10.1465 55.1138C10.2785 55.3561 10.4621 55.5664 10.6844 55.7298C10.9067 55.8933 11.1622 56.0058 11.4329 56.0594L13.6806 56.5108L18.571 57.4983L25.1073 56.5579L30.609 58.0542L34.8599 59.21C35.2158 59.3226 35.587 59.3797 35.9603 59.3793H38.1328C38.3822 59.3793 38.6214 59.2802 38.7978 59.1038C38.9741 58.9274 39.0732 58.6882 39.0732 58.4388C39.0732 58.1894 38.9741 57.9502 38.7978 57.7738C38.6214 57.5974 38.3822 57.4983 38.1328 57.4983Z" fill="#9E6861"/>
<path d="M24.8157 32.2563L23.4379 33.6341L25.0367 36.2938C25.2762 36.6928 25.3592 37.1664 25.2697 37.6231C25.1802 38.0798 24.9247 38.4871 24.5524 38.7663L23.0063 39.9259C23.4556 40.7191 23.7983 41.5682 24.0257 42.451L24.0634 42.4228L27.5243 38.9525C26.4145 36.3192 25.4458 33.8834 24.8157 32.2563Z" fill="#8C5956"/>
<path d="M37.2421 35.1068L36.4719 37.1608C36.4022 37.3467 36.3717 37.5451 36.3824 37.7433C36.3931 37.9416 36.4447 38.1355 36.534 38.3129L36.549 38.3439C36.6337 38.5131 36.6842 38.6973 36.6977 38.886C36.7111 39.0748 36.6873 39.2643 36.6274 39.4438C36.5676 39.6232 36.473 39.7892 36.349 39.9321C36.225 40.075 36.0741 40.192 35.9048 40.2766C35.719 40.3699 35.5556 40.5022 35.4258 40.6645C35.2959 40.8269 35.2027 41.0153 35.1524 41.2171L33.9006 46.2072C33.8395 46.452 33.7297 46.6819 33.5778 46.8834C33.4259 47.0849 33.235 47.2537 33.0165 47.3799C32.798 47.5061 32.5564 47.587 32.306 47.6179C32.0555 47.6487 31.8015 47.6289 31.5589 47.5596L31.4893 47.5398C32.0768 48.6981 32.7248 49.8248 33.4304 50.9152L36.3553 51.329L38.0199 43.0058C38.0962 42.6429 38.2759 42.3097 38.5372 42.0465L40.5498 40.0339L40.0137 38.6891C40.0137 32.971 42.9574 30.2249 46.597 30.2249H44.2872C42.7556 30.2248 41.2604 30.6922 40.0015 31.5645C38.7426 32.4369 37.7799 33.6727 37.2421 35.1068Z" fill="#F09428"/>
<path d="M26.3252 25.7849L26.8471 21.422C26.847 20.987 26.9976 20.5654 27.2733 20.229C27.549 19.8925 27.9329 19.6621 28.3594 19.5768L29.4758 19.3539C29.276 18.9558 29.1138 18.5399 28.9914 18.1116L24.0257 18.9392V28.4849C24.0272 29.0654 24.0807 29.6445 24.1856 30.2154C24.2936 30.787 24.4542 31.3474 24.6653 31.8894C24.7123 32.0117 24.7593 32.134 24.8157 32.2562C25.4458 33.8832 26.4145 36.319 27.5243 38.9524C28.6726 41.66 29.9789 44.5829 31.2391 47.0592L26.9196 32.6597C26.2515 30.4332 26.0492 28.093 26.3252 25.7849Z" fill="#FEA632"/>
<path d="M52.7796 53.3603L52.7317 52.9757C52.5478 51.0088 52.9056 49.0291 53.7662 47.251C53.9603 46.813 54.0374 46.3321 53.99 45.8554L53.1803 37.7485H53.1116C53.1549 38.3429 53.1803 38.9655 53.1803 39.6295C53.1803 41.6703 51.6473 43.2127 49.4184 43.9086V48.5357C49.4213 49.4628 49.0794 50.3578 48.4591 51.0468L42.1109 58.1379C41.7622 58.5288 41.3347 58.8415 40.8566 59.0554C40.3784 59.2694 39.8604 59.3798 39.3366 59.3793H56.0017L55.4618 58.8395C53.9838 57.3619 53.0401 55.434 52.7796 53.3603Z" fill="#F09428"/>
<path d="M53.264 26.8082L53.1803 26.4631L42.8351 19.8798L42.7787 19.8516C42.3455 20.6171 41.7785 21.2988 41.1046 21.8642L43.7756 23.6417L49.6187 27.5371C50.1991 27.9226 50.9087 28.0623 51.5919 27.9257C52.2752 27.7891 52.8764 27.3872 53.264 26.8082Z" fill="#FEA632"/>
<path d="M45.1863 23.5805C45.1766 23.3588 45.1148 23.1425 45.0058 22.9492C44.8968 22.7558 44.7437 22.591 44.559 22.4679L42.1034 20.8306C41.8044 21.2063 41.4703 21.5527 41.1056 21.8651L43.7756 23.6416L44.9427 24.4194C45.1111 24.1728 45.1964 23.8789 45.1863 23.5805Z" fill="#FDFEFF"/>
<path d="M28.9914 18.1116L28.2578 18.2338V19.6445L29.3488 19.0991C29.2051 18.7793 29.0857 18.4492 28.9914 18.1116Z" fill="#FDFEFF"/>
<path d="M43.7756 23.6416L34.3709 31.1653L29.6685 22.7011V19.8797L29.725 19.8515C29.5859 19.6078 29.4604 19.3566 29.3488 19.0991L28.2578 19.6446V22.7011C28.2579 22.9409 28.3188 23.1768 28.4347 23.3867L33.137 31.8509C33.2367 32.0303 33.3743 32.1858 33.5403 32.3065C33.7063 32.4273 33.8966 32.5103 34.098 32.5499C34.2994 32.5895 34.507 32.5846 34.7064 32.5357C34.9057 32.4868 35.0919 32.395 35.2521 32.2666L44.6568 24.7429C44.767 24.6502 44.8621 24.5411 44.9389 24.4194L43.7756 23.6416Z" fill="#E1EAF2"/>
<path d="M12.443 43.8609C15.4302 42.7299 17.1347 39.919 16.2501 37.5826C15.3655 35.2462 12.2268 34.2689 9.2396 35.3999C6.2524 36.5309 4.5479 39.3418 5.4325 41.6783C6.3171 44.0147 9.45582 44.9919 12.443 43.8609Z" fill="#FF810C"/>
<path d="M24.0634 42.4227L24.0257 42.4509C23.8692 41.845 23.6573 41.2547 23.3928 40.6875C22.9564 40.8175 22.5572 41.0497 22.2283 41.3647C21.8994 41.6796 21.6503 42.0684 21.5015 42.4988L20.7999 44.6036C20.6494 45.0427 20.3433 45.4115 19.9394 45.6403C19.5354 45.869 19.0617 45.9418 18.6077 45.845L16.0318 45.2723H12.1862C11.4492 45.6328 10.8509 46.2252 10.483 46.9585L8.44124 51.0486L8.03777 51.8556C8.03777 51.8556 6.1258 52.8073 2.64513 50.2934C3.57689 52.1746 5.01581 53.758 6.79954 54.8649C8.58328 55.9718 10.6408 56.5582 12.7401 56.5579C13.0599 56.5579 13.3702 56.5485 13.6806 56.5203V56.5109L11.4329 56.0595C11.1622 56.0058 10.9067 55.8933 10.6844 55.7299C10.4621 55.5665 10.2785 55.3561 10.1466 55.1138C10.0146 54.8715 9.93762 54.6031 9.921 54.3277C9.90438 54.0523 9.94855 53.7766 10.0504 53.5202L10.7933 51.6487L12.3357 47.7739C12.5083 47.347 12.8315 46.9983 13.244 46.7938C13.6565 46.5892 14.1298 46.5431 14.574 46.6642L20.9222 48.4511C22.0978 48.7426 23.0853 47.4354 23.0853 46.2128V44.3412C23.0852 44.0832 23.1386 43.8279 23.2423 43.5916C23.3459 43.3552 23.4973 43.1429 23.6872 42.9681C23.8458 42.8101 24.0345 42.6854 24.242 42.6014L24.0634 42.4227Z" fill="#8D3205"/>
<path d="M43.6016 43.0435L41.8006 39.4471C41.243 38.33 40.9532 37.0984 40.9542 35.8498V33.8833C40.2922 35.3969 39.9712 37.0376 40.0137 38.6891L40.5498 40.034L41.8946 43.3914L42.8351 45.2724L42.9574 45.2442L46.597 44.3319L44.1452 43.5146C43.9087 43.4358 43.7132 43.2664 43.6016 43.0435Z" fill="#AD726A"/>
<path d="M40.0137 14.237C40.5331 14.237 40.9542 13.3948 40.9542 12.356C40.9542 11.3172 40.5331 10.4751 40.0137 10.4751C39.4943 10.4751 39.0732 11.3172 39.0732 12.356C39.0732 13.3948 39.4943 14.237 40.0137 14.237Z" fill="#333940"/>
<path d="M32.49 14.237C33.0094 14.237 33.4304 13.3948 33.4304 12.356C33.4304 11.3172 33.0094 10.4751 32.49 10.4751C31.9705 10.4751 31.5495 11.3172 31.5495 12.356C31.5495 13.3948 31.9705 14.237 32.49 14.237Z" fill="#333940"/>
<path d="M37.1923 15.9833C37.1923 17.5417 36.771 17.9988 36.2518 17.9988C35.7327 17.9988 35.3114 17.5417 35.3114 15.9833C35.3114 14.425 35.7327 12.356 36.2518 12.356C36.771 12.356 37.1923 14.425 37.1923 15.9833Z" fill="#8C5956"/>
<path d="M19.4475 49.5215L14.4113 48.1474L12.4232 47.6057C12.3909 47.6601 12.3617 47.7163 12.3357 47.7741L12.0536 48.4803L14.0587 49.0268L19.1983 50.4281C19.239 50.4397 19.2811 50.4454 19.3234 50.445C19.4371 50.4448 19.5469 50.4034 19.6324 50.3284C19.7179 50.2535 19.7734 50.1501 19.7885 50.0374C19.8037 49.9247 19.7775 49.8103 19.7148 49.7155C19.6521 49.6206 19.5572 49.5517 19.4475 49.5215Z" fill="#8C5956"/>
<path d="M18.5118 52.0869L13.3984 50.6912L11.3962 50.1458L11.0463 51.0251L13.0467 51.5706L18.2682 52.9944C18.3086 53.0055 18.3504 53.0112 18.3923 53.0114C18.5066 53.012 18.6173 52.971 18.7035 52.8959C18.7898 52.8209 18.8458 52.717 18.861 52.6037C18.8762 52.4904 18.8496 52.3754 18.7862 52.2803C18.7228 52.1852 18.6269 52.1164 18.5165 52.0869H18.5118Z" fill="#8C5956"/>
<path d="M17.5666 54.2237L12.5821 52.8629L10.5366 52.3052L10.1877 53.1845L12.7128 53.8739L17.3211 55.1303C17.3606 55.1416 17.4014 55.1473 17.4425 55.1473C17.5562 55.1471 17.6659 55.1056 17.7515 55.0307C17.837 54.9558 17.8925 54.8524 17.9076 54.7397C17.9228 54.627 17.8966 54.5126 17.8339 54.4178C17.7712 54.3229 17.6762 54.254 17.5666 54.2237Z" fill="#8C5956"/>
<path d="M10.3419 52.4981C9.55727 52.3409 8.78526 52.1262 8.03212 51.8557C8.78491 52.1273 9.557 52.342 10.3419 52.4981Z" fill="#333940"/>
<path d="M9.50677 51.3506C9.56132 51.3647 9.61493 51.3797 9.66948 51.3929C9.61493 51.3797 9.56132 51.3647 9.50677 51.3506Z" fill="#333940"/>
<path d="M13.2103 38.689C7.81488 38.689 3.17554 41.7257 1.57957 44.1512C1.5002 44.678 1.4584 45.2098 1.45449 45.7425C1.45317 45.8022 1.45631 45.8619 1.46389 45.9212C1.47358 46.3966 1.51347 46.8709 1.58333 47.3413C3.23289 49.4569 5.47887 51.0293 8.03118 51.8555H8.03777L8.45157 51.0279C4.97936 49.8156 2.55107 47.5538 2.03005 46.2127H23.0853V45.2722H2.03193C2.75139 43.3349 7.43587 39.6294 13.2103 39.6294C16.9357 39.6607 20.5121 41.0961 23.2254 43.649C23.3267 43.3905 23.4845 43.1579 23.6872 42.9681C23.7201 42.9352 23.7586 42.9107 23.7934 42.8816C20.9191 40.2019 17.14 38.7047 13.2103 38.689Z" fill="#333940"/>
<path d="M8.45158 51.0281C8.79297 51.1475 9.14659 51.2538 9.50679 51.3507C9.14659 51.2538 8.79015 51.1475 8.45158 51.0281Z" fill="#23272B"/>
<path d="M10.7971 51.6395C10.4115 51.5718 10.0372 51.4881 9.66855 51.3931C10.0363 51.4871 10.4106 51.5727 10.7971 51.6404V51.6395Z" fill="#23272B"/>
<path d="M10.4463 52.5225C10.4106 52.516 10.3767 52.5056 10.341 52.499C10.3777 52.5047 10.4106 52.5141 10.4463 52.5225Z" fill="#23272B"/>
<path d="M8.03119 51.8586L8.03213 51.8596L8.03119 51.8586Z" fill="#23272B"/>
<path d="M8.03119 51.8558C8.78443 52.125 9.55644 52.3384 10.341 52.4944C10.3767 52.5009 10.4106 52.5113 10.4463 52.5179L10.7924 51.6451V51.6367C10.4068 51.5689 10.0325 51.4843 9.66384 51.3893C9.6093 51.3761 9.55569 51.3611 9.50114 51.347C9.14094 51.2529 8.78733 51.1439 8.44594 51.0244L8.03777 51.8558H8.03119Z" fill="#23272B"/>
<path d="M18.6077 45.8452L16.0318 45.2725H12.1862C11.7289 45.5016 11.3231 45.8216 10.9937 46.2129H23.0853V45.2725H20.4021C20.1798 45.5172 19.8968 45.6991 19.5818 45.7996C19.2667 45.9002 18.9308 45.9159 18.6077 45.8452Z" fill="#23272B"/>
<path d="M23.2254 43.6492C23.3267 43.3907 23.4845 43.1581 23.6872 42.9683C23.7201 42.9354 23.7586 42.9109 23.7934 42.8818C23.2689 42.3743 22.7026 41.9118 22.1006 41.4993C21.8864 41.7351 21.714 42.0058 21.5909 42.2996C22.1755 42.6989 22.7227 43.1506 23.2254 43.6492Z" fill="#23272B"/>
<path d="M14.5258 37.5569C14.7984 37.2844 14.712 36.7562 14.333 36.3771C13.954 35.9981 13.4258 35.9118 13.1533 36.1843C12.8807 36.4568 12.9671 36.985 13.3461 37.364C13.7251 37.7431 14.2533 37.8294 14.5258 37.5569Z" fill="#F6FAFD"/>
<path d="M10.3593 38.4945C10.4963 38.3575 10.4528 38.0919 10.2622 37.9013C10.0716 37.7107 9.80603 37.6672 9.66904 37.8042C9.53205 37.9412 9.57552 38.2068 9.76613 38.3974C9.95675 38.588 10.2223 38.6315 10.3593 38.4945Z" fill="#F6FAFD"/>
<path d="M9.22903 37.2594C9.29735 37.191 9.27561 37.0586 9.18049 36.9634C9.08536 36.8683 8.95287 36.8466 8.88456 36.9149C8.81624 36.9832 8.83798 37.1157 8.9331 37.2108C9.02823 37.3059 9.16072 37.3277 9.22903 37.2594Z" fill="#F6FAFD"/>
<path d="M30.8853 33.353C31.4884 32.75 31.2967 31.5805 30.4571 30.7409C29.6175 29.9013 28.448 29.7095 27.8449 30.3126C27.2418 30.9157 27.4336 32.0852 28.2732 32.9248C29.1128 33.7644 30.2823 33.9561 30.8853 33.353Z" fill="#F6FAFD"/>
<path d="M51.7589 35.4379C52.0619 35.1349 51.9658 34.5475 51.5441 34.1259C51.1225 33.7042 50.5351 33.6081 50.2321 33.9111C49.9291 34.2141 50.0252 34.8015 50.4469 35.2231C50.8685 35.6448 51.4559 35.7409 51.7589 35.4379Z" fill="#F6FAFD"/>
<path d="M31.0649 36.372C31.3679 36.069 31.2717 35.4816 30.8501 35.06C30.4284 34.6383 29.841 34.5422 29.538 34.8452C29.235 35.1482 29.3312 35.7356 29.7528 36.1572C30.1744 36.5789 30.7619 36.675 31.0649 36.372Z" fill="#F6FAFD"/>
<path d="M33.4304 18.9392H39.0732C39.0732 19.6875 38.776 20.4051 38.2469 20.9342C37.7177 21.4634 37.0001 21.7606 36.2518 21.7606C35.5035 21.7606 34.7859 21.4634 34.2568 20.9342C33.7277 20.4051 33.4304 19.6875 33.4304 18.9392Z" fill="#8C5956"/>
</svg>
