<svg width="61" height="61" viewBox="0 0 61 61" fill="none" xmlns="http://www.w3.org/2000/svg">
<g clip-path="url(#clip0_141_129)">
<path d="M41.2841 9.16513H37.5465C36.7601 9.16513 36.0611 8.85447 35.5466 8.33995C35.0321 7.82542 34.7214 7.12644 34.7214 6.34009C34.7214 5.12658 35.4981 4.04898 36.6533 3.67037L37.6339 3.34029C38.226 2.1462 39.4493 1.39868 40.7793 1.39868C41.8957 1.39868 42.983 1.72876 43.915 2.35007L45.4003 3.34029L45.9148 2.82577C46.8274 1.91321 48.07 1.39868 49.3612 1.39868C51.5941 1.39868 53.5454 2.92285 54.089 5.08775L54.1376 5.28191L56.1083 5.61198C57.2247 5.79643 58.1858 6.36921 58.8654 7.17498C59.5547 7.99046 59.9624 9.02922 59.9624 10.1651C59.9624 11.3883 59.477 12.563 58.613 13.427L58.0208 14.0192C59.2634 15.2618 59.9624 16.951 59.9624 18.7082C59.9624 21.9701 58.6421 24.9213 56.5063 27.0668C54.9822 28.5813 53.0503 29.688 50.8854 30.2025C50.0116 30.4161 49.0894 30.5229 48.1477 30.5229C47.7982 30.5229 47.4584 30.5132 47.1089 30.4937C46.7206 30.0666 46.2449 29.6977 45.711 29.4356L47.3419 23.7272H49.2835C50.0893 23.7272 50.8174 23.3972 51.3416 22.8729C51.8659 22.3487 52.196 21.6206 52.196 20.8148C52.196 20.009 51.8659 19.2809 51.3416 18.7567C50.8174 18.2325 50.0893 17.9024 49.2835 17.9024L49.8369 16.7957C50.1087 16.252 50.2543 15.6404 50.2543 15.0288C50.2543 13.2716 49.1088 11.7378 47.4293 11.233L42.1287 9.64083C41.8083 9.54375 41.5171 9.37871 41.2841 9.16513Z" fill="#FCD770"/>
<path d="M59.9624 52.9874V59.6471H50.2543L48.4001 51.2982L59.8168 49.9585C59.9138 50.9584 59.9624 51.9681 59.9624 52.9874Z" fill="#D3A06C"/>
<path d="M48.4001 51.2981L50.2543 59.647H45.4003L43.4587 51.8806L48.4001 51.2981Z" fill="#D3A06C"/>
<path d="M44.6819 51.065C45.7401 50.366 46.3711 49.1817 46.3711 47.9099C46.3711 46.8614 45.9439 45.91 45.2644 45.2208C44.6528 44.6092 43.8276 44.2111 42.9053 44.1335V44.1238L42.4781 38.1824V38.1727C42.8568 38.2504 43.2451 38.2892 43.6431 38.2892C44.9343 38.2892 46.0993 37.765 46.9439 36.9204C47.7885 36.0758 48.3127 34.9108 48.3127 33.6196C48.3127 32.6779 48.0312 31.7848 47.536 31.0373C47.4098 30.8431 47.2642 30.6684 47.1089 30.4936C47.4584 30.513 47.7982 30.5228 48.1477 30.5228C49.0893 30.5228 50.0116 30.416 50.8853 30.2024C56.0112 35.6098 59.1469 42.5802 59.8167 49.9583L48.4001 51.298L43.4587 51.8805L44.6819 51.065Z" fill="#75B1F2"/>
<path d="M33.7506 55.7639L35.6922 59.6471H19.1885C19.1885 57.5017 20.9262 55.7639 23.0717 55.7639H33.7506Z" fill="#FCD770"/>
<path d="M19.1885 24.698C25.6224 24.698 30.8382 19.4823 30.8382 13.0484C30.8382 6.61442 25.6224 1.39868 19.1885 1.39868C12.7546 1.39868 7.53882 6.61442 7.53882 13.0484C7.53882 19.4823 12.7546 24.698 19.1885 24.698Z" fill="#FF826E"/>
<path d="M25.6638 20.378C26.1492 19.9412 26.586 19.4267 26.955 18.8733L27.5083 19.1451C27.9063 19.349 28.285 19.5917 28.6247 19.8732C29.149 20.3004 29.5858 20.8052 29.9353 21.378C30.2654 21.9022 30.5081 22.475 30.6537 23.0866C30.7799 23.5526 30.8382 24.0477 30.8382 24.5428C30.8382 26.1543 30.1974 27.6494 29.1199 28.7561C29.0907 28.7852 29.0616 28.8241 29.0228 28.8532C28.4888 29.3871 27.8384 29.8143 27.1006 30.1152L16.3246 34.5615C15.1208 35.0566 14.3345 36.2313 14.3345 37.5322C14.3345 38.0273 14.451 38.5224 14.6743 38.969L16.2761 42.1726H15.3053C14.2374 42.1726 13.2666 42.6095 12.5579 43.3085C11.8589 44.0172 11.4221 44.988 11.4221 46.0559C11.4221 48.2014 13.1598 49.9391 15.3053 49.9391H19.1885L22.1009 55.7639H17.7808C8.90766 55.7639 1.71399 48.5703 1.71399 39.6388V39.2699C1.71399 31.9112 6.87868 25.5621 14.0821 24.0671L14.917 23.8924L21.5864 22.5041C22.6834 22.2711 23.7125 21.8245 24.625 21.2129C24.9939 20.9702 25.3434 20.6887 25.6638 20.378Z" fill="#656D78"/>
<path d="M7.53882 13.0483C7.53882 9.60197 9.03386 6.5051 11.4123 4.35962L11.422 4.36933C13.8102 6.49539 15.3053 9.60197 15.3053 13.0483C15.3053 16.4947 13.8102 19.5916 11.4318 21.7273C9.04357 19.6013 7.53882 16.4947 7.53882 13.0483Z" fill="#FC6E51"/>
<path d="M30.8382 13.0483C30.8382 15.6016 30.0227 17.9606 28.6247 19.8731C28.2849 19.5916 27.9063 19.3489 27.5083 19.145L26.9549 18.8732C26.586 19.4265 26.1492 19.9411 25.6638 20.3779C24.0425 18.3684 23.0717 15.8248 23.0717 13.0483C23.0717 9.60197 24.5668 6.49539 26.9549 4.36933L26.9647 4.35962C29.3431 6.5051 30.8382 9.60197 30.8382 13.0483Z" fill="#FC6E51"/>
<path d="M34.7214 20.8924C34.7214 20.1934 34.8088 19.5041 34.9933 18.8246L37.5465 9.16504H41.2841C41.5171 9.37862 41.8083 9.54365 42.1287 9.64073L47.4293 11.2329C49.1088 11.7377 50.2543 13.2716 50.2543 15.0287C50.2543 15.6403 50.1087 16.2519 49.8369 16.7956L49.2835 17.9023C50.0893 17.9023 50.8174 18.2324 51.3416 18.7566C51.8659 19.2808 52.196 20.0089 52.196 20.8147C52.196 21.6205 51.8659 22.3486 51.3416 22.8728C50.8174 23.3971 50.0893 23.7271 49.2835 23.7271H47.3419L45.711 29.4355C45.6236 29.3966 45.5459 29.3578 45.4586 29.319L36.0514 25.3581C35.2068 24.0475 34.7214 22.5136 34.7214 20.8924Z" fill="#F0D0B4"/>
<path d="M36.0514 25.3581L45.4585 29.319C45.5459 29.3578 45.6236 29.3967 45.711 29.4355C46.2449 29.6976 46.7206 30.0665 47.1089 30.4937C47.2642 30.6684 47.4099 30.8432 47.5361 31.0373C48.0312 31.7849 48.3127 32.678 48.3127 33.6197C48.3127 34.9108 47.7885 36.0758 46.9439 36.9204C46.0993 37.765 44.9343 38.2893 43.6431 38.2893C43.2451 38.2893 42.8568 38.2504 42.4782 38.1728C41.5171 37.998 40.6142 37.5903 39.8279 36.9884L29.1199 28.7559C30.1975 27.6492 30.8382 26.1542 30.8382 24.5426C30.8382 24.0475 30.78 23.5524 30.6537 23.0864H30.6635L36.0514 25.3581Z" fill="#F0D0B4"/>
<path d="M45.2644 45.221C45.9439 45.9102 46.3711 46.8616 46.3711 47.9101C46.3711 49.1819 45.7401 50.3663 44.6819 51.0652L43.4587 51.8807L40.2259 59.6472H35.6922L33.7506 55.7639L38.6046 48.9683V48.0849C38.6046 46.9878 39.0512 45.9976 39.7696 45.2792C40.488 44.5608 41.4782 44.1143 42.5752 44.1143C42.682 44.1143 42.7985 44.1143 42.9053 44.1337C43.8276 44.2113 44.6528 44.6094 45.2644 45.221Z" fill="#F0D0B4"/>
<path d="M34.469 41.3861C34.634 42.1919 34.7214 43.0074 34.7214 43.852C34.7214 50.4341 29.3917 55.7638 22.8096 55.7638H22.1009L19.1885 49.9389H15.3053C13.1598 49.9389 11.4221 48.2012 11.4221 46.0557C11.4221 44.9878 11.8589 44.017 12.5579 43.3083C13.2666 42.6094 14.2374 42.1725 15.3053 42.1725H16.2761L14.6743 38.9688C14.451 38.5223 14.3345 38.0271 14.3345 37.532C14.3345 36.2312 15.1208 35.0565 16.3246 34.5614L27.1006 30.1151C27.8384 29.8141 28.4888 29.387 29.0228 28.853C29.0228 28.853 32.4303 36.2312 33.6244 38.8232C34.003 39.6484 34.2943 40.5027 34.469 41.3861Z" fill="#F0D0B4"/>
<path d="M26.0346 38.9534L27.8752 39.567L29.1781 35.6605L24.2774 34.4353L23.8076 36.3187L26.6734 37.0351L26.0346 38.9534Z" fill="black"/>
<path d="M60.9332 18.7073C60.9332 17.0045 60.3769 15.3871 59.3498 14.062C60.372 13.0125 60.9332 11.6321 60.9332 10.1652C60.9332 7.42167 58.9692 5.10338 56.2626 4.65196L54.9074 4.42576C54.1171 2.05117 51.8969 0.427979 49.3612 0.427979C47.8224 0.427979 46.375 1.01823 45.277 2.09097L44.4508 1.54052C43.3587 0.812418 42.0888 0.427979 40.7753 0.427979C39.2085 0.427979 37.7862 1.22695 36.9707 2.53754L36.3436 2.74724C34.7923 3.26467 33.7506 4.71021 33.7506 6.34407C33.7506 8.01192 34.8398 9.41473 36.3378 9.92149L34.0515 18.5772C33.8515 19.3325 33.7506 20.113 33.7506 20.8974C33.7506 21.7857 33.8797 22.6604 34.1311 23.4982L31.4556 22.3721C31.1352 21.3848 30.5993 20.4907 29.8858 19.7393C31.144 17.7355 31.809 15.4415 31.809 13.0485C31.809 6.08972 26.1472 0.427979 19.1885 0.427979C12.2297 0.427979 6.568 6.08972 6.568 13.0485C6.568 17.3656 8.71834 21.2615 12.2084 23.5642C5.47487 25.732 0.743164 32.0743 0.743164 39.2661V39.634C0.743164 44.2123 2.51489 48.5101 5.73214 51.7361C8.94551 54.9601 13.2229 56.7348 17.7769 56.7348H19.2137C18.7846 57.3017 18.4633 57.9551 18.3167 58.6764H0.743164V60.618H60.9332V52.9894C60.9332 44.7385 57.9897 36.873 52.6172 30.6705C57.4664 28.8522 60.9332 24.1826 60.9332 18.7073ZM35.6922 6.34407C35.6922 5.54704 36.1999 4.84126 36.9581 4.58885L38.3221 4.13355L38.5027 3.77435C38.9357 2.90839 39.8065 2.36959 40.7753 2.36959C41.7034 2.36959 42.6024 2.64142 43.3742 3.15692L45.5236 4.58983L46.6002 3.5132C47.337 2.77539 48.3185 2.36959 49.3612 2.36959C51.1552 2.36959 52.7124 3.58504 53.1473 5.32473L53.3483 6.13438L55.9442 6.56639C57.7101 6.86151 58.9916 8.375 58.9916 10.1652C58.9916 11.1389 58.612 12.0553 57.9227 12.7436L56.648 14.0193L57.3344 14.7056C58.4032 15.7745 58.9916 17.1957 58.9916 18.7073C58.9916 19.9062 58.7877 21.0566 58.4275 22.1362L53.1191 20.2062C52.9027 18.8384 51.9707 17.7054 50.7174 17.2064C51.0494 16.5307 51.2251 15.7784 51.2251 15.026C51.2251 12.831 49.8126 10.9321 47.7098 10.3011L42.4121 8.71187C41.8762 8.55072 41.517 8.06725 41.517 7.50807C41.517 6.81589 42.0801 6.25282 42.7733 6.25282H43.4586V4.3112H42.7733C41.0103 4.3112 39.5754 5.74606 39.5754 7.50807C39.5754 7.74398 39.6094 7.97212 39.657 8.19443H37.5416C36.5213 8.19443 35.6922 7.36439 35.6922 6.34407ZM35.865 22.374L39.2288 23.6623L39.923 21.8498L35.7349 20.2451C35.7708 19.8499 35.8281 19.4568 35.93 19.0733L38.2891 10.136H40.9491C41.22 10.3224 41.5229 10.4719 41.8539 10.571L47.1516 12.1602C48.4068 12.5368 49.2835 13.7154 49.2835 15.026C49.2835 15.4881 49.1748 15.9502 48.968 16.3638L47.7127 18.8733H49.2835C50.3543 18.8733 51.2251 19.7441 51.2251 20.8149C51.2251 21.8857 50.3543 22.7565 49.2835 22.7565H46.6099L45.0799 28.1086L36.7436 24.5981C36.3232 23.9069 36.031 23.1575 35.865 22.374ZM47.3419 33.6218C47.3419 35.6605 45.6837 37.3186 43.645 37.3186C42.4849 37.3186 41.3403 36.9293 40.422 36.2226L30.5081 28.5959C31.3168 27.4591 31.7857 26.0864 31.8031 24.6253L45.0799 30.2152C46.4536 30.7938 47.3419 32.1306 47.3419 33.6218ZM47.6409 52.3661L49.0437 58.6764H46.1575L44.6673 52.7156L47.6409 52.3661ZM43.2276 54.9591L44.1576 58.6764H41.6792L43.2276 54.9591ZM44.1431 50.2575L42.6752 51.2361L39.5754 58.6764H36.2922L34.8796 55.8523L39.5754 49.279V48.0858C39.5754 46.4316 40.9219 45.0851 42.5772 45.0851C44.1334 45.0851 45.4003 46.352 45.4003 47.9082C45.4003 48.8547 44.9304 49.7333 44.1431 50.2575ZM41.8665 43.2153C39.4793 43.5629 37.6338 45.6045 37.6338 48.0868V48.6576L33.2516 54.7931H29.58C33.2409 52.5195 35.6922 48.4722 35.6922 43.8531C35.6922 41.9523 35.2932 40.1243 34.5068 38.4205L31.4304 31.7549L39.2376 37.7613C39.9327 38.2962 40.7258 38.6816 41.5607 38.934L41.8665 43.2153ZM15.5421 38.535C15.3878 38.2234 15.3053 37.8768 15.3053 37.5303C15.3053 36.6167 15.8509 35.8022 16.6955 35.4547L27.4743 31.0171C27.8966 30.8433 28.2849 30.6201 28.6558 30.3754L32.7448 39.234C33.006 39.799 33.2011 40.3854 33.3613 40.9805L27.3627 45.2656L28.4908 46.8461L33.7127 43.1163C33.7283 43.3609 33.7516 43.6046 33.7516 43.8531C33.7506 49.8857 28.8441 54.7931 22.8135 54.7931H22.7009L19.7884 48.9683H15.3053C13.6995 48.9683 12.3928 47.6616 12.3928 46.0559C12.3928 44.4502 13.6995 43.1435 15.3053 43.1435H17.8468L15.5421 38.535ZM15.0189 22.8759C14.2451 22.5478 13.5267 22.1381 12.8695 21.6585C14.8218 19.5684 16.0033 16.8725 16.2246 14.0193H22.1426C22.3155 16.2424 23.0766 18.3898 24.3425 20.2218C23.4746 20.8635 22.4756 21.3226 21.3893 21.5488L15.0189 22.8759ZM26.1472 18.3345C26.0278 18.5141 25.8977 18.685 25.7657 18.8519C24.8279 17.4035 24.2483 15.7415 24.0901 14.0193H29.8208C29.6771 15.6201 29.18 17.1511 28.3558 18.5248C28.217 18.4432 28.085 18.352 27.9393 18.2792L26.6239 17.6219L26.1472 18.3345ZM29.8178 12.0777H24.094C24.3114 9.70695 25.3191 7.47409 26.9511 5.73732C28.5451 7.42846 29.5965 9.63219 29.8178 12.0777ZM25.4948 4.45003C23.5503 6.53921 22.3737 9.23028 22.1524 12.0777H16.2246C16.0033 9.23028 14.8267 6.53921 12.8821 4.45003C14.6519 3.14915 16.8285 2.36959 19.1885 2.36959C21.5485 2.36959 23.7251 3.14915 25.4948 4.45003ZM11.4259 5.73732C13.0578 7.47409 14.0655 9.70695 14.283 12.0777H8.55913C8.78047 9.63219 9.83185 7.42846 11.4259 5.73732ZM8.55718 14.0193H14.283C14.0646 16.3977 13.051 18.6384 11.4094 20.3771C9.79302 18.6665 8.77367 16.4453 8.55718 14.0193ZM7.1068 50.3653C4.25457 47.5063 2.68478 43.6949 2.68478 39.635V39.267C2.68478 32.4073 7.5592 26.4136 14.2752 25.0146L21.7844 23.4507C23.96 22.9973 25.8725 21.8236 27.2501 20.112C28.8703 21.0013 29.8674 22.6808 29.8674 24.5418C29.8674 26.6009 28.6373 28.4367 26.7336 29.2211L15.9557 33.6587C14.3811 34.3072 13.3636 35.8275 13.3636 37.5303C13.3636 38.1758 13.5161 38.8224 13.8054 39.402L14.7218 41.2358C12.32 41.5251 10.4512 43.5764 10.4512 46.0559C10.4512 48.7324 12.6287 50.9099 15.3053 50.9099H18.5885L20.5301 54.7931H17.7769C13.7432 54.7931 9.9532 53.2204 7.1068 50.3653ZM23.0717 56.7348H33.1506L34.1214 58.6764H20.3379C20.7398 57.5493 21.8077 56.7348 23.0717 56.7348ZM58.9916 58.6764H51.0329L49.5796 52.138L58.9255 51.0381C58.9653 51.6866 58.9916 52.336 58.9916 52.9894V58.6764ZM58.7498 49.1042L46.5429 50.54C47.0535 49.7712 47.3419 48.8615 47.3419 47.9082C47.3419 45.7142 45.8429 43.8803 43.8208 43.3289L43.5295 39.2505C43.5683 39.2515 43.6062 39.2602 43.645 39.2602C46.7545 39.2602 49.2835 36.7313 49.2835 33.6218C49.2835 32.8607 49.1204 32.1316 48.8398 31.4579C49.4155 31.4268 49.9825 31.3656 50.5349 31.2608C55.1064 36.2488 57.9489 42.461 58.7498 49.1042ZM48.1457 29.5522C47.9331 29.5522 47.7215 29.5415 47.5089 29.5337C47.303 29.3386 47.0817 29.16 46.8458 28.9969L48.0739 24.6981H49.2835C50.9377 24.6981 52.3435 23.6536 52.9017 22.1935L57.6509 23.9205C55.8044 27.2737 52.2376 29.5522 48.1457 29.5522Z" fill="black"/>
<path d="M43.0267 14.8271L41.9491 13.2117L38.0522 15.8105L40.8307 18.589L42.2034 17.2162L41.0986 16.1115L43.0267 14.8271Z" fill="black"/>
</g>
<defs>
<clipPath id="clip0_141_129">
<rect width="60.19" height="60.19" fill="white" transform="translate(0.743164 0.427979)"/>
</clipPath>
</defs>
</svg>
