<svg width="61" height="61" viewBox="0 0 61 61" fill="none" xmlns="http://www.w3.org/2000/svg">
<g clip-path="url(#clip0_141_113)">
<path d="M17.8618 28.1321V39.2543C17.8618 40.3651 17.2333 41.2656 16.4579 41.2656H8.69111C7.91578 41.2656 7.28725 40.3651 7.28725 39.2543V28.1321C7.28725 27.0213 7.91578 26.1208 8.69111 26.1208H16.4579C17.2333 26.1208 17.8618 27.0213 17.8618 28.1321Z" fill="#F49F16"/>
<path d="M20.8889 28.1321V39.2543C20.8889 40.3651 20.2604 41.2656 19.4851 41.2656H11.7182C10.9429 41.2656 10.3144 40.3651 10.3144 39.2543V28.1321C10.3144 27.0213 10.9429 26.1208 11.7182 26.1208H19.4851C20.2604 26.1208 20.8889 27.0213 20.8889 28.1321Z" fill="#FFBC50"/>
<path d="M20.87 39.5636C20.7682 40.5239 20.1858 41.268 19.4838 41.268H11.7168C10.9412 41.268 10.313 40.3631 10.313 39.2568V28.1296C10.313 27.129 10.829 26.2893 11.5028 26.1436C11.4922 26.2441 11.4853 26.3497 11.4853 26.4552V37.5775C11.4853 38.6887 12.1135 39.5887 12.8892 39.5887H20.656C20.7297 39.5887 20.7999 39.5787 20.87 39.5636Z" fill="#FFB32C"/>
<path d="M23.1491 43.2793V54.4016C23.1491 55.5123 22.5206 56.4128 21.7452 56.4128H13.9784C13.2031 56.4128 12.5746 55.5123 12.5746 54.4016V43.2793C12.5746 42.1685 13.2031 41.2681 13.9784 41.2681H21.7452C22.5206 41.2681 23.1491 42.1685 23.1491 43.2793Z" fill="#14B254"/>
<path d="M26.1762 43.2793V54.4016C26.1762 55.5123 25.5476 56.4128 24.7723 56.4128H17.0055C16.2302 56.4128 15.6016 55.5123 15.6016 54.4016V43.2793C15.6016 42.1685 16.2302 41.2681 17.0055 41.2681H24.7723C25.5476 41.2681 26.1762 42.1685 26.1762 43.2793Z" fill="#4FE88D"/>
<path d="M26.159 54.7129C26.0538 55.6782 25.4747 56.4123 24.7728 56.4123H17.0058C16.2302 56.4123 15.6019 55.5122 15.6019 54.4011V43.2788C15.6019 42.2732 16.1145 41.4436 16.7883 41.2927C16.7777 41.3933 16.7707 41.4988 16.7707 41.6045V52.7267C16.7707 53.8378 17.3989 54.7379 18.1745 54.7379H25.9416C26.0152 54.7379 26.0889 54.7278 26.159 54.7129Z" fill="#35D175"/>
<path d="M12.5746 43.2793V54.4016C12.5746 55.5123 11.946 56.4128 11.1707 56.4128H3.40386C2.62853 56.4128 2 55.5123 2 54.4016V43.2793C2 42.1685 2.62853 41.2681 3.40386 41.2681H11.1707C11.946 41.2681 12.5746 42.1685 12.5746 43.2793Z" fill="#847DE2"/>
<path d="M15.6016 43.2793V54.4016C15.6016 55.5123 14.9731 56.4128 14.1978 56.4128H6.43093C5.6556 56.4128 5.02707 55.5123 5.02707 54.4016V43.2793C5.02707 42.1685 5.6556 41.2681 6.43093 41.2681H14.1978C14.9731 41.2681 15.6016 42.1685 15.6016 43.2793Z" fill="#B09FFB"/>
<path d="M15.5845 54.7129C15.4793 55.6782 14.9001 56.4123 14.1981 56.4123H6.4313C5.65568 56.4123 5.02744 55.5122 5.02744 54.4011V43.2788C5.02744 42.2732 5.54343 41.4436 6.21366 41.2927C6.2032 41.3933 6.19618 41.4988 6.19618 41.6045V52.7267C6.19618 53.8378 6.82442 54.7379 7.60004 54.7379H15.3669C15.4406 54.7379 15.5143 54.7278 15.5845 54.7129Z" fill="#9D92EF"/>
<path d="M11.716 48.8404C12.1467 48.3088 12.4284 47.5255 12.4284 46.6472C12.4284 45.038 11.5139 43.7278 10.3939 43.7278H9.25072C9.21427 43.7278 9.18112 43.7278 9.148 43.7373C9.11155 43.7468 9.07841 43.7515 9.04196 43.761C9.03864 43.761 9.03864 43.761 9.03864 43.761C8.93593 43.7942 8.83984 43.8465 8.75037 43.9129C8.69073 43.9556 8.6344 44.0126 8.58138 44.0743C8.55818 44.1076 8.53169 44.1408 8.50849 44.174C8.42565 44.2879 8.35938 44.4161 8.31298 44.5633C8.2699 44.6772 8.23678 44.8006 8.22021 44.9335C8.21026 44.981 8.20695 45.0332 8.20363 45.0855C8.20363 45.1329 8.20033 45.1851 8.20033 45.2374V52.4435C8.20033 52.4957 8.20363 52.5479 8.20363 52.5954C8.20695 52.6476 8.21026 52.6998 8.22021 52.7473C8.24009 52.8945 8.27654 53.0369 8.32625 53.1651C8.50517 53.635 8.85309 53.9531 9.25403 53.9531H10.3939C11.5139 53.9531 12.4284 52.6476 12.4284 51.0383C12.4284 50.1554 12.1467 49.3769 11.716 48.8404ZM10.3939 52.5147H9.25072C9.2242 52.5147 9.20432 52.4815 9.20432 52.4435V49.562H10.3939C10.9605 49.562 11.4211 50.2219 11.4211 51.0383C11.4211 51.8501 10.9605 52.5147 10.3939 52.5147ZM10.3939 48.1236H9.20432V45.2374C9.20432 45.1994 9.2242 45.1709 9.25072 45.1709H10.3939C10.9605 45.1709 11.4211 45.8308 11.4211 46.6472C11.4211 47.459 10.9605 48.1236 10.3939 48.1236Z" fill="white"/>
<path d="M15.6039 28.6805C15.5807 28.671 15.5543 28.671 15.5279 28.671C15.5048 28.6663 15.4816 28.6663 15.4552 28.6663C14.6525 28.6663 13.9556 29.3051 13.5988 30.2516C13.5592 30.3557 13.5228 30.4693 13.4898 30.5829C13.394 30.9236 13.3412 31.3022 13.3412 31.6902V38.0032C13.3412 38.0552 13.3445 38.1073 13.3544 38.1546C13.361 38.2019 13.3709 38.2445 13.3841 38.2871C13.4105 38.3723 13.4469 38.448 13.4898 38.5143C13.5823 38.642 13.7045 38.7225 13.8432 38.7225C13.873 38.7225 13.8994 38.7178 13.9258 38.713C13.9423 38.7083 13.9589 38.7036 13.9754 38.6941C13.9787 38.6941 13.9853 38.6941 13.9886 38.6894H13.9919C14.0183 38.6799 14.0415 38.6657 14.0646 38.6468C14.233 38.5285 14.3453 38.2871 14.3453 38.0032V34.7663H16.5618V38.0032C16.5618 38.4007 16.7864 38.7225 17.0639 38.7225C17.3414 38.7225 17.566 38.4007 17.566 38.0032V31.6902C17.566 30.0954 16.6972 28.7846 15.6039 28.6805ZM16.5618 33.3276H14.3453V31.6902C14.3453 30.8147 14.8408 30.1002 15.4552 30.1002C16.0663 30.1002 16.5618 30.8147 16.5618 31.6902V33.3276Z" fill="white"/>
<path d="M22.7976 52.8863C22.7976 53.2782 22.5756 53.5962 22.3021 53.5962C22.2267 53.5962 22.1514 53.5905 22.0761 53.5848C20.3478 53.4201 18.9803 51.3587 18.9803 48.8372C18.9803 46.3272 20.3478 44.26 22.0761 44.0954C22.1514 44.0897 22.2267 44.084 22.3021 44.084C22.5756 44.084 22.7976 44.402 22.7976 44.7939C22.7976 45.1857 22.5756 45.5037 22.3021 45.5037C21.0178 45.5037 19.9713 46.9973 19.9713 48.8372C19.9713 50.6829 21.0178 52.1765 22.3021 52.1765C22.5756 52.1765 22.7976 52.4945 22.7976 52.8863Z" fill="white"/>
<g opacity="0.4">
<path d="M7.91483 36.9348V32.4829C7.91483 32.1191 8.12066 31.8242 8.37462 31.8242C8.62859 31.8242 8.83442 32.1191 8.83442 32.4829V36.9348C8.83442 37.2986 8.62859 37.5935 8.37462 37.5935C8.12066 37.5935 7.91483 37.2986 7.91483 36.9348Z" fill="white"/>
<path d="M7.91483 30.2532V29.72C7.91483 29.3562 8.12066 29.0613 8.37462 29.0613C8.62859 29.0613 8.83442 29.3562 8.83442 29.72V30.2532C8.83442 30.617 8.62859 30.9119 8.37462 30.9119C8.12066 30.9119 7.91483 30.617 7.91483 30.2532Z" fill="white"/>
</g>
<g opacity="0.4">
<path d="M3.49728 45.9544L3.49715 50.4061C3.49714 50.7699 3.29128 51.0648 3.03729 51.0648C2.7833 51.0648 2.57746 50.7699 2.57747 50.4061L2.57759 45.9544C2.5776 45.5905 2.78346 45.2957 3.03745 45.2957C3.29144 45.2957 3.49729 45.5905 3.49728 45.9544Z" fill="white"/>
<path d="M3.49711 52.636L3.49709 53.1691C3.49708 53.533 3.29122 53.8278 3.03723 53.8278C2.78324 53.8278 2.5774 53.533 2.57741 53.1691L2.57742 52.636C2.57743 52.2722 2.78329 51.9773 3.03728 51.9773C3.29127 51.9773 3.49712 52.2722 3.49711 52.636Z" fill="white"/>
</g>
<g opacity="0.4">
<path d="M24.4251 51.259L24.4253 46.8074C24.4253 46.4435 24.6312 46.1487 24.8852 46.1487C25.1392 46.1487 25.345 46.4435 25.345 46.8074L25.3447 51.259C25.3447 51.6228 25.1389 51.9177 24.8849 51.9177C24.6309 51.9177 24.4251 51.6228 24.4251 51.259Z" fill="white"/>
<path d="M24.4253 44.5778L24.4254 44.0447C24.4254 43.6809 24.6312 43.386 24.8852 43.386C25.1392 43.386 25.3451 43.6809 25.345 44.0447L25.345 44.5778C25.345 44.9416 25.1391 45.2365 24.8851 45.2365C24.6312 45.2365 24.4253 44.9416 24.4253 44.5778Z" fill="white"/>
</g>
<path d="M35.0201 37.3827C34.9568 37.3541 34.8937 37.3212 34.8312 37.2836L25.9687 35.0393C25.6688 34.86 25.3999 34.5885 25.1812 34.2434L20.3877 23.0477C19.5664 21.7509 19.634 19.7457 20.5393 18.5688C21.4452 17.3921 22.8433 17.4879 23.666 18.7858L28.1277 29.4576L36.5345 31.4301C37.6627 32.1038 38.1961 33.9602 37.7261 35.5767C37.2815 37.1036 36.1004 37.8704 35.0201 37.3827Z" fill="#B351AF"/>
<path d="M37.2845 36.5465C36.7132 37.4024 35.8353 37.7541 35.0173 37.3848C34.9539 37.3562 34.8923 37.3201 34.8307 37.284L25.9667 35.0383C25.6688 34.8623 25.398 34.5904 25.1788 34.2421L20.3882 23.0511C19.5663 21.7492 19.636 19.7444 20.5379 18.5723C20.7241 18.3322 20.9266 18.1493 21.1404 18.0215C20.3404 19.2063 20.3078 21.0949 21.0957 22.3399L25.8863 33.5308C26.1056 33.8792 26.3764 34.151 26.6742 34.327L35.5382 36.5727C35.5998 36.6089 35.6616 36.645 35.7248 36.6736C36.2579 36.9142 36.8049 36.8536 37.2845 36.5465Z" fill="#B351AF"/>
<path d="M21.2763 22.5182C20.4686 23.3151 19.3629 23.023 18.8067 21.8658L16.6477 17.3816C16.4427 16.9552 16.5221 16.3763 16.8197 16.0827C17.1118 15.7945 17.5121 15.9002 17.717 16.3266L17.3374 15.537C17.1325 15.1106 17.2118 14.5317 17.515 14.2326C17.8071 13.9444 18.2073 14.0502 18.4123 14.4766L18.1352 13.9001C17.9302 13.4737 18.0057 12.887 18.3089 12.5879C18.601 12.2997 19.0106 12.4078 19.2155 12.8343L19.7166 13.8767C19.5154 13.4581 19.5909 12.8714 19.8775 12.5886C20.1752 12.295 20.5716 12.3928 20.7745 12.798L22.6589 16.7109L22.7086 15.6142C22.74 14.9883 23.0971 14.5063 23.5587 14.5427C24.0009 14.5837 24.3352 15.127 24.3066 15.7606L24.1857 18.4697C24.151 19.2479 23.869 19.9604 23.4207 20.4026L21.2763 22.5182Z" fill="#FFC27C"/>
<path d="M23.6861 20.0766C23.6046 20.1992 23.5179 20.3029 23.4219 20.4008L21.278 22.5172C20.4679 23.3129 19.3606 23.0228 18.8051 21.8621L16.6503 17.3799C16.4428 16.9579 16.5212 16.3754 16.8204 16.0811C17.0062 15.9053 17.2404 15.8781 17.4322 15.9902C17.44 16.1451 17.4817 16.2975 17.5454 16.4321L19.7049 20.9172C20.2603 22.0779 21.3676 22.368 22.1731 21.5694L23.6861 20.0766Z" fill="#F7B26D"/>
<path d="M49.5134 37.3827C49.5768 37.3541 49.6398 37.3212 49.7024 37.2836L58.5649 35.0393C58.8648 34.86 59.1337 34.5885 59.3524 34.2434L64.1459 23.0477C64.9672 21.7509 64.8995 19.7457 63.9942 18.5688C63.0884 17.3921 61.6903 17.4879 60.8676 18.7858L56.4058 29.4576L47.9991 31.4301C46.8708 32.1038 46.3375 33.9602 46.8075 35.5767C47.2521 37.1036 48.4332 37.8704 49.5134 37.3827Z" fill="#B351AF"/>
<path d="M47.2491 36.5465C47.8203 37.4024 48.6982 37.7541 49.5163 37.3848C49.5797 37.3562 49.6413 37.3201 49.7029 37.284L58.5669 35.0383C58.8647 34.8623 59.1355 34.5904 59.3548 34.2421L64.1454 23.0511C64.9672 21.7492 64.8975 19.7444 63.9957 18.5723C63.8095 18.3322 63.6069 18.1493 63.3931 18.0215C64.1932 19.2063 64.2257 21.0949 63.4378 22.3399L58.6472 33.5308C58.428 33.8792 58.1572 34.151 57.8593 34.327L48.9953 36.5727C48.9337 36.6089 48.872 36.645 48.8087 36.6736C48.2757 36.9142 47.7287 36.8536 47.2491 36.5465Z" fill="#B351AF"/>
<path d="M63.2572 22.5182C64.0649 23.3151 65.1706 23.023 65.7269 21.8658L67.8859 17.3816C68.0908 16.9552 68.0115 16.3763 67.7138 16.0827C67.4217 15.7945 67.0215 15.9002 66.8166 16.3266L67.1961 15.537C67.4011 15.1106 67.3218 14.5317 67.0186 14.2326C66.7265 13.9444 66.3262 14.0502 66.1213 14.4766L66.3984 13.9001C66.6033 13.4737 66.5278 12.887 66.2247 12.5879C65.9325 12.2997 65.523 12.4078 65.318 12.8343L64.817 13.8767C65.0182 13.4581 64.9427 12.8714 64.6561 12.5886C64.3584 12.295 63.962 12.3928 63.7591 12.798L61.8747 16.7109L61.825 15.6142C61.8065 15.2467 61.6743 14.9301 61.4814 14.7398C61.3381 14.5984 61.1606 14.528 60.9748 14.5427C60.5326 14.5837 60.1983 15.127 60.2269 15.7606L60.3478 18.4697C60.3826 19.2479 60.6645 19.9604 61.1128 20.4026L63.2572 22.5182Z" fill="#FFC27C"/>
<path d="M32.2497 30.4724H52.2842V56.4883H32.2497V30.4724Z" fill="#B351AF"/>
<path d="M49.3524 30.4749H52.2836V56.4907H49.3524V30.4749Z" fill="#B351AF"/>
<path d="M45.0477 34.5574V35.0347C45.0477 35.9013 44.3475 36.3688 43.8853 35.8234L41.7714 33.3013L39.6507 35.8234C39.1885 36.3785 38.4884 35.9013 38.4884 35.0443V34.5574C38.4884 35.4241 39.1885 35.8916 39.6507 35.3365L41.6491 32.9604L41.7714 33.0676L41.8938 32.9604L43.8853 35.3365C44.3475 35.8916 45.0477 35.4144 45.0477 34.5574Z" fill="#B351AF"/>
<path d="M44.6567 27.5688V31.4907C44.6567 32.5659 44.3461 33.5405 43.8534 34.2461C43.3608 34.9518 42.6807 35.3802 41.936 35.3802C40.4407 35.3802 39.221 33.6413 39.221 31.4907V27.6109C40.0655 28.2157 41.0212 28.5434 42.0297 28.5181C42.9739 28.493 43.8652 28.1569 44.6567 27.5688Z" fill="#FFC27C"/>
<path d="M43.5044 34.8889L43.3209 35.1518L42.6888 36.0575H40.8467L40.0311 34.8889L41.6488 32.9608L41.7711 32.8147L41.8935 32.9608L43.5044 34.8889Z" fill="#E4E5E1"/>
<path d="M42.6889 36.061L43.6652 45.0641C43.7018 45.4023 43.6294 45.7461 43.4681 45.9986L42.3774 47.7073C42.0551 48.2121 41.496 48.1931 41.1908 47.6671L40.2099 45.9769C40.0701 45.7359 40.0066 45.4225 40.0345 45.1118L40.8471 36.061H42.6889Z" fill="white"/>
<path d="M42.5599 47.4119L42.3764 47.704C42.0569 48.2104 41.4927 48.1909 41.1936 47.6651L40.208 45.9804C40.0721 45.737 40.0041 45.4254 40.0313 45.1137L40.847 36.0574H41.4247L40.6702 44.4613C40.6431 44.7729 40.711 45.0942 40.847 45.328L41.8258 47.0224C42.0093 47.3437 42.2948 47.4801 42.5599 47.4119Z" fill="#E8EAE4"/>
<path d="M43.5047 34.8888L43.3212 35.1518L41.7714 33.3015L40.2149 35.1518L40.0313 34.8888L41.6491 32.9607L41.7714 32.7942L41.8938 32.9607L43.5047 34.8888Z" fill="#D4D6D0"/>
<path d="M49.9739 11.9826V18.5192H34.5675V9.20752C35.2112 10.8678 36.4484 11.9826 37.8648 11.9826H49.9739Z" fill="#24272B"/>
<path d="M49.9739 6.30441V18.6106H48.1209V6.30441C48.1209 4.48376 47.0852 3 45.8144 3H47.6674C48.9439 3 49.9739 4.48376 49.9739 6.30441Z" fill="#13181E"/>
<path d="M47.7962 17.9983V21.2626C47.7962 25.8983 45.2658 29.8845 42.0299 29.9567C38.755 30.0289 36.079 26.2432 36.079 21.5673V11.3413C36.6108 11.7503 37.2211 11.9829 37.8648 11.9829H44.4148C44.5828 13.5228 45.4505 14.7259 46.531 14.9425V17.2604C46.531 17.8459 46.8613 18.319 47.27 18.319C47.4771 18.319 47.6618 18.1988 47.7962 17.9983Z" fill="#FFC27C"/>
<g opacity="0.3">
<path d="M38.3439 26.8116C37.8615 26.12 37.4852 25.3156 37.2262 24.4198C37.1397 24.1218 37.2384 23.78 37.4464 23.6564C37.654 23.5325 37.8933 23.6743 37.9788 23.972C38.1974 24.7259 38.5138 25.4034 38.9203 25.9858C39.0795 26.2139 39.0795 26.5839 38.9203 26.8116C38.7617 27.0388 38.5038 27.0406 38.3439 26.8116Z" fill="white"/>
</g>
<g opacity="0.3">
<path d="M37.2824 23.0754C37.0808 23.0754 36.9056 22.8614 36.8791 22.5675C36.861 22.3728 36.8478 22.1763 36.8403 21.9786C36.8281 21.6566 37.0006 21.3813 37.2257 21.3638C37.4533 21.3539 37.6423 21.5935 37.6545 21.9155C37.6609 22.0835 37.672 22.2504 37.6869 22.4154C37.7193 22.7637 37.5301 23.0754 37.2824 23.0754Z" fill="white"/>
</g>
<path d="M47.27 14.1871C46.8613 14.1871 46.531 13.7139 46.531 13.1284V10.8105C46.436 10.7917 46.3462 10.7522 46.2549 10.7185V13.8518C46.2654 13.8556 46.2742 13.8625 46.2847 13.8663V21.2624C46.2847 25.5774 44.0957 29.3229 41.1846 29.8844C41.4589 29.9405 41.7444 29.9646 42.0299 29.9565C45.2658 29.8844 47.7962 25.8982 47.7962 21.2624V13.8663C47.6619 14.0668 47.4771 14.1871 47.27 14.1871Z" fill="#F7B26D"/>
<path d="M36.499 15.4934C36.4997 15.4934 36.5002 15.4937 36.5008 15.4937V21.727C36.5002 21.727 36.4997 21.7273 36.499 21.7273C35.2992 21.7273 34.3234 20.3293 34.3234 18.6104C34.3234 16.8915 35.2992 15.4934 36.499 15.4934Z" fill="#FFC27C"/>
<path d="M47.7991 15.4934C47.7985 15.4934 47.7979 15.4937 47.7973 15.4937V21.727C47.7979 21.727 47.7985 21.7273 47.7991 21.7273C48.9989 21.7273 49.9747 20.3293 49.9747 18.6104C49.9747 16.8915 48.9989 15.4934 47.7991 15.4934Z" fill="#F7B26D"/>
<path d="M43.0789 17.4418V18.6758C43.0789 19.4833 43.5358 20.1379 44.0994 20.1379C44.6631 20.1379 45.12 19.4833 45.12 18.6758V17.4418C45.12 16.6343 44.6631 15.9797 44.0994 15.9797C43.5358 15.9797 43.0789 16.6343 43.0789 17.4418Z" fill="#13181E"/>
<path d="M37.2966 17.4418V18.6758C37.2966 19.4833 37.7535 20.1379 38.3172 20.1379C38.8808 20.1379 39.3377 19.4833 39.3377 18.6758V17.4418C39.3377 16.6343 38.8808 15.9797 38.3172 15.9797C37.7535 15.9797 37.2966 16.6343 37.2966 17.4418Z" fill="#13181E"/>
<path d="M41.2086 22.7742C40.9653 22.7742 40.768 22.4915 40.768 22.1431V19.7952C40.768 19.4468 40.9653 19.1641 41.2086 19.1641C41.4518 19.1641 41.6491 19.4468 41.6491 19.7952V22.1431C41.6491 22.4915 41.4518 22.7742 41.2086 22.7742Z" fill="#13181E"/>
<path d="M48.1209 8.99927V14.9745H48.009V17.2603C48.009 17.8458 47.6786 18.319 47.27 18.319C46.8613 18.319 46.531 17.8458 46.531 17.2603V14.9424C45.3162 14.7018 44.3756 13.21 44.3756 11.3974V8.99927H48.1209Z" fill="#24272B"/>
<path d="M48.1209 6.30441V11.9829H37.8648C35.7823 11.9829 34.0916 9.56873 34.0916 6.58516V5.79109C34.0916 4.25119 34.9649 3 36.0397 3H45.8144C47.0852 3 48.1209 4.48376 48.1209 6.30441Z" fill="#24272B"/>
<path d="M48.1187 10.7818V11.9814H37.8671C35.781 11.9814 34.0917 9.56825 34.0917 6.5865V5.78907C34.0917 4.94306 34.3579 4.18031 34.7742 3.67407C34.7017 3.9584 34.6629 4.27046 34.6629 4.58941V5.38687C34.6629 8.36862 36.3521 10.7818 38.4383 10.7818H48.1187Z" fill="#13181E"/>
<g opacity="0.2">
<path d="M42.6001 6.29155H38.9576C38.6025 6.29155 38.3147 5.87924 38.3147 5.37051C38.3147 4.86178 38.6025 4.44946 38.9576 4.44946H42.6001C42.9552 4.44946 43.243 4.86178 43.243 5.37051C43.243 5.87924 42.9552 6.29155 42.6001 6.29155Z" fill="white"/>
<path d="M36.7813 6.29155H36.261C35.9059 6.29155 35.6181 5.87924 35.6181 5.37051C35.6181 4.86178 35.9059 4.44946 36.261 4.44946H36.7813C37.1364 4.44946 37.4242 4.86178 37.4242 5.37051C37.4242 5.87924 37.1364 6.29155 36.7813 6.29155Z" fill="white"/>
</g>
<g opacity="0.3">
<path d="M42.6492 13.8638H40.2152C39.9779 13.8638 39.7856 13.5883 39.7856 13.2483C39.7856 12.9083 39.9779 12.6328 40.2152 12.6328H42.6492C42.8865 12.6328 43.0789 12.9083 43.0789 13.2483C43.0789 13.5883 42.8865 13.8638 42.6492 13.8638Z" fill="white"/>
<path d="M38.7609 13.8638H38.4131C38.1759 13.8638 37.9835 13.5883 37.9835 13.2483C37.9835 12.9083 38.1759 12.6328 38.4131 12.6328H38.7609C38.9982 12.6328 39.1905 12.9083 39.1905 13.2483C39.1905 13.5883 38.9982 13.8638 38.7609 13.8638Z" fill="white"/>
</g>
<g opacity="0.4">
<path d="M34.0321 49.2128V42.5592C34.0321 42.0154 34.3397 41.5747 34.7193 41.5747C35.0988 41.5747 35.4065 42.0154 35.4065 42.5592V49.2128C35.4065 49.7566 35.0988 50.1973 34.7193 50.1973C34.3397 50.1973 34.0321 49.7566 34.0321 49.2128Z" fill="white"/>
<path d="M34.0321 39.2264V38.4296C34.0321 37.8858 34.3397 37.4451 34.7193 37.4451C35.0988 37.4451 35.4065 37.8858 35.4065 38.4296V39.2264C35.4065 39.7702 35.0988 40.2109 34.7193 40.2109C34.3397 40.2109 34.0321 39.7702 34.0321 39.2264Z" fill="white"/>
</g>
<path d="M45.0477 30.468V34.5558C45.0477 35.4187 44.345 35.89 43.8824 35.3373L41.7714 32.8149L39.653 35.3408C39.1903 35.8925 38.4884 35.4211 38.4884 34.5587V30.468H39.2157L41.7714 32.5812L44.3204 30.468H45.0477Z" fill="white"/>
<path d="M40.5489 29.5671C40.4756 29.7635 40.3697 29.9436 40.2394 30.0991C39.9137 30.4837 39.4291 30.7252 38.8835 30.7252C38.3378 30.7252 37.8532 30.4796 37.5234 30.095C37.3931 29.9395 37.2872 29.7594 37.2139 29.5671C37.104 29.2724 37.3279 28.9614 37.6415 28.9614H40.1213C40.4349 28.9614 40.6588 29.2724 40.5489 29.5671Z" fill="black"/>
<path d="M39.8084 29.9743C39.5861 30.2368 39.2553 30.4017 38.8828 30.4017C38.5103 30.4017 38.1796 30.234 37.9544 29.9715C38.1768 29.7089 38.5075 29.5413 38.88 29.5413C39.2525 29.5413 39.5861 29.7089 39.8084 29.9743Z" fill="#EF567B"/>
</g>
<defs>
<clipPath id="clip0_141_113">
<rect width="60.19" height="60.19" fill="white" transform="translate(0.514008 0.427979)"/>
</clipPath>
</defs>
</svg>
