<svg width="61" height="61" viewBox="0 0 61 61" fill="none" xmlns="http://www.w3.org/2000/svg">
<g clip-path="url(#clip0_213_494)">
<path d="M46.2415 42.8101H34.47C29.9125 42.8101 26.218 46.5046 26.218 51.0621V56.9714C26.218 58.2944 27.2905 59.3669 28.6135 59.3669H52.0981C53.4211 59.3669 54.4936 58.2944 54.4936 56.9714V51.0621C54.4936 46.5046 50.799 42.8101 46.2415 42.8101Z" fill="#80B4FB"/>
<path d="M28.786 51.0622V56.9721C28.786 58.295 29.8593 59.3673 31.182 59.3673H28.6141C27.2903 59.3673 26.218 58.295 26.218 56.9721V51.0622C26.218 46.5045 29.9128 42.8108 34.4705 42.8108H37.0385C32.4807 42.8107 28.786 46.5044 28.786 51.0622Z" fill="#5490F9"/>
<path d="M44.6489 43.9019C47.408 46.661 45.665 49.7423 45.665 49.7423C42.2711 49.0462 40.3697 47.2027 40.3697 47.2027C40.3697 47.2027 38.4685 49.0463 35.0744 49.7423C35.0744 49.7423 33.3315 46.661 36.0906 43.9019" fill="#5490F9"/>
<path d="M44.6327 43.8359C44.6344 43.8579 44.6344 43.8799 44.6344 43.9019C44.6344 45.7248 42.7193 47.2027 40.3562 47.2027C37.9933 47.2027 36.0772 45.7248 36.0772 43.9019C36.0772 43.8799 36.0772 43.8579 36.079 43.8359" fill="#F1B986"/>
<path d="M31.8411 52.4564V54.7903H36.1969C38.4649 54.7903 40.3035 56.6289 40.3035 58.897V59.3669H28.6135C27.2905 59.3669 26.218 58.2944 26.218 56.9714V52.4563H31.8411V52.4564Z" fill="#F1D0A5"/>
<path d="M28.6063 59.367H31.1743C29.855 59.3628 28.786 58.2924 28.786 56.9721V52.4565H26.218V56.9721C26.218 58.2923 27.2862 59.3628 28.6063 59.367Z" fill="#F1B986"/>
<path d="M48.8705 52.4564V54.7903H44.5147C42.2466 54.7903 40.408 56.6289 40.408 58.897V59.3669H52.098C53.4211 59.3669 54.4935 58.2944 54.4935 56.9714V52.4563H48.8705V52.4564Z" fill="#F1D0A5"/>
<path d="M48.8705 52.4268H51.2342V54.7905H48.8705V52.4268Z" fill="#F1B986"/>
<path d="M48.8705 50.9302H51.2342V52.4268H48.8705V50.9302Z" fill="#5490F9"/>
<path d="M44.515 54.79H46.417C44.1483 54.79 42.31 56.6294 42.31 58.8971V59.3669H40.408V58.8971C40.408 56.6294 42.2463 54.79 44.515 54.79Z" fill="#F1B986"/>
<path d="M54.5018 33.7665H54.5215C56.2226 33.7665 57.601 32.387 57.601 30.6871C57.601 28.986 56.2226 27.6064 54.5215 27.6064C54.4994 27.6064 54.4772 27.6064 54.4551 27.6076H26.2563C26.2342 27.6064 26.212 27.6064 26.1899 27.6064C24.4888 27.6064 23.1105 28.986 23.1105 30.6871C23.1105 32.387 24.4888 33.7665 26.1899 33.7665H26.2097" fill="#F1B986"/>
<path d="M53.7934 19.5647C44.8349 18.6962 35.8765 18.6962 26.9181 19.5647C26.2229 25.1348 26.0181 30.7047 26.3038 36.2747C26.5118 40.3295 29.7563 43.5568 33.8118 43.7483C38.1744 43.9543 42.537 43.9543 46.8996 43.7483C50.9551 43.5568 54.1996 40.3295 54.4076 36.2747C54.6934 30.7047 54.4886 25.1346 53.7934 19.5647Z" fill="#F1D0A5"/>
<path d="M26.9186 19.5639C31.397 19.1295 35.8768 18.9131 40.3566 18.9131C38.0887 18.9131 35.8208 19.1322 33.5528 19.5706C33.2 25.1944 33.0971 30.8181 33.2414 36.4405C33.3363 40.1411 34.6888 43.1588 36.4636 43.847C35.5801 43.8229 34.6955 43.7895 33.812 43.7482C29.7572 43.557 26.5124 40.3296 26.3039 36.2747C26.0192 30.7046 26.2238 25.1342 26.9186 19.5639Z" fill="#F1B986"/>
<path d="M47.8173 24.1965C42.6681 26.1856 35.3539 25.3085 31.6679 21.6223C31.6679 21.6223 30.7925 27.6072 26.2575 27.6072L24.2798 28.2722C18.9978 7.53935 30.2638 13.0791 30.2638 13.0791C31.3274 11.0178 32.8766 10.1644 34.4953 9.95859C34.6378 9.94095 34.7804 9.92779 34.9237 9.91897C34.9351 9.91897 34.9466 9.91815 34.958 9.91721C36.0982 9.85655 37.2524 10.0879 38.2781 10.4178C38.6352 10.533 38.9774 10.6597 39.2977 10.7908C40.5865 11.3178 41.5252 11.9098 41.7222 12.0366C41.7477 12.0542 41.7609 12.0629 41.7609 12.0629C42.9204 10.5286 44.0262 9.14038 45.242 9.14038C45.7408 9.14038 46.0857 9.3313 46.3171 9.6366C47.1942 10.7864 46.4737 13.5514 46.4156 13.7688L46.413 13.7784C46.4139 13.7767 46.4148 13.7731 46.4166 13.7688L46.4227 13.7529C46.5784 13.3605 48.3203 9.14038 51.4442 9.14038C51.6412 9.14038 51.818 9.15884 51.9755 9.19399C54.3043 9.70866 52.4814 13.7818 52.2808 14.2129L52.2756 14.2253C52.2703 14.2358 52.2667 14.2437 52.265 14.2472C52.3644 14.1205 56.2643 9.16942 57.9974 11.4409C57.9982 11.4426 57.9982 11.4426 57.9991 11.4435C59.7475 13.7477 52.9639 22.2082 47.8173 24.1965Z" fill="#665E66"/>
<path d="M57.9978 11.4411H57.9969C57.1207 10.5658 54.0856 14.698 52.2627 14.2502L52.2759 14.2255C52.2706 14.2361 52.267 14.244 52.2653 14.2475C52.3647 14.1208 56.2647 9.16955 57.9978 11.4411Z" fill="#454045"/>
<path d="M51.976 9.19411C50.6597 8.89515 49.4394 11.4007 48.75 13.1793C48.4166 14.0395 47.384 14.3847 46.5999 13.8987L46.4116 13.7819L46.4133 13.7784L46.4159 13.7688H46.4169L46.423 13.7529C46.5787 13.3605 48.3206 9.14038 51.4445 9.14038C51.6416 9.14038 51.8184 9.15896 51.976 9.19411Z" fill="#454045"/>
<path d="M34.4951 9.95874C30.7281 10.6229 29.3047 19.2594 31.6676 21.6223C31.6676 21.6223 30.7922 27.6072 26.2572 27.6072L24.2795 28.2724C18.9975 7.5395 30.2635 13.0792 30.2635 13.0792C31.3273 11.0179 32.8764 10.1646 34.4951 9.95874Z" fill="#454045"/>
<path d="M46.3174 9.63671C44.9933 8.31265 44.111 15.1026 41.1305 16.1899C38.1499 17.2773 37.871 15.8873 37.871 15.8873V15.8865C39.3384 15.3437 40.5771 13.6282 41.7603 12.0622C41.7612 12.063 41.7612 12.063 41.7612 12.063C41.7973 12.0146 41.8333 11.9671 41.8694 11.9196C41.9143 11.8589 41.9609 11.7981 42.0066 11.7383C43.0782 10.3387 44.1127 9.14038 45.2423 9.14038C45.7412 9.1405 46.086 9.33141 46.3174 9.63671Z" fill="#454045"/>
<path d="M34.9605 9.9183C34.9482 9.9183 34.9358 9.9183 34.9236 9.91924C34.935 9.91924 34.9465 9.9183 34.9579 9.91748L34.9605 9.9183Z" fill="#ECC32E"/>
<path d="M28.6739 9.74459C28.6739 12.8356 27.0572 15.5466 24.6225 17.0801H15.4013C12.9667 15.5466 11.3499 12.8356 11.3499 9.74459C11.3499 4.96113 15.2284 1.08252 20.012 1.08252C20.6569 1.08252 21.2842 1.15317 21.8888 1.28695C21.9506 1.30083 22.0138 1.3147 22.0756 1.32986C25.8631 2.25517 28.6739 5.67177 28.6739 9.74459Z" fill="#F4DD45"/>
<path d="M19.5248 17.0808H15.4009C12.9676 15.5476 11.3499 12.8359 11.3499 9.74471C11.3499 4.96113 15.2285 1.08252 20.0121 1.08252C20.6569 1.08252 21.285 1.15376 21.8885 1.28801C21.9515 1.3013 22.0145 1.31446 22.0757 1.33116C18.2867 2.25434 15.4739 5.67048 15.4739 9.74471C15.4738 12.8359 17.0898 15.5476 19.5248 17.0808Z" fill="#EAB14D"/>
<path d="M25.9702 19.1559C25.9702 19.7829 25.7162 20.351 25.3052 20.762C24.8942 21.173 24.3262 21.427 23.6991 21.427H16.3254C15.0708 21.427 14.0538 20.41 14.0538 19.1559C14.0538 18.5284 14.3083 17.9608 14.7193 17.5498C15.1303 17.1388 15.6978 16.8848 16.3254 16.8848H23.6991C24.9531 16.8848 25.9702 17.9013 25.9702 19.1559Z" fill="#DFEAEF"/>
<path d="M20.2513 21.427H16.3249C15.0705 21.427 14.0536 20.4101 14.0536 19.1558C14.0536 18.528 14.3076 17.9602 14.719 17.5499C15.1305 17.1384 15.6971 16.8845 16.3249 16.8845H20.2513C19.6236 16.8845 19.0558 17.1384 18.6443 17.5499C18.234 17.9602 17.9789 18.528 17.9789 19.1558C17.9789 20.4101 18.9958 21.427 20.2513 21.427Z" fill="#B4D0D5"/>
<path d="M24.3925 23.6981C24.3925 24.3252 24.1384 24.8932 23.7274 25.3042C23.3165 25.7152 22.7484 25.9692 22.1214 25.9692H17.9031C16.6485 25.9692 15.6315 24.9522 15.6315 23.6981C15.6315 23.0706 15.886 22.503 16.297 22.092C16.708 21.681 17.2756 21.427 17.9031 21.427H22.1214C23.3753 21.4269 24.3925 22.4435 24.3925 23.6981Z" fill="#DFEAEF"/>
<path d="M20.6841 25.9695H17.9026C16.6483 25.9695 15.6314 24.9526 15.6314 23.6982C15.6314 23.0705 15.8853 22.5027 16.2968 22.0924C16.7071 21.6809 17.2749 21.427 17.9026 21.427H20.6841C20.0563 21.427 19.4885 21.6809 19.0782 22.0924C18.6668 22.5027 18.4128 23.0705 18.4128 23.6982C18.4128 24.9526 19.4297 25.9695 20.6841 25.9695Z" fill="#B4D0D5"/>
<path d="M43.6455 34.0014C43.2044 33.7921 42.6774 33.9797 42.4681 34.4209C42.087 35.2238 41.2668 35.7426 40.3784 35.7426C39.4899 35.7426 38.6697 35.2238 38.2886 34.4209C38.0792 33.9798 37.5519 33.7921 37.1112 34.0014C36.6702 34.2106 36.4824 34.7377 36.6918 35.1787C37.3638 36.595 38.811 37.5102 40.3784 37.5102C41.9458 37.5102 43.3929 36.595 44.0649 35.1787C44.2742 34.7377 44.0864 34.2106 43.6455 34.0014Z" fill="black"/>
<path d="M33.8057 27.6909C33.0971 27.6909 32.5206 28.549 32.5206 29.6038C32.5206 30.6587 33.0971 31.5167 33.8057 31.5167C34.5142 31.5167 35.0908 30.6586 35.0908 29.6038C35.0908 28.5491 34.5142 27.6909 33.8057 27.6909Z" fill="black"/>
<path d="M46.951 27.6909C46.2425 27.6909 45.666 28.549 45.666 29.6038C45.666 30.6587 46.2425 31.5167 46.951 31.5167C47.6596 31.5167 48.2361 30.6586 48.2361 29.6038C48.2361 28.5491 47.6596 27.6909 46.951 27.6909Z" fill="black"/>
<path d="M59.0388 13.6013C59.3642 12.4486 59.2717 11.5266 58.7638 10.861C58.2953 10.2467 57.6563 9.92016 56.9164 9.91652C56.9123 9.91652 56.9084 9.91652 56.9043 9.91652C55.9552 9.91652 54.9533 10.472 54.0754 11.1615C54.1164 10.3972 53.9831 9.76663 53.6754 9.27723C53.3685 8.78901 52.7407 8.2071 51.4925 8.2071C49.8265 8.2071 48.5183 9.14486 47.5636 10.2263C47.4707 9.79226 47.3115 9.38739 47.0584 9.05434C46.6369 8.50005 46.0205 8.2071 45.2756 8.2071C43.8347 8.2071 42.6976 9.40443 41.5654 10.8552C41.0967 10.591 40.4326 10.2462 39.6513 9.92639C39.2885 9.77839 38.9237 9.64507 38.5666 9.52987C37.2643 9.11065 36.0378 8.92773 34.9217 8.98651C34.9134 8.98698 34.9025 8.98781 34.892 8.98863C34.8892 8.98875 34.8863 8.98886 34.8833 8.9891C34.7206 8.99839 34.5564 9.01332 34.3916 9.03365C32.471 9.27911 30.9563 10.2539 29.879 11.935C29.7157 11.8789 29.5301 11.821 29.3283 11.766C29.4754 11.095 29.5522 10.4019 29.5522 9.69586C29.5522 5.27225 26.5551 1.45077 22.2531 0.399915L22.0582 0.355713C21.3821 0.205943 20.685 0.129883 19.9863 0.129883C18.283 0.129883 16.6104 0.583541 15.1493 1.44184C14.7284 1.68906 14.5876 2.23065 14.8348 2.6514C15.082 3.07237 15.6237 3.21309 16.0443 2.96587C17.2344 2.26686 18.5974 1.89749 19.9862 1.89749C20.5564 1.89749 21.1248 1.95945 21.6715 2.08065L21.8446 2.11968C25.3421 2.97398 27.7847 6.0894 27.7847 9.69598C27.7847 12.2556 26.5562 14.6089 24.4795 16.0717C24.2247 16.0051 23.9573 15.9695 23.6819 15.9695H20.8698V13.4544C22.3251 13.0639 23.4001 11.734 23.4001 10.157C23.4001 9.66894 23.0044 9.27324 22.5163 9.27324C22.0282 9.27324 21.6325 9.66894 21.6325 10.157C21.6325 11.0649 20.8939 11.8036 19.986 11.8036C19.0782 11.8036 18.3396 11.0649 18.3396 10.157C18.3396 9.66894 17.9439 9.27324 17.4558 9.27324C16.9676 9.27324 16.5719 9.66894 16.5719 10.157C16.5719 11.734 17.6468 13.0639 19.1022 13.4544V15.9695H16.2906C16.0174 15.9695 15.7497 16.0044 15.4921 16.0712C13.4157 14.6084 12.1876 12.2553 12.1876 9.69598C12.1876 7.98762 12.7299 6.36566 13.7558 5.00563C14.0497 4.61592 13.9721 4.06175 13.5824 3.76785C13.1926 3.47384 12.6387 3.55154 12.3447 3.94125C11.0856 5.61058 10.4201 7.6005 10.4201 9.6961C10.4201 12.5887 11.6983 15.2671 13.8916 17.0735C13.3992 17.646 13.1298 18.3671 13.1298 19.1299C13.1298 20.4702 13.969 21.6176 15.1494 22.0763C14.8639 22.5579 14.7113 23.1088 14.7113 23.6831C14.7113 25.4257 16.1292 26.8434 17.8721 26.8434H22.1004C22.4034 26.8434 22.6998 26.8004 22.983 26.7185C23.0762 27.1322 23.1753 27.5521 23.2804 27.9777C22.6161 28.688 22.2082 29.6412 22.2082 30.6884C22.2082 32.5891 23.5509 34.1813 25.3375 34.5684C25.3567 35.1583 25.3801 35.7474 25.4104 36.3344C25.5639 39.3318 27.1881 41.9113 29.5817 43.3782C26.9774 45.0347 25.3231 47.9481 25.3231 51.1112V57.036C25.3231 57.0378 25.3234 57.0395 25.3234 57.0414C25.3268 58.8496 26.799 60.3199 28.6082 60.3199H52.1485C53.9598 60.3199 55.4333 58.8463 55.4333 57.0349L55.4329 51.1108C55.4329 50.2881 55.324 49.4737 55.1092 48.69C54.9803 48.2195 54.4951 47.9421 54.0231 48.0715C53.5524 48.2004 53.2754 48.6868 53.4045 49.1575C53.5775 49.7889 53.6653 50.446 53.6653 51.1108V51.6254H49.7969V50.9791C49.7969 50.491 49.4014 50.0953 48.9131 50.0953C48.425 50.0953 48.0293 50.491 48.0293 50.9791V52.5092V53.9648H44.547C43.2905 53.9648 42.1418 54.4316 41.2624 55.1996V48.9874C42.2379 49.5862 43.6693 50.2771 45.5085 50.6543C45.5679 50.6664 45.6274 50.6724 45.6863 50.6724C46 50.6724 46.2964 50.5047 46.4553 50.2237C47.0484 49.1752 47.6145 46.8945 46.3544 44.6886C46.5624 44.6798 46.7711 44.6727 46.9789 44.6628C47.7241 44.6277 48.4433 44.5001 49.127 44.2942C50.2137 44.7489 51.1832 45.4624 51.9446 46.3719C52.1194 46.5808 52.3702 46.6884 52.6228 46.6884C52.8229 46.6884 53.0242 46.6208 53.1897 46.4823C53.5639 46.169 53.6134 45.6117 53.3001 45.2374C52.6901 44.5085 51.9713 43.882 51.1754 43.3771C53.5683 41.9102 55.1924 39.331 55.3464 36.334C55.3765 35.7461 55.4 35.1574 55.4192 34.5681C57.2056 34.181 58.5481 32.5888 58.5481 30.6882C58.5481 28.7656 57.1753 27.1581 55.3586 26.7941C55.2514 24.5624 55.0665 22.3336 54.8054 20.1173C56.888 17.8959 58.5251 15.4211 59.0388 13.6013ZM28.7909 13.4514C29.4292 13.6186 29.8682 13.8297 29.8724 13.8318C29.9978 13.8936 30.131 13.9229 30.2622 13.9229C30.5829 13.9229 30.8918 13.7478 31.0485 13.4439C31.8655 11.8585 33.0325 10.9895 34.6125 10.7875C34.7319 10.7727 34.8536 10.7616 34.9742 10.7545C34.9927 10.7538 35.0117 10.7525 35.031 10.7509C35.9284 10.7066 36.935 10.8617 38.0247 11.2124C38.3392 11.3137 38.6619 11.4317 38.9828 11.5627C39.574 11.8047 40.0885 12.0614 40.4844 12.2764C39.549 13.5006 38.5844 14.6545 37.58 15.0254C37.1221 15.1944 36.888 15.7028 37.0571 16.1606C37.226 16.6184 37.7343 16.8525 38.1923 16.6835C39.8342 16.0773 41.0953 14.4048 42.3149 12.7873C43.3091 11.469 44.4358 9.97471 45.2758 9.97471C45.5172 9.97471 45.5961 10.0517 45.6511 10.124C46.0907 10.701 45.8786 12.4842 45.597 13.5069C45.4708 13.9621 45.7249 14.4362 46.174 14.583C46.6229 14.7301 47.1084 14.4977 47.2753 14.0556C47.2908 14.0148 48.8915 9.97459 51.4926 9.97459C52.0259 9.97459 52.1411 10.1574 52.1789 10.2176C52.5926 10.8743 52.0284 12.7613 51.5172 13.8291C51.3214 14.2362 51.464 14.7253 51.8479 14.9633C52.2319 15.2011 52.7332 15.1114 53.0109 14.7551C53.0172 14.7471 53.6449 13.9444 54.4932 13.1462C55.8999 11.8225 56.647 11.6817 56.9077 11.6839C57.0649 11.6847 57.2017 11.7274 57.3585 11.933C57.5023 12.1214 57.4946 12.5655 57.3377 13.1209C56.4639 16.2154 51.459 21.843 47.5378 23.3579C42.4221 25.3344 35.5835 24.2663 32.2942 20.9769C32.0578 20.7406 31.7086 20.6578 31.3913 20.7629C31.074 20.8682 30.8432 21.1432 30.7948 21.4739C30.7928 21.4875 30.589 22.8401 29.8797 24.1907C28.9992 25.8675 27.7765 26.7176 26.2454 26.7176C26.2442 26.7176 26.243 26.7178 26.242 26.7178C26.2209 26.7173 26.1999 26.7165 26.1788 26.7165C25.7128 26.7165 25.2656 26.7979 24.8498 26.9461C24.7471 26.5113 24.6508 26.0839 24.5618 25.6653C25.0145 25.1053 25.2608 24.4131 25.2608 23.6827C25.2608 23.0973 25.1002 22.5489 24.8216 22.0783C25.2274 21.9216 25.6 21.6813 25.9168 21.3646C26.5136 20.7679 26.8423 19.9741 26.8423 19.1297C26.8423 18.3454 26.5544 17.6273 26.0796 17.0743C27.2748 16.0902 28.1977 14.8469 28.7909 13.4514ZM15.3058 18.1448C15.5688 17.8818 15.9187 17.737 16.2909 17.737H23.6821C24.4501 17.737 25.0748 18.3618 25.0748 19.1297C25.0748 19.502 24.93 19.8517 24.6671 20.1147C24.4041 20.3777 24.0543 20.5225 23.6821 20.5225H22.1006H17.8724H16.2909C15.5226 20.5225 14.8977 19.8977 14.8977 19.1297C14.8977 18.7577 15.0426 18.408 15.3058 18.1448ZM17.8724 25.0756C17.1041 25.0756 16.4792 24.4508 16.4792 23.6829C16.4792 23.3109 16.6241 22.9612 16.8875 22.6978C17.1505 22.4349 17.5003 22.29 17.8725 22.29H22.1007C22.8687 22.29 23.4936 22.9149 23.4936 23.6827C23.4936 24.0549 23.3487 24.4048 23.0857 24.6678C22.8228 24.9307 22.4729 25.0756 22.1007 25.0756H17.8724ZM23.9759 30.6882C23.9759 29.776 24.5327 28.9916 25.3239 28.6569C25.2854 30.0029 25.2765 31.3547 25.2944 32.7044C24.5191 32.3629 23.9759 31.5883 23.9759 30.6882ZM31.6281 44.2941C32.3121 44.5003 33.0314 44.6278 33.7769 44.663C33.985 44.6728 34.1937 44.6798 34.4022 44.6887C33.1421 46.8946 33.7081 49.1753 34.3012 50.2238C34.4899 50.5576 34.8725 50.7315 35.248 50.6544C37.0877 50.2772 38.5195 49.586 39.4949 48.987V55.2006C38.6155 54.4321 37.4663 53.9649 36.2094 53.9649H32.7271V52.5093V50.9793C32.7271 50.4912 32.3315 50.0955 31.8433 50.0955C31.3552 50.0955 30.9595 50.4912 30.9595 50.9793V51.6255H27.0906V51.1109C27.0907 48.1366 28.9021 45.4347 31.6281 44.2941ZM35.7843 45.8572C36.3029 46.6678 37.1374 47.325 38.1562 47.7194C37.4918 48.0876 36.6337 48.4743 35.6005 48.7546C35.4034 48.1102 35.2373 47.0204 35.7843 45.8572ZM40.3789 46.3592C38.9489 46.3592 37.6915 45.6927 37.197 44.7813C38.2562 44.8052 39.3171 44.8179 40.3781 44.8179C41.4391 44.8179 42.5003 44.8052 43.5598 44.7813C43.0655 45.6927 41.8084 46.3592 40.3789 46.3592ZM28.6082 58.5523C27.7715 58.5523 27.0909 57.8716 27.0909 57.0349V53.393H30.9596V54.8486C30.9596 55.3367 31.3552 55.7324 31.8434 55.7324H36.2095C37.8522 55.7324 39.2127 56.9639 39.4159 58.5523H28.6082ZM44.5471 55.7325H48.9133C49.4014 55.7325 49.7971 55.3368 49.7971 54.8487V53.3931H53.6654V57.0358C53.6654 57.0368 53.6656 57.0378 53.6656 57.0388C53.6634 57.8737 52.9838 58.5524 52.1485 58.5524H41.3407C41.5441 56.9641 42.9045 55.7325 44.5471 55.7325ZM45.3378 47.7617C45.3125 48.1476 45.2354 48.4881 45.154 48.754C44.1218 48.4736 43.2644 48.0873 42.6007 47.7195C43.6217 47.3241 44.4577 46.665 44.9759 45.8517C45.2605 46.4494 45.3821 47.0877 45.3378 47.7617ZM53.5813 36.2435C53.3949 39.8661 50.521 42.7267 46.8958 42.8973C42.5709 43.1014 38.1851 43.1014 33.8601 42.8973C30.2348 42.7267 27.3611 39.8662 27.1757 36.2435C27.0423 33.6518 27.0181 31.0246 27.1007 28.4216C28.9194 28.1477 30.4098 26.9834 31.4448 25.0125C31.7774 24.3789 32.0168 23.7478 32.1854 23.2103C33.9984 24.5638 36.3933 25.5037 39.0844 25.8998C42.2507 26.3657 45.4789 26.0485 48.175 25.0067C49.8297 24.3674 51.5869 23.1515 53.2018 21.6932C53.7001 26.5285 53.8285 31.4143 53.5813 36.2435ZM56.7807 30.6882C56.7807 31.5884 56.2373 32.3633 55.4616 32.7047C55.4794 31.3566 55.4688 30.0063 55.4299 28.6558C56.2226 28.9898 56.7807 29.775 56.7807 30.6882Z" fill="black"/>
<path d="M7.71395 11.9407L5.20772 14.4469C4.86256 14.792 4.86256 15.3516 5.20772 15.6968C5.38029 15.8694 5.60648 15.9556 5.83266 15.9556C6.05884 15.9556 6.28502 15.8694 6.4576 15.6968L8.96371 13.1905C9.30887 12.8454 9.30887 12.2858 8.96371 11.9407C8.61868 11.5956 8.05898 11.5956 7.71395 11.9407Z" fill="black"/>
<path d="M7.71312 6.12085C7.8857 6.29342 8.11188 6.37971 8.33806 6.37971C8.56413 6.37971 8.79043 6.29342 8.963 6.12085C9.30816 5.77569 9.30816 5.21623 8.963 4.87096L6.45748 2.36555C6.11244 2.0204 5.55286 2.0204 5.20759 2.36555C4.86244 2.71071 4.86244 3.27028 5.20759 3.61544L7.71312 6.12085Z" fill="black"/>
<path d="M7.7579 9.03135C7.7579 8.54325 7.3622 8.14755 6.8741 8.14755H3.3645C3.13797 8.13943 2.90708 8.21749 2.72781 8.38478C2.37102 8.71782 2.35209 9.27752 2.68513 9.63431C2.8523 9.81347 3.08624 9.91504 3.33123 9.91504H6.8741C7.3622 9.91516 7.7579 9.51945 7.7579 9.03135Z" fill="black"/>
</g>
<defs>
<clipPath id="clip0_213_494">
<rect width="60.19" height="60.19" fill="white" transform="translate(0.743164 0.129883)"/>
</clipPath>
</defs>
</svg>
