<svg width="46" height="47" viewBox="0 0 46 47" fill="none" xmlns="http://www.w3.org/2000/svg">
<rect y="0.319824" width="46" height="46" rx="10" fill="#252525"/>
<path d="M27.1667 16.2365C27.1667 16.126 27.1228 16.02 27.0446 15.9419C26.9665 15.8638 26.8605 15.8199 26.75 15.8199H24.6667C23.6176 15.7676 22.5905 16.1327 21.8098 16.8354C21.029 17.538 20.5582 18.5211 20.5 19.5699V21.8199H18.4167C18.3062 21.8199 18.2002 21.8638 18.122 21.9419C18.0439 22.02 18 22.126 18 22.2365V24.4032C18 24.5137 18.0439 24.6197 18.122 24.6978C18.2002 24.776 18.3062 24.8199 18.4167 24.8199H20.5V30.4032C20.5 30.5137 20.5439 30.6197 20.622 30.6978C20.7002 30.776 20.8062 30.8199 20.9167 30.8199H23.4167C23.5272 30.8199 23.6332 30.776 23.7113 30.6978C23.7894 30.6197 23.8333 30.5137 23.8333 30.4032V24.8199H26.0167C26.1093 24.8212 26.1998 24.7916 26.2737 24.7358C26.3477 24.6799 26.4009 24.601 26.425 24.5115L27.025 22.3449C27.0416 22.2833 27.0438 22.2188 27.0315 22.1562C27.0192 22.0936 26.9927 22.0347 26.9541 21.984C26.9155 21.9333 26.8657 21.8921 26.8086 21.8637C26.7516 21.8352 26.6888 21.8202 26.625 21.8199H23.8333V19.5699C23.8541 19.3636 23.9509 19.1725 24.105 19.0338C24.2591 18.8951 24.4594 18.8188 24.6667 18.8199H26.75C26.8605 18.8199 26.9665 18.776 27.0446 18.6978C27.1228 18.6197 27.1667 18.5137 27.1667 18.4032V16.2365Z" fill="white"/>
</svg>
