<svg width="47" height="47" viewBox="0 0 47 47" fill="none" xmlns="http://www.w3.org/2000/svg">
<rect x="0.909424" y="0.319824" width="46" height="46" rx="10" fill="#252525"/>
<path fill-rule="evenodd" clip-rule="evenodd" d="M21.7669 20.7938H24.8619V22.3355C25.3078 21.4488 26.4511 20.6522 28.1686 20.6522C31.4611 20.6522 32.2428 22.4172 32.2428 25.6555V31.653H28.9094V26.393C28.9094 24.5488 28.4636 23.5088 27.3286 23.5088C25.7544 23.5088 25.1003 24.6297 25.1003 26.3922V31.653H21.7669V20.7938ZM16.0511 31.5113H19.3844V20.6522H16.0511V31.5113ZM19.8619 17.1113C19.8621 17.3907 19.8067 17.6674 19.6989 17.9252C19.5912 18.1829 19.4333 18.4168 19.2344 18.613C18.8314 19.0135 18.286 19.2377 17.7178 19.2363C17.1506 19.2359 16.6064 19.0123 16.2028 18.6138C16.0046 18.4169 15.8473 18.1828 15.7397 17.925C15.6322 17.6672 15.5766 17.3907 15.5761 17.1113C15.5761 16.5472 15.8011 16.0072 16.2036 15.6088C16.6068 15.2098 17.1513 14.9861 17.7186 14.9863C18.2869 14.9863 18.8319 15.2105 19.2344 15.6088C19.6361 16.0072 19.8619 16.5472 19.8619 17.1113Z" fill="white"/>
</svg>
