<svg width="47" height="47" viewBox="0 0 47 47" fill="none" xmlns="http://www.w3.org/2000/svg">
<rect x="0.818817" y="0.319824" width="46" height="46" rx="10" fill="#252525"/>
<g clip-path="url(#clip0_161_123)">
<path d="M33.5213 17.434C32.8255 17.7423 32.078 17.9506 31.2921 18.0448C32.103 17.5596 32.7096 16.796 32.9988 15.8965C32.237 16.349 31.4033 16.6675 30.5338 16.8381C29.9491 16.2139 29.1747 15.8001 28.3307 15.661C27.4868 15.522 26.6206 15.6655 25.8665 16.0692C25.1125 16.4729 24.5128 17.1143 24.1606 17.8937C23.8084 18.6732 23.7234 19.5471 23.9188 20.3798C22.3752 20.3023 20.8652 19.9011 19.4867 19.2022C18.1082 18.5034 16.892 17.5224 15.9171 16.3231C15.5838 16.8981 15.3921 17.5648 15.3921 18.2748C15.3918 18.914 15.5492 19.5433 15.8504 20.1071C16.1516 20.6708 16.5873 21.1515 17.1188 21.5065C16.5024 21.4869 15.8995 21.3203 15.3605 21.0206V21.0706C15.3604 21.9671 15.6705 22.836 16.2381 23.5298C16.8058 24.2237 17.5959 24.6997 18.4746 24.8773C17.9028 25.0321 17.3033 25.0549 16.7213 24.944C16.9692 25.7153 17.4521 26.3898 18.1024 26.8731C18.7528 27.3563 19.5379 27.6241 20.348 27.639C18.9728 28.7185 17.2745 29.304 15.5263 29.3015C15.2166 29.3016 14.9072 29.2835 14.5996 29.2473C16.3742 30.3883 18.4399 30.9938 20.5496 30.9915C27.6913 30.9915 31.5955 25.0765 31.5955 19.9465C31.5955 19.7798 31.5913 19.6115 31.5838 19.4448C32.3432 18.8956 32.9987 18.2156 33.5196 17.4365L33.5213 17.434Z" fill="white"/>
</g>
<defs>
<clipPath id="clip0_161_123">
<rect width="20" height="20" fill="white" transform="translate(13.8188 13.3198)"/>
</clipPath>
</defs>
</svg>
