<svg width="34" height="35" viewBox="0 0 34 35" fill="none" xmlns="http://www.w3.org/2000/svg">
<path fill-rule="evenodd" clip-rule="evenodd" d="M2.43158 17.2619C2.43158 16.9837 2.54211 16.7168 2.73886 16.5201C2.9356 16.3233 3.20245 16.2128 3.48069 16.2128H28.2249L21.6218 9.6118C21.4249 9.41481 21.3142 9.14763 21.3142 8.86904C21.3142 8.59044 21.4249 8.32326 21.6218 8.12627C21.8188 7.92927 22.086 7.8186 22.3646 7.8186C22.6432 7.8186 22.9104 7.92927 23.1074 8.12627L31.5002 16.5191C31.5979 16.6166 31.6754 16.7323 31.7283 16.8598C31.7812 16.9873 31.8084 17.1239 31.8084 17.2619C31.8084 17.3999 31.7812 17.5365 31.7283 17.664C31.6754 17.7914 31.5979 17.9072 31.5002 18.0047L23.1074 26.3975C22.9104 26.5945 22.6432 26.7052 22.3646 26.7052C22.086 26.7052 21.8188 26.5945 21.6218 26.3975C21.4249 26.2005 21.3142 25.9333 21.3142 25.6547C21.3142 25.3762 21.4249 25.109 21.6218 24.912L28.2249 18.311H3.48069C3.20245 18.311 2.9356 18.2005 2.73886 18.0037C2.54211 17.807 2.43158 17.5401 2.43158 17.2619Z" fill="url(#paint0_linear_42_70)"/>
<defs>
<linearGradient id="paint0_linear_42_70" x1="17.12" y1="7.8186" x2="17.12" y2="26.7052" gradientUnits="userSpaceOnUse">
<stop stop-color="#24C6DC"/>
<stop offset="1" stop-color="#514A9D"/>
</linearGradient>
</defs>
</svg>
