<svg width="24" height="24" viewBox="0 0 24 24" fill="none" xmlns="http://www.w3.org/2000/svg">
<path d="M12.7065 2.99707C12.7065 2.80632 12.6307 2.62337 12.4959 2.48849C12.361 2.35361 12.178 2.27783 11.9873 2.27783C11.7965 2.27783 11.6136 2.35361 11.4787 2.48849C11.3438 2.62337 11.268 2.80632 11.268 2.99707V10.2518L6.13869 5.12121C6.07179 5.05447 5.99239 5.00155 5.90504 4.96549C5.81769 4.92943 5.72409 4.91093 5.62958 4.91104C5.53508 4.91115 5.44152 4.92987 5.35425 4.96614C5.26699 5.00241 5.18772 5.05551 5.12097 5.12241C5.05422 5.18932 5.00131 5.26871 4.96525 5.35606C4.92918 5.44342 4.91068 5.53702 4.91079 5.63152C4.9109 5.72602 4.92963 5.81958 4.9659 5.90685C5.00216 5.99412 5.05526 6.07339 5.12217 6.14013L10.2515 11.2683H2.99682C2.80607 11.2683 2.62313 11.3441 2.48825 11.4789C2.35336 11.6138 2.27759 11.7968 2.27759 11.9875C2.27759 12.1783 2.35336 12.3612 2.48825 12.4961C2.62313 12.631 2.80607 12.7068 2.99682 12.7068H10.2515L5.12217 17.8373C4.98917 17.9726 4.91505 18.155 4.91593 18.3448C4.91681 18.5345 4.99263 18.7162 5.12688 18.8503C5.26113 18.9844 5.44292 19.06 5.63266 19.0607C5.8224 19.0613 6.00471 18.987 6.13989 18.8538L11.268 13.7245V20.978C11.268 21.1687 11.3438 21.3517 11.4787 21.4866C11.6136 21.6214 11.7965 21.6972 11.9873 21.6972C12.178 21.6972 12.361 21.6214 12.4959 21.4866C12.6307 21.3517 12.7065 21.1687 12.7065 20.978V13.7257L17.8371 18.855C17.9724 18.988 18.1548 19.0622 18.3445 19.0613C18.5343 19.0604 18.716 18.9846 18.8501 18.8503C18.9842 18.7161 19.0598 18.5343 19.0604 18.3445C19.0611 18.1548 18.9867 17.9725 18.8536 17.8373L13.7242 12.7068H20.9777C21.1685 12.7068 21.3514 12.631 21.4863 12.4961C21.6212 12.3612 21.697 12.1783 21.697 11.9875C21.697 11.7968 21.6212 11.6138 21.4863 11.4789C21.3514 11.3441 21.1685 11.2683 20.9777 11.2683H13.7254L18.8536 6.13893C18.9806 6.00259 19.0498 5.82226 19.0465 5.63593C19.0432 5.44959 18.9677 5.27181 18.836 5.14004C18.7042 5.00826 18.5264 4.93278 18.3401 4.92949C18.1537 4.9262 17.9734 4.99537 17.8371 5.12241L12.7065 10.2518V2.99707Z" fill="url(#paint0_linear_5_19)"/>
<defs>
<linearGradient id="paint0_linear_5_19" x1="11.9873" y1="2.27783" x2="11.9873" y2="21.6972" gradientUnits="userSpaceOnUse">
<stop stop-color="#24C6DC"/>
<stop offset="1" stop-color="#514A9D"/>
</linearGradient>
</defs>
</svg>
