<svg width="95" height="95" viewBox="0 0 95 95" fill="none" xmlns="http://www.w3.org/2000/svg">
<path d="M86.912 49.9473C86.4222 43.7519 84.73 39.1856 81.0784 39.2988C81.0483 39.299 81.0186 39.3067 80.9921 39.321C80.9655 39.3353 80.9429 39.3558 80.9261 39.3809C80.9093 39.4059 80.8988 39.4347 80.8956 39.4647C80.8924 39.4946 80.8966 39.525 80.9077 39.553C81.8559 41.889 82.7038 46.3996 82.6092 50.3277C82.6112 50.3769 82.5935 50.4249 82.5601 50.4611C82.5267 50.4972 82.4803 50.5187 82.4311 50.5206C82.3819 50.5226 82.3339 50.505 82.2977 50.4715C82.2615 50.4381 82.2401 50.3917 82.2381 50.3425C81.8317 46.4071 80.9207 42.6998 79.2285 39.3155C76.0473 32.9349 70.9748 27.6914 64.7032 24.3005C58.4316 20.9096 51.2664 19.5365 44.1856 20.3686C37.1047 21.2006 30.453 24.1974 25.1383 28.9498C19.8236 33.7021 16.1048 39.9787 14.4894 46.9229C14.4574 47.0705 14.381 47.2049 14.2706 47.308C14.1602 47.4111 14.021 47.4781 13.8715 47.4999L12.2665 47.7263C9.07512 48.1716 7.27531 54.2019 8.24016 61.1785C9.205 68.155 12.6005 73.4617 15.7919 73.0163L18.2486 72.6731C18.3901 72.6538 18.5341 72.6758 18.6635 72.7363C18.7928 72.7969 18.9019 72.8935 18.9778 73.0145C22.623 78.7491 27.8742 83.2851 34.0779 86.0579C40.2815 88.8307 47.1636 89.7179 53.8676 88.6091C60.5717 87.5003 66.8016 84.4444 71.782 79.8217C76.7625 75.1991 80.2735 69.2138 81.8781 62.6109C81.9148 62.4546 82.0012 62.3144 82.1243 62.2114C82.2474 62.1083 82.4006 62.048 82.561 62.0394L83.3774 61.9949C86.1884 61.5254 87.413 56.2002 86.912 49.9473ZM17.5342 50.1755C17.5115 50.1362 17.504 50.0899 17.5131 50.0454C17.5222 50.0009 17.5473 49.9613 17.5837 49.9341C17.62 49.9069 17.6651 49.894 17.7104 49.8978C17.7556 49.9016 17.7979 49.9218 17.8292 49.9547C19.616 51.8102 21.5865 55.0851 22.1562 59.2061C22.7573 63.483 21.7405 67.5928 20.4621 69.9437C20.4399 69.9824 20.4045 70.0118 20.3624 70.0265C20.3203 70.0412 20.2742 70.0403 20.2328 70.0238C20.1913 70.0074 20.1571 69.9765 20.1366 69.9369C20.116 69.8973 20.1104 69.8516 20.1207 69.8082C20.8759 67.1289 21.0781 63.5312 20.5419 59.6514C20.0224 55.8811 18.9258 52.5505 17.5342 50.1755ZM50.7044 70.5467C49.9956 70.5455 49.3122 70.2831 48.7847 69.8097C48.2572 69.3363 47.9227 68.6851 47.8451 67.9806C47.7832 67.4029 47.8979 66.82 48.1742 66.3089C48.4504 65.7977 48.8751 65.3824 49.3923 65.1177C49.9095 64.8529 50.4948 64.7513 51.071 64.8261C51.6472 64.901 52.1871 65.1488 52.6195 65.5368C53.0519 65.9249 53.3564 66.435 53.4929 66.9997C53.6294 67.5645 53.5914 68.1573 53.384 68.7C53.1765 69.2427 52.8093 69.7098 52.331 70.0395C51.8526 70.3692 51.2854 70.546 50.7044 70.5467ZM65.8896 69.6709C65.327 69.6983 64.7689 69.5585 64.2857 69.2691C63.8025 68.9797 63.4158 68.5536 63.1744 68.0448C62.933 67.5359 62.8477 66.9669 62.9292 66.4096C63.0108 65.8523 63.2555 65.3316 63.6326 64.9132C64.0096 64.4948 64.5022 64.1974 65.048 64.0586C65.5939 63.9198 66.1686 63.9457 66.6998 64.133C67.231 64.3204 67.6947 64.6609 68.0326 65.1115C68.3706 65.5621 68.5675 66.1027 68.5985 66.6651C68.6375 67.4228 68.374 68.165 67.8661 68.7286C67.3581 69.2922 66.6472 69.6311 65.8896 69.6709Z" fill="url(#paint0_linear_166_142)"/>
<path d="M30.7099 12.9883C30.7205 12.998 30.7271 13.0112 30.7284 13.0255C30.747 13.0626 30.7656 13.0811 30.7841 13.1182V13.1368C30.8703 13.3444 31.0196 13.5196 31.2109 13.6378C31.582 13.9161 32.1386 14.0831 32.8066 14.1944C33.5381 14.2942 34.2773 14.3253 35.0146 14.2872C35.1945 14.284 35.3741 14.2717 35.5527 14.2501C35.4784 14.1758 35.4042 14.0831 35.33 14.0089H35.0888C34.3674 14.0339 33.6454 13.9779 32.9365 13.8419C32.375 13.7555 31.8413 13.5395 31.3779 13.211C31.2822 13.134 31.1951 13.0469 31.1181 12.9512C31.081 12.8114 31.081 12.6643 31.1181 12.5245C31.2109 12.0977 31.5634 11.6338 32.1386 11.1514C32.7614 10.6434 33.4399 10.2076 34.1611 9.8526C34.3281 9.77838 34.4765 9.68561 34.6435 9.61139C34.662 9.59283 34.6991 9.59283 34.7363 9.57428C34.5843 10.2135 34.5717 10.878 34.6991 11.5225C35.1259 13.7305 36.8515 15.2891 39.0038 15.3448L39.746 19.8536L42.1025 19.2969L41.3603 14.9737C43.3642 14.1202 44.3847 11.9864 43.9579 9.77838C43.8373 9.14826 43.5912 8.54882 43.2343 8.01569C42.2509 7.86725 40.3398 7.86725 37.8163 8.40533C38.0204 8.34967 38.206 8.27545 38.4101 8.21979C39.7166 7.8526 41.0507 7.59198 42.3993 7.44049C42.5107 7.42194 42.622 7.42194 42.7333 7.40338L43.3827 7.34772H43.4941C44.1624 7.30776 44.8329 7.32639 45.498 7.40338C45.8835 7.44889 46.263 7.53598 46.6298 7.66315C46.5165 7.84012 46.4584 8.0468 46.4628 8.2569C46.4645 8.4977 46.5427 8.73173 46.6861 8.92517C46.8296 9.11862 47.0308 9.26146 47.2607 9.33307C47.1428 9.51496 47.0126 9.68854 46.871 9.8526C46.7054 10.0394 46.5255 10.2131 46.3329 10.3721C46.1288 10.5391 45.9062 10.7061 45.6835 10.8731L44.4775 11.5782L44.4218 11.8565C44.4359 11.8545 44.4489 11.848 44.4589 11.838L46.0175 10.9659C46.2402 10.8174 46.4628 10.669 46.6484 10.5206C46.8587 10.3621 47.0571 10.1884 47.2421 10.001C47.4011 9.8372 47.5498 9.66369 47.6874 9.48151L47.7431 9.37018C48.0164 9.33703 48.2685 9.206 48.4527 9.00133C48.6369 8.79667 48.7408 8.53221 48.745 8.2569C48.746 8.10799 48.7174 7.96036 48.6609 7.8226C48.6044 7.68483 48.521 7.55967 48.4157 7.45437C48.3104 7.34907 48.1853 7.26574 48.0475 7.20921C47.9097 7.15268 47.7621 7.12408 47.6132 7.12506C47.4327 7.13074 47.2556 7.17503 47.0937 7.25494C46.62 6.99957 46.1049 6.82997 45.5722 6.75397C44.6217 6.59943 43.6558 6.56204 42.6962 6.64264C42.5656 6.6458 42.4354 6.6582 42.3066 6.67975C42.184 6.70129 42.0599 6.71369 41.9355 6.71686C40.9138 6.04159 39.6676 5.79501 38.4657 6.03033C37.7715 6.16423 37.1155 6.4499 36.5445 6.86689C35.9736 7.28388 35.5018 7.82189 35.163 8.44244C34.9218 8.53522 34.6806 8.64655 34.4579 8.75787C34.3281 8.81354 34.2167 8.8692 34.0868 8.92487C33.1539 9.36693 32.2861 9.93506 31.5077 10.6133C30.9325 11.1514 30.5986 11.671 30.5243 12.1534C30.4822 12.4083 30.528 12.6701 30.6542 12.8956C30.6768 12.9239 30.6956 12.9551 30.7099 12.9883Z" fill="url(#paint1_linear_166_142)"/>
<defs>
<linearGradient id="paint0_linear_166_142" x1="47.5007" y1="20.1318" x2="47.5007" y2="89.0735" gradientUnits="userSpaceOnUse">
<stop stop-color="#24C6DC"/>
<stop offset="1" stop-color="#514A9D"/>
</linearGradient>
<linearGradient id="paint1_linear_166_142" x1="39.6271" y1="5.94336" x2="39.6271" y2="19.8536" gradientUnits="userSpaceOnUse">
<stop stop-color="#24C6DC"/>
<stop offset="1" stop-color="#514A9D"/>
</linearGradient>
</defs>
</svg>
