<svg width="65" height="66" viewBox="0 0 65 66" fill="none" xmlns="http://www.w3.org/2000/svg">
<rect x="0.0562744" y="0.585449" width="64.7494" height="64.7494" rx="32.3747" fill="#7C4FCF"/>
<path d="M24.0844 46.618H18.7729C17.9382 46.618 17.2553 45.9351 17.2553 45.1005V29.9248C17.2553 29.0902 17.9382 28.4073 18.7729 28.4073H24.0844C24.919 28.4073 25.6019 29.0902 25.6019 29.9248V45.1005C25.6019 45.9351 24.919 46.618 24.0844 46.618ZM35.0867 19.3019H29.7752C28.9406 19.3019 28.2577 19.9848 28.2577 20.8194V45.1005C28.2577 45.9351 28.9406 46.618 29.7752 46.618H35.0867C35.9214 46.618 36.6043 45.9351 36.6043 45.1005V20.8194C36.6043 19.9848 35.9214 19.3019 35.0867 19.3019ZM46.0891 31.4424H40.7776C39.9429 31.4424 39.26 32.1253 39.26 32.96V45.1005C39.26 45.9351 39.9429 46.618 40.7776 46.618H46.0891C46.9237 46.618 47.6066 45.9351 47.6066 45.1005V32.96C47.6066 32.1253 46.9237 31.4424 46.0891 31.4424Z" fill="white"/>
</svg>
