<svg width="65" height="66" viewBox="0 0 65 66" fill="none" xmlns="http://www.w3.org/2000/svg">
<rect x="0.231934" y="0.585449" width="64.7494" height="64.7494" rx="32.3747" fill="#D20000"/>
<path d="M32.6066 19.2667C31.9836 19.2662 31.3705 19.4223 30.8236 19.7206C30.2767 20.0189 29.8135 20.4499 29.4767 20.974L26.275 26.238L28.2326 27.4115L31.4332 22.1827C32.0467 21.2676 33.211 21.2449 33.8165 22.1827L37.3733 27.8736L35.666 28.8695L40.9301 31.8219V25.7748L39.2934 26.7354L35.7366 20.9751C35.3997 20.4511 34.9366 20.0201 34.3897 19.7218C33.8427 19.4234 33.2296 19.2674 32.6066 19.2679V19.2667ZM26.2397 28.5144L21.1179 31.4668L22.5406 32.3204L19.6246 37.1213L19.5882 37.086C19.5757 37.1087 19.6019 37.1349 19.5882 37.1577C17.9128 39.6958 19.8477 43.2036 22.9322 43.2036H29.1921V40.9273H22.9322C21.4912 40.9273 20.7184 39.5046 21.4742 38.4017L21.5094 38.3664V38.3311L24.4972 33.4939L26.2397 34.5604V28.5144ZM42.9208 32.5686L40.9654 33.7784L43.8108 38.3311C44.5392 39.5717 43.7129 40.9273 42.3881 40.9273H36.0212V38.651L30.4373 42.0655L36.0212 45.48V43.2036H42.3881C45.3883 43.2036 47.3141 39.7891 45.7662 37.1565V37.1224L42.9208 32.5686Z" fill="white"/>
</svg>
