<svg width="153" height="35" viewBox="0 0 153 35" fill="none" xmlns="http://www.w3.org/2000/svg">
<g clip-path="url(#clip0_161_20)">
<path d="M31.2227 9.78595L22.7229 8.55065L18.9233 0.847611C18.8195 0.636706 18.6488 0.465974 18.4379 0.362195C17.9089 0.101075 17.2662 0.318675 17.0017 0.847611L13.2021 8.55065L4.70228 9.78595C4.46794 9.81943 4.25369 9.9299 4.08965 10.0973C3.89134 10.3011 3.78206 10.5753 3.78583 10.8597C3.7896 11.1441 3.9061 11.4153 4.10974 11.6138L10.2595 17.6095L8.80655 26.0758C8.77248 26.2728 8.79428 26.4753 8.86946 26.6605C8.94465 26.8457 9.07022 27.0061 9.23194 27.1236C9.39366 27.241 9.58505 27.3108 9.78441 27.325C9.98378 27.3392 10.1831 27.2973 10.3599 27.204L17.9625 23.2069L25.5651 27.204C25.7727 27.3145 26.0137 27.3513 26.2447 27.3111C26.8272 27.2107 27.2189 26.6583 27.1184 26.0758L25.6655 17.6095L31.8152 11.6138C31.9826 11.4498 32.0931 11.2355 32.1266 11.0012C32.217 10.4153 31.8085 9.87299 31.2227 9.78595Z" fill="#FEA632"/>
</g>
<g clip-path="url(#clip1_161_20)">
<path d="M60.6059 9.78595L52.1061 8.55065L48.3065 0.847611C48.2027 0.636706 48.032 0.465974 47.8211 0.362195C47.2921 0.101075 46.6494 0.318675 46.3849 0.847611L42.5853 8.55065L34.0855 9.78595C33.8512 9.81943 33.6369 9.9299 33.4729 10.0973C33.2746 10.3011 33.1653 10.5753 33.169 10.8597C33.1728 11.1441 33.2893 11.4153 33.4929 11.6138L39.6427 17.6095L38.1898 26.0758C38.1557 26.2728 38.1775 26.4753 38.2527 26.6605C38.3279 26.8457 38.4534 27.0061 38.6151 27.1236C38.7769 27.241 38.9683 27.3108 39.1676 27.325C39.367 27.3392 39.5663 27.2973 39.7431 27.204L47.3457 23.2069L54.9483 27.204C55.1559 27.3145 55.3969 27.3513 55.6279 27.3111C56.2104 27.2107 56.6021 26.6583 56.5016 26.0758L55.0487 17.6095L61.1985 11.6138C61.3658 11.4498 61.4763 11.2355 61.5098 11.0012C61.6002 10.4153 61.1918 9.87299 60.6059 9.78595Z" fill="#FEA632"/>
</g>
<g clip-path="url(#clip2_161_20)">
<path d="M119.372 9.78595L110.872 8.55065L107.073 0.847611C106.969 0.636706 106.798 0.465974 106.587 0.362195C106.058 0.101075 105.416 0.318675 105.151 0.847611L101.352 8.55065L92.8518 9.78595C92.6175 9.81943 92.4033 9.9299 92.2392 10.0973C92.0409 10.3011 91.9316 10.5753 91.9354 10.8597C91.9392 11.1441 92.0557 11.4153 92.2593 11.6138L98.409 17.6095L96.9561 26.0758C96.922 26.2728 96.9438 26.4753 97.019 26.6605C97.0942 26.8457 97.2198 27.0061 97.3815 27.1236C97.5432 27.241 97.7346 27.3108 97.934 27.325C98.1333 27.3392 98.3327 27.2973 98.5094 27.204L106.112 23.2069L113.715 27.204C113.922 27.3145 114.163 27.3513 114.394 27.3111C114.977 27.2107 115.368 26.6583 115.268 26.0758L113.815 17.6095L119.965 11.6138C120.132 11.4498 120.243 11.2355 120.276 11.0012C120.367 10.4153 119.958 9.87299 119.372 9.78595Z" fill="#FEA632"/>
</g>
<g clip-path="url(#clip3_161_20)">
<path d="M148.755 9.78595L140.256 8.55065L136.456 0.847611C136.352 0.636706 136.182 0.465974 135.971 0.362195C135.442 0.101075 134.799 0.318675 134.534 0.847611L130.735 8.55065L122.235 9.78595C122.001 9.81943 121.786 9.9299 121.622 10.0973C121.424 10.3011 121.315 10.5753 121.319 10.8597C121.322 11.1441 121.439 11.4153 121.642 11.6138L127.792 17.6095L126.339 26.0758C126.305 26.2728 126.327 26.4753 126.402 26.6605C126.477 26.8457 126.603 27.0061 126.765 27.1236C126.926 27.241 127.118 27.3108 127.317 27.325C127.517 27.3392 127.716 27.2973 127.893 27.204L135.495 23.2069L143.098 27.204C143.305 27.3145 143.546 27.3513 143.777 27.3111C144.36 27.2107 144.752 26.6583 144.651 26.0758L143.198 17.6095L149.348 11.6138C149.515 11.4498 149.626 11.2355 149.659 11.0012C149.75 10.4153 149.341 9.87299 148.755 9.78595Z" fill="#FEA632"/>
</g>
<g clip-path="url(#clip4_161_20)">
<path d="M89.9891 9.78595L81.4893 8.55065L77.6897 0.847611C77.5859 0.636706 77.4152 0.465974 77.2043 0.362195C76.6753 0.101075 76.0326 0.318675 75.7681 0.847611L71.9685 8.55065L63.4687 9.78595C63.2343 9.81943 63.0201 9.9299 62.856 10.0973C62.6577 10.3011 62.5485 10.5753 62.5522 10.8597C62.556 11.1441 62.6725 11.4153 62.8761 11.6138L69.0258 17.6095L67.5729 26.0758C67.5389 26.2728 67.5607 26.4753 67.6359 26.6605C67.711 26.8457 67.8366 27.0061 67.9983 27.1236C68.16 27.241 68.3514 27.3108 68.5508 27.325C68.7502 27.3392 68.9495 27.2973 69.1263 27.204L76.7289 23.2069L84.3315 27.204C84.539 27.3145 84.7801 27.3513 85.0111 27.3111C85.5936 27.2107 85.9853 26.6583 85.8848 26.0758L84.4319 17.6095L90.5816 11.6138C90.749 11.4498 90.8595 11.2355 90.893 11.0012C90.9834 10.4153 90.5749 9.87299 89.9891 9.78595Z" fill="#FEA632"/>
</g>
<defs>
<clipPath id="clip0_161_20">
<rect width="34.2804" height="34.2804" fill="white" transform="translate(0.822388 0.413818)"/>
</clipPath>
<clipPath id="clip1_161_20">
<rect width="34.2804" height="34.2804" fill="white" transform="translate(30.2056 0.413818)"/>
</clipPath>
<clipPath id="clip2_161_20">
<rect width="34.2804" height="34.2804" fill="white" transform="translate(88.972 0.413818)"/>
</clipPath>
<clipPath id="clip3_161_20">
<rect width="34.2804" height="34.2804" fill="white" transform="translate(118.355 0.413818)"/>
</clipPath>
<clipPath id="clip4_161_20">
<rect width="34.2804" height="34.2804" fill="white" transform="translate(59.5888 0.413818)"/>
</clipPath>
</defs>
</svg>
