<svg width="153" height="35" viewBox="0 0 153 35" fill="none" xmlns="http://www.w3.org/2000/svg">
<g clip-path="url(#clip0_159_229)">
<path d="M31.2133 9.78595L22.7135 8.55065L18.9139 0.847611C18.8101 0.636706 18.6394 0.465974 18.4285 0.362195C17.8995 0.101075 17.2568 0.318675 16.9923 0.847611L13.1927 8.55065L4.69289 9.78595C4.45855 9.81943 4.2443 9.9299 4.08026 10.0973C3.88195 10.3011 3.77267 10.5753 3.77644 10.8597C3.7802 11.1441 3.89671 11.4153 4.10035 11.6138L10.2501 17.6095L8.79716 26.0758C8.76309 26.2728 8.78488 26.4753 8.86007 26.6605C8.93526 26.8457 9.06083 27.0061 9.22255 27.1236C9.38427 27.241 9.57566 27.3108 9.77502 27.325C9.97439 27.3392 10.1737 27.2973 10.3505 27.204L17.9531 23.2069L25.5557 27.204C25.7633 27.3145 26.0043 27.3513 26.2353 27.3111C26.8178 27.2107 27.2095 26.6583 27.109 26.0758L25.6561 17.6095L31.8059 11.6138C31.9732 11.4498 32.0837 11.2355 32.1172 11.0012C32.2076 10.4153 31.7992 9.87299 31.2133 9.78595V9.78595Z" fill="#FEA632"/>
</g>
<g clip-path="url(#clip1_159_229)">
<path d="M60.5965 9.78595L52.0967 8.55065L48.297 0.847611C48.1933 0.636706 48.0225 0.465974 47.8116 0.362195C47.2827 0.101075 46.6399 0.318675 46.3755 0.847611L42.5758 8.55065L34.076 9.78595C33.8417 9.81943 33.6274 9.9299 33.4634 10.0973C33.2651 10.3011 33.1558 10.5753 33.1596 10.8597C33.1634 11.1441 33.2799 11.4153 33.4835 11.6138L39.6332 17.6095L38.1803 26.0758C38.1462 26.2728 38.168 26.4753 38.2432 26.6605C38.3184 26.8457 38.444 27.0061 38.6057 27.1236C38.7674 27.241 38.9588 27.3108 39.1582 27.325C39.3575 27.3392 39.5569 27.2973 39.7336 27.204L47.3362 23.2069L54.9389 27.204C55.1464 27.3145 55.3875 27.3513 55.6184 27.3111C56.2009 27.2107 56.5926 26.6583 56.4922 26.0758L55.0393 17.6095L61.189 11.6138C61.3564 11.4498 61.4669 11.2355 61.5003 11.0012C61.5907 10.4153 61.1823 9.87299 60.5965 9.78595V9.78595Z" fill="#FEA632"/>
</g>
<g clip-path="url(#clip2_159_229)">
<path d="M119.363 9.78595L110.863 8.55065L107.063 0.847611C106.96 0.636706 106.789 0.465974 106.578 0.362195C106.049 0.101075 105.406 0.318675 105.142 0.847611L101.342 8.55065L92.8424 9.78595C92.608 9.81943 92.3938 9.9299 92.2298 10.0973C92.0314 10.3011 91.9222 10.5753 91.9259 10.8597C91.9297 11.1441 92.0462 11.4153 92.2498 11.6138L98.3996 17.6095L96.9467 26.0758C96.9126 26.2728 96.9344 26.4753 97.0096 26.6605C97.0848 26.8457 97.2103 27.0061 97.372 27.1236C97.5338 27.241 97.7252 27.3108 97.9245 27.325C98.1239 27.3392 98.3232 27.2973 98.5 27.204L106.103 23.2069L113.705 27.204C113.913 27.3145 114.154 27.3513 114.385 27.3111C114.967 27.2107 115.359 26.6583 115.259 26.0758L113.806 17.6095L119.955 11.6138C120.123 11.4498 120.233 11.2355 120.267 11.0012C120.357 10.4153 119.949 9.87299 119.363 9.78595V9.78595Z" fill="#FEA632"/>
</g>
<g clip-path="url(#clip3_159_229)">
<path d="M148.746 9.78595L140.246 8.55065L136.447 0.847611C136.343 0.636706 136.172 0.465974 135.961 0.362195C135.432 0.101075 134.789 0.318675 134.525 0.847611L130.725 8.55065L122.226 9.78595C121.991 9.81943 121.777 9.9299 121.613 10.0973C121.415 10.3011 121.305 10.5753 121.309 10.8597C121.313 11.1441 121.429 11.4153 121.633 11.6138L127.783 17.6095L126.33 26.0758C126.296 26.2728 126.318 26.4753 126.393 26.6605C126.468 26.8457 126.594 27.0061 126.755 27.1236C126.917 27.241 127.108 27.3108 127.308 27.325C127.507 27.3392 127.706 27.2973 127.883 27.204L135.486 23.2069L143.088 27.204C143.296 27.3145 143.537 27.3513 143.768 27.3111C144.35 27.2107 144.742 26.6583 144.642 26.0758L143.189 17.6095L149.339 11.6138C149.506 11.4498 149.616 11.2355 149.65 11.0012C149.74 10.4153 149.332 9.87299 148.746 9.78595V9.78595Z" fill="#D1D1D1"/>
</g>
<g clip-path="url(#clip4_159_229)">
<path d="M89.9796 9.78595L81.4798 8.55065L77.6802 0.847611C77.5764 0.636706 77.4057 0.465974 77.1948 0.362195C76.6659 0.101075 76.0231 0.318675 75.7586 0.847611L71.959 8.55065L63.4592 9.78595C63.2249 9.81943 63.0106 9.9299 62.8466 10.0973C62.6483 10.3011 62.539 10.5753 62.5428 10.8597C62.5465 11.1441 62.663 11.4153 62.8667 11.6138L69.0164 17.6095L67.5635 26.0758C67.5294 26.2728 67.5512 26.4753 67.6264 26.6605C67.7016 26.8457 67.8272 27.0061 67.9889 27.1236C68.1506 27.241 68.342 27.3108 68.5413 27.325C68.7407 27.3392 68.9401 27.2973 69.1168 27.204L76.7194 23.2069L84.322 27.204C84.5296 27.3145 84.7706 27.3513 85.0016 27.3111C85.5841 27.2107 85.9758 26.6583 85.8754 26.0758L84.4225 17.6095L90.5722 11.6138C90.7396 11.4498 90.85 11.2355 90.8835 11.0012C90.9739 10.4153 90.5655 9.87299 89.9796 9.78595V9.78595Z" fill="#FEA632"/>
</g>
<defs>
<clipPath id="clip0_159_229">
<rect width="34.2804" height="34.2804" fill="white" transform="translate(0.813065 0.413818)"/>
</clipPath>
<clipPath id="clip1_159_229">
<rect width="34.2804" height="34.2804" fill="white" transform="translate(30.1962 0.413818)"/>
</clipPath>
<clipPath id="clip2_159_229">
<rect width="34.2804" height="34.2804" fill="white" transform="translate(88.9626 0.413818)"/>
</clipPath>
<clipPath id="clip3_159_229">
<rect width="34.2804" height="34.2804" fill="white" transform="translate(118.346 0.413818)"/>
</clipPath>
<clipPath id="clip4_159_229">
<rect width="34.2804" height="34.2804" fill="white" transform="translate(59.5794 0.413818)"/>
</clipPath>
</defs>
</svg>
