<svg width="104" height="104" viewBox="0 0 104 104" fill="none" xmlns="http://www.w3.org/2000/svg">
<rect x="0.480804" y="0.043335" width="103.036" height="103.036" rx="51.5179" fill="#FFD7D7"/>
<path d="M49.4277 58.8356L46.5431 61.728L46.5117 61.7516C46.0135 59.8798 44.935 58.214 43.4311 56.9935L47.1702 53.2544C47.6953 54.6105 48.5027 56.6407 49.4277 58.8356Z" fill="#9E6861"/>
<path d="M64.5328 30.6554L63.7568 35.8838H62.9729V34.3161L61.4052 31.9645H51.9988L50.4311 34.3161V35.8838H49.6472L48.8712 30.6554C48.8259 30.2365 48.8674 29.8128 48.9931 29.4107C49.1188 29.0086 49.3261 28.6367 49.6019 28.3183C49.8777 27.9998 50.2162 27.7416 50.5962 27.5597C50.9762 27.3778 51.3896 27.2762 51.8107 27.2612H61.5933C62.0144 27.2762 62.4278 27.3778 62.8078 27.5597C63.1878 27.7416 63.5263 27.9998 63.8021 28.3183C64.0779 28.6367 64.2852 29.0086 64.4109 29.4107C64.5366 29.8128 64.5781 30.2365 64.5328 30.6554Z" fill="#414952"/>
<path d="M62.291 64.0796L59.8375 69.5903L56.7883 69.1513L58.1757 62.214C58.2393 61.9115 58.3891 61.6339 58.6069 61.4145L60.2843 59.737L61.4053 62.5354L62.1891 64.1032L62.291 64.0796Z" fill="#9E6861"/>
<path d="M67.6762 62.9665V66.8231C67.6787 67.5958 67.3937 68.3418 66.8767 68.9161L61.5856 74.8265C61.2949 75.1522 60.9386 75.4129 60.5401 75.5912C60.1416 75.7695 59.7098 75.8615 59.2732 75.8612H56.4591C56.148 75.8615 55.8386 75.8139 55.542 75.7201L47.4133 73.5095L41.9654 74.2934L37.8893 73.4704L36.0159 73.0941C35.7903 73.0494 35.5773 72.9556 35.392 72.8194C35.2067 72.6832 35.0537 72.5079 34.9437 72.3059C34.8338 72.1039 34.7696 71.8803 34.7557 71.6507C34.7419 71.4212 34.7787 71.1914 34.8636 70.9776L35.4828 69.4177L36.7684 66.1882C36.9122 65.8324 37.1816 65.5417 37.5254 65.3712C37.8693 65.2008 38.2637 65.1623 38.634 65.2632L43.9251 66.7526C44.9049 66.9956 45.728 65.906 45.728 64.887V63.3271C45.7279 63.112 45.7725 62.8992 45.8588 62.7022C45.9452 62.5052 46.0714 62.3283 46.2296 62.1826C46.3619 62.0509 46.5191 61.947 46.6921 61.8769C46.8855 61.7948 47.0934 61.7522 47.3035 61.7515C47.5087 61.7504 47.712 61.7901 47.9017 61.8681C48.0914 61.9461 48.2638 62.061 48.4089 62.2061C48.5539 62.3511 48.6688 62.5235 48.7468 62.7132C48.8248 62.9029 48.8645 63.1062 48.8634 63.3114V68.0225L54.3505 68.8063L56.7883 69.1512L59.8376 69.5902L62.2911 64.0796L65.3246 63.3192C66.1223 63.3273 66.9161 63.2082 67.6762 62.9665Z" fill="#BA7B72"/>
<path d="M63.7569 35.8838C64.1723 35.885 64.5703 36.0506 64.8641 36.3443C65.1578 36.6381 65.3234 37.0361 65.3246 37.4515V38.2354C65.3246 38.8591 65.0769 39.4572 64.6358 39.8982C64.1948 40.3393 63.5967 40.587 62.973 40.587L62.926 40.5792C62.9575 40.3217 62.9732 40.0625 62.973 39.8031V35.8838H63.7569Z" fill="#BA7B72"/>
<path d="M50.4311 39.8031C50.431 40.0625 50.4467 40.3217 50.4782 40.5792L50.4311 40.587C49.8075 40.587 49.2093 40.3393 48.7683 39.8982C48.3273 39.4572 48.0795 38.8591 48.0795 38.2354V37.4515C48.0808 37.0361 48.2464 36.6381 48.5401 36.3443C48.8338 36.0506 49.2319 35.885 49.6473 35.8838H50.4311V39.8031Z" fill="#BA7B72"/>
<path d="M62.973 35.8837V39.8031C62.9732 40.0625 62.9575 40.3216 62.9259 40.5791C62.7258 42.142 61.9485 43.5735 60.7468 44.5925C59.5462 45.6076 58.0082 46.1347 56.4373 46.0694C54.8665 46.0041 53.3775 45.3511 52.2654 44.2398C51.5038 43.4642 50.9486 42.5102 50.6506 41.4649C50.5728 41.1739 50.5152 40.878 50.4781 40.5791C50.4466 40.3216 50.4309 40.0625 50.4311 39.8031V34.316L51.9988 31.9644H61.4052L62.973 34.316V35.8837Z" fill="#BA7B72"/>
<path d="M46.5118 50.1111C46.513 50.5949 46.5576 51.0776 46.645 51.5535L46.5118 51.5613L45.7828 51.0753C45.2632 50.7124 44.8537 50.2134 44.5992 49.633C44.3059 48.9855 44.1561 48.2822 44.1602 47.5714C44.1602 45.7685 45.0773 44.2008 46.3864 43.7618L46.5118 43.7226V50.1111Z" fill="#BA7B72"/>
<path d="M52.2654 44.2398C53.3776 45.3511 54.8665 46.0041 56.4374 46.0695C58.0082 46.1348 59.5463 45.6077 60.7469 44.5926L62.973 46.0741L55.1344 52.3451L51.215 45.2902V42.9386L51.2621 42.9151C51.535 43.4001 51.8725 43.8457 52.2654 44.2398Z" fill="#9E6861"/>
<path d="M67.676 62.9665C66.9159 63.2083 66.1221 63.3273 65.3244 63.3193L62.2909 64.0796L62.189 64.1032L61.4051 62.5354L60.2842 59.737L59.8374 58.6161C59.8374 53.8501 62.2909 51.5612 65.3244 51.5612C68.2639 51.5612 69.8787 53.0506 70.5058 55.9822C70.7275 57.1076 70.83 58.2531 70.8115 59.3999C70.8115 61.1009 69.5338 62.3865 67.676 62.9665Z" fill="#BA7B72"/>
<path d="M72.5204 55.4963L70.8116 48.4258L62.189 42.9387L62.142 42.9152C61.7809 43.5533 61.3084 44.1214 60.7467 44.5927L62.9729 46.0742L55.1342 52.3452L51.2149 45.2903V42.9387L51.2619 42.9152C50.9964 42.4602 50.7909 41.9728 50.6505 41.465L46.5117 42.1548V50.1111C46.5129 50.5949 46.5575 51.0776 46.6449 51.5534C46.735 52.0299 46.8688 52.4969 47.0447 52.9487C47.0839 53.0506 47.1231 53.1525 47.1701 53.2544C47.6953 54.6105 48.5027 56.6408 49.4277 58.8356C50.8045 62.2832 52.4505 65.6171 54.3503 68.8064L56.7882 69.1513L58.1756 62.2141C58.2392 61.9116 58.3889 61.6339 58.6067 61.4145L60.2842 59.7371L59.8374 58.6161C59.8374 53.8502 62.2909 51.5613 65.3245 51.5613C68.264 51.5613 69.8787 53.0506 70.5058 55.9823C70.7276 57.1076 70.8301 58.2532 70.8116 59.4C70.8116 61.101 69.5338 62.3865 67.6761 62.9666V66.8232C67.6785 67.5959 67.3935 68.3419 66.8765 68.9162L61.5854 74.8266C61.2948 75.1524 60.9385 75.413 60.5399 75.5913C60.1414 75.7696 59.7096 75.8616 59.273 75.8613H73.1632L76.2986 71.1581L72.5204 55.4963Z" fill="#FE2F48"/>
<path d="M36.0157 73.0941L37.8892 73.4704V73.4782C37.6305 73.5018 37.3718 73.5096 37.1053 73.5096C34.6364 73.5117 32.2659 72.5415 30.5069 70.8089C28.7479 69.0763 27.742 66.7208 27.7067 64.2521C27.9105 65.8041 31.1714 68.6888 35.4827 69.4178L34.8634 70.9777C34.7786 71.1914 34.7418 71.4212 34.7556 71.6507C34.7695 71.8803 34.8336 72.104 34.9436 72.306C35.0536 72.5079 35.2066 72.6832 35.3919 72.8194C35.5772 72.9557 35.7902 73.0494 36.0157 73.0941Z" fill="#EF680C"/>
<path d="M27.6989 64.1031H45.7279V64.887C45.7279 65.9061 44.9048 66.9956 43.925 66.7526L38.6339 65.2633C38.2636 65.1624 37.8692 65.2008 37.5253 65.3713C37.1815 65.5418 36.9121 65.8324 36.7683 66.1882L35.4827 69.4178C31.1715 68.6888 27.9106 65.8041 27.7068 64.2521C27.7004 64.2027 27.6978 64.1529 27.6989 64.1031Z" fill="#EF680C"/>
<path d="M45.7279 63.3271V64.1031H27.6989C27.6989 62.3708 32.0886 58.616 37.4973 58.616C40.7588 58.6358 43.8868 59.9134 46.2295 62.1826C46.0713 62.3283 45.9451 62.5053 45.8587 62.7023C45.7724 62.8993 45.7278 63.112 45.7279 63.3271Z" fill="#EF680C"/>
<path d="M46.5431 61.728L46.692 61.877C46.519 61.947 46.3618 62.051 46.2295 62.1827C43.8868 59.9134 40.7588 58.6358 37.4973 58.6161C32.0886 58.6161 27.6989 62.3708 27.6989 64.1032C27.6989 61.6084 28.69 59.2159 30.454 57.4518C32.218 55.6877 34.6106 54.6967 37.1053 54.6967C39.4169 54.7034 41.6538 55.5155 43.4311 56.9935C44.9351 58.214 46.0135 59.8798 46.5117 61.7516L46.5431 61.728Z" fill="#EF680C"/>
<path d="M64.5408 38.6273V37.9743C64.502 37.5949 64.3163 37.2456 64.0233 37.0014C63.7303 36.7572 63.3533 36.6374 62.9731 36.6676V39.8031C62.9731 39.9003 62.9597 39.9967 62.955 40.0955C63.3526 40.0852 63.7328 39.9305 64.0247 39.6603C64.3165 39.3901 64.5 39.0229 64.5408 38.6273Z" fill="#8C5956"/>
<path d="M50.431 36.6676C50.0507 36.6374 49.6738 36.7572 49.3807 37.0014C49.0877 37.2456 48.902 37.5949 48.8632 37.9743V38.6273C48.9041 39.0229 49.0875 39.3901 49.3794 39.6603C49.6712 39.9305 50.0514 40.0852 50.449 40.0955C50.4443 39.9967 50.431 39.9003 50.431 39.8031V36.6676Z" fill="#8C5956"/>
<path d="M61.4052 31.9644H59.8375L60.5359 33.0116C61.1027 33.8622 61.4052 34.8615 61.4052 35.8837V39.8031C61.4054 40.0625 61.3897 40.3216 61.3582 40.5791C61.1581 42.142 60.3808 43.5735 59.1791 44.5925C58.2545 45.3761 57.121 45.8722 55.9182 46.0199C56.1781 46.0543 56.4399 46.0723 56.702 46.074C58.1836 46.0773 59.6178 45.552 60.7468 44.5925C61.9485 43.5735 62.7258 42.142 62.9259 40.5791C62.9575 40.3216 62.9732 40.0625 62.973 39.8031V34.316L61.4052 31.9644Z" fill="#C9867B"/>
<path d="M70.506 55.9823C69.8789 53.0506 68.2642 51.5612 65.3247 51.5612C64.3286 51.5491 63.3507 51.8293 62.5122 52.367C65.2392 52.4776 66.7678 53.9481 67.3721 56.7661C67.5934 57.8915 67.6953 59.0371 67.6763 60.1838C67.6549 60.8454 67.4488 61.4878 67.0815 62.0384C66.7141 62.589 66.2001 63.0259 65.5975 63.2997C66.3027 63.2882 67.0027 63.1761 67.6763 62.9665C69.534 62.3865 70.8117 61.1009 70.8117 59.3999C70.8303 58.2531 70.7278 57.1076 70.506 55.9823Z" fill="#C9867B"/>
<path d="M62.9731 46.0741L60.7469 44.5926C60.3223 44.9524 59.8515 45.2537 59.3469 45.4886C59.5034 45.8107 59.5448 46.1767 59.4644 46.5257C59.384 46.8746 59.1865 47.1855 58.9048 47.4067L54.3584 50.9435L55.1344 52.3451L62.9731 46.0741Z" fill="#8C5956"/>
<path d="M46.5119 50.1111V43.7226L46.3864 43.7618C46.1511 43.8469 45.9293 43.9657 45.728 44.1145V47.642C45.7269 48.0116 45.5953 48.3689 45.3563 48.6509C45.1174 48.9328 44.7865 49.1213 44.4221 49.183C44.4729 49.3361 44.532 49.4863 44.5992 49.633C44.8538 50.2134 45.2633 50.7124 45.7829 51.0753L46.5119 51.5613L46.6451 51.5535C46.5577 51.0776 46.5131 50.5949 46.5119 50.1111Z" fill="#8C5956"/>
<path d="M56.7021 46.0741C55.3597 46.0731 54.0531 45.6402 52.9756 44.8395C52.7243 44.6575 52.487 44.4571 52.2654 44.2398C51.8725 43.8457 51.535 43.4001 51.2621 42.9151L51.215 42.9386V45.2902L51.6579 46.0874C51.7575 46.0255 52.0499 45.8233 52.314 45.6343C52.4454 45.5436 52.601 45.4943 52.7607 45.4927C52.9204 45.4912 53.0769 45.5375 53.21 45.6257C53.7308 45.9344 54.3092 46.1334 54.9097 46.2105C55.5103 46.2876 56.1202 46.2412 56.7021 46.0741Z" fill="#8C5956"/>
<path d="M52.8297 42.915C52.5642 42.46 52.3587 41.9726 52.2183 41.4649C52.1406 41.1739 52.0829 40.878 52.0459 40.5791C52.0144 40.3216 51.9987 40.0625 51.9988 39.8031V35.8594C52.0203 35.2284 52.2886 34.6311 52.746 34.1959C53.2033 33.7606 53.8132 33.5223 54.4445 33.5321H62.4501L61.4052 31.9644H51.9988L50.9539 33.5321L50.4311 34.316V39.8031C50.4309 40.0625 50.4466 40.3216 50.4781 40.5791C50.5152 40.878 50.5728 41.1739 50.6506 41.4649C50.9486 42.5102 51.5038 43.4642 52.2654 44.2398C52.9392 44.9192 53.7611 45.4335 54.6668 45.7423C55.5725 46.0512 56.5374 46.1462 57.4859 46.0199C56.1049 45.847 54.8202 45.2209 53.8331 44.2398C53.4402 43.8457 53.1027 43.4 52.8297 42.915Z" fill="#9E6861"/>
<path d="M50.4311 35.8838V34.3161L51.9988 31.9645H61.4052L62.9729 34.3161V35.8838H63.7568L64.2632 32.4709L62.1891 30.3967H51.2149L49.1408 32.4709L49.6472 35.8838H50.4311Z" fill="#333940"/>
<path d="M64.1377 66.679L64.216 66.4901C64.3161 66.24 64.4788 66.0199 64.6886 65.851C64.8984 65.6822 65.1481 65.5702 65.4138 65.5259L67.676 65.1481V62.9666C66.9159 63.2083 66.1221 63.3273 65.3244 63.3193L62.2909 64.0797L59.8374 69.5903C60.763 69.5901 61.6673 69.3127 62.4338 68.7938C63.2003 68.2749 63.7937 67.5383 64.1377 66.679Z" fill="#9E6861"/>
<path d="M62.1891 64.1032L61.4053 62.5354L60.2843 59.737L58.6069 61.4145C58.4932 61.5298 58.398 61.662 58.3247 61.8064L59.9363 63.4181C60.1422 63.624 60.2867 63.8832 60.3535 64.1666C60.4204 64.45 60.407 64.7464 60.3149 65.0226L59.513 67.4291C59.3881 67.8045 59.1259 68.1187 58.7791 68.3089C58.4322 68.499 58.0263 68.551 57.6427 68.4544L56.9592 68.2835L56.7883 69.1513L59.8375 69.5903L62.291 64.0796L62.1891 64.1032Z" fill="#8C5956"/>
<path d="M47.2955 65.7845V61.7515C47.0881 61.7532 46.883 61.7955 46.6919 61.8762C46.5189 61.9462 46.3617 62.0502 46.2295 62.1819C46.0712 62.3277 45.9448 62.5047 45.8585 62.7019C45.7721 62.899 45.7276 63.1119 45.7278 63.3271V64.887C45.7278 65.906 44.9047 66.9956 43.9249 66.7526L43.3872 66.6013L45.1901 67.2574C45.4269 67.3439 45.6812 67.372 45.9313 67.3393C46.1813 67.3065 46.4198 67.214 46.6264 67.0694C46.8331 66.9249 47.0018 66.7326 47.1183 66.5089C47.2348 66.2852 47.2956 66.0367 47.2955 65.7845Z" fill="#9E6861"/>
<path d="M58.2698 74.2935H56.4591C56.148 74.2939 55.8386 74.2463 55.542 74.1524L49.0586 72.3895C47.9741 72.0942 46.8405 72.0246 45.728 72.1849L41.9654 72.7257L37.8893 71.9027L36.0159 71.5264C35.7928 71.4834 35.5819 71.3917 35.3982 71.258C35.2145 71.1243 35.0625 70.9518 34.9529 70.7527L34.8636 70.9777C34.7787 71.1914 34.7419 71.4212 34.7557 71.6508C34.7696 71.8803 34.8338 72.104 34.9437 72.306C35.0537 72.5079 35.2067 72.6833 35.392 72.8195C35.5773 72.9557 35.7903 73.0495 36.0159 73.0942L37.8893 73.4704L41.9654 74.2935L47.4133 73.5096L51.9989 74.7568L55.542 75.7201C55.8386 75.814 56.148 75.8616 56.4591 75.8612H58.2698C58.4777 75.8612 58.6771 75.7786 58.8241 75.6316C58.9711 75.4846 59.0537 75.2853 59.0537 75.0774C59.0537 74.8695 58.9711 74.6701 58.8241 74.5231C58.6771 74.3761 58.4777 74.2935 58.2698 74.2935Z" fill="#9E6861"/>
<path d="M47.1702 53.2544L46.0219 54.4028L47.3544 56.6196C47.554 56.9521 47.6232 57.3469 47.5486 57.7275C47.474 58.1082 47.261 58.4476 46.9507 58.6803L45.6621 59.6469C46.0365 60.308 46.3222 61.0157 46.5118 61.7516L46.5431 61.728L49.4278 58.8356C48.5028 56.6407 47.6954 54.6105 47.1702 53.2544Z" fill="#8C5956"/>
<path d="M57.5275 55.6303L56.8855 57.3423C56.8275 57.4972 56.8021 57.6625 56.811 57.8278C56.8199 57.9931 56.8629 58.1547 56.9373 58.3025L56.9498 58.3284C57.0204 58.4694 57.0625 58.6229 57.0737 58.7802C57.0849 58.9375 57.0651 59.0955 57.0152 59.2451C56.9653 59.3947 56.8865 59.533 56.7831 59.6521C56.6798 59.7712 56.554 59.8688 56.4129 59.9392C56.258 60.017 56.1219 60.1273 56.0136 60.2626C55.9054 60.3979 55.8277 60.555 55.7858 60.7231L54.7425 64.8823C54.6915 65.0863 54.5999 65.278 54.4733 65.4459C54.3467 65.6139 54.1877 65.7546 54.0055 65.8598C53.8234 65.9649 53.622 66.0324 53.4133 66.0581C53.2046 66.0839 52.9928 66.0673 52.7906 66.0095L52.7326 65.9931C53.2223 66.9585 53.7624 67.8976 54.3505 68.8064L56.7883 69.1513L58.1758 62.214C58.2394 61.9115 58.3891 61.6338 58.6069 61.4145L60.2844 59.737L59.8376 58.6161C59.8376 53.8501 62.2911 51.5612 65.3247 51.5612H63.3995C62.1229 51.5612 60.8767 51.9507 59.8274 52.6778C58.7781 53.4049 57.9758 54.435 57.5275 55.6303Z" fill="#FF3333"/>
<path d="M48.4282 47.8606L48.8633 44.2243C48.8631 43.8617 48.9887 43.5103 49.2185 43.2299C49.4483 42.9495 49.7682 42.7574 50.1237 42.6863L51.0542 42.5005C50.8877 42.1687 50.7525 41.822 50.6505 41.465L46.5117 42.1548V50.1111C46.5129 50.5949 46.5575 51.0776 46.6449 51.5534C46.735 52.0299 46.8688 52.4969 47.0447 52.9487C47.0839 53.0506 47.1231 53.1525 47.1701 53.2544C47.6953 54.6105 48.5027 56.6408 49.4277 58.8356C50.3848 61.0924 51.4735 63.5286 52.5239 65.5926L48.9236 53.5907C48.3668 51.735 48.1982 49.7844 48.4282 47.8606Z" fill="#FF2C2C"/>
<path d="M70.4777 70.8445L70.4378 70.5239C70.2845 68.8845 70.5827 67.2345 71.3 65.7524C71.4618 65.3874 71.5261 64.9865 71.4866 64.5892L70.8117 57.8322H70.7544C70.7905 58.3276 70.8117 58.8465 70.8117 59.4C70.8117 61.101 69.534 62.3865 67.6762 62.9666V66.8232C67.6786 67.5959 67.3936 68.3419 66.8767 68.9161L61.5856 74.8265C61.2949 75.1523 60.9386 75.413 60.54 75.5913C60.1415 75.7696 59.7098 75.8616 59.2731 75.8612H73.1633L72.7133 75.4113C71.4814 74.1797 70.6948 72.5729 70.4777 70.8445Z" fill="#FF3333"/>
<path d="M70.8814 48.7134L70.8116 48.4257L62.1891 42.9386L62.1421 42.9151C61.781 43.5532 61.3084 44.1214 60.7468 44.5926L62.973 46.0741L67.8431 49.3209C68.3269 49.6422 68.9183 49.7587 69.4878 49.6448C70.0572 49.5309 70.5584 49.196 70.8814 48.7134Z" fill="#FF2C2C"/>
<path d="M64.1487 46.0232C64.1406 45.8384 64.0891 45.6581 63.9983 45.497C63.9074 45.3359 63.7798 45.1985 63.6259 45.0959L61.5792 43.7312C61.3299 44.0443 61.0515 44.3331 60.7475 44.5935L62.9729 46.0742L63.9457 46.7225C64.086 46.5169 64.1572 46.272 64.1487 46.0232Z" fill="#FDFEFF"/>
<path d="M50.6504 41.465L50.039 41.5669V42.7427L50.9483 42.2881C50.8286 42.0216 50.729 41.7464 50.6504 41.465Z" fill="#FDFEFF"/>
<path d="M62.9728 46.0741L55.1342 52.345L51.2148 45.2902V42.9386L51.2618 42.9151C51.146 42.7119 51.0413 42.5026 50.9483 42.288L50.039 42.7426V45.2902C50.0391 45.4901 50.0898 45.6866 50.1864 45.8616L54.1057 52.9165C54.1888 53.066 54.3035 53.1956 54.4419 53.2962C54.5802 53.3968 54.7389 53.4661 54.9067 53.499C55.0746 53.532 55.2476 53.528 55.4138 53.4872C55.5799 53.4464 55.7351 53.3699 55.8686 53.2629L63.7073 46.992C63.7991 46.9147 63.8784 46.8238 63.9425 46.7223L62.9728 46.0741Z" fill="#E1EAF2"/>
<path d="M36.8578 62.9268C39.3476 61.9841 40.7683 59.6413 40.031 57.6939C39.2937 55.7465 36.6776 54.932 34.1878 55.8746C31.698 56.8173 30.2773 59.1602 31.0146 61.1076C31.7519 63.055 34.368 63.8695 36.8578 62.9268Z" fill="#FF810C"/>
<path d="M46.5431 61.728L46.5118 61.7516C46.3813 61.2465 46.2047 60.7545 45.9842 60.2818C45.6205 60.3902 45.2878 60.5837 45.0137 60.8462C44.7395 61.1087 44.5319 61.4328 44.4079 61.7915L43.8231 63.5458C43.6977 63.9118 43.4425 64.2192 43.1058 64.4099C42.7692 64.6005 42.3743 64.6612 41.9959 64.5805L39.8489 64.1032H36.6437C36.0294 64.4037 35.5308 64.8974 35.2241 65.5086L33.5223 68.9177L33.1861 69.5903C33.1861 69.5903 31.5925 70.3835 28.6914 68.2883C29.468 69.8562 30.6673 71.1759 32.154 72.0985C33.6407 73.0211 35.3557 73.5098 37.1054 73.5096C37.3719 73.5096 37.6306 73.5018 37.8893 73.4783V73.4704L36.0158 73.0942C35.7902 73.0495 35.5773 72.9557 35.392 72.8195C35.2067 72.6833 35.0536 72.5079 34.9437 72.306C34.8337 72.104 34.7695 71.8803 34.7557 71.6508C34.7418 71.4212 34.7787 71.1914 34.8635 70.9777L35.4828 69.4178L36.7683 66.1883C36.9122 65.8325 37.1815 65.5418 37.5254 65.3713C37.8692 65.2008 38.2636 65.1624 38.6339 65.2633L43.925 66.7527C44.9049 66.9957 45.7279 65.9061 45.7279 64.887V63.3271C45.7279 63.1121 45.7724 62.8993 45.8588 62.7023C45.9451 62.5053 46.0714 62.3284 46.2296 62.1827C46.3618 62.051 46.5191 61.947 46.6921 61.877L46.5431 61.728Z" fill="#8D3205"/>
<path d="M62.828 62.2454L61.3269 59.2479C60.8622 58.3167 60.6206 57.2902 60.6214 56.2495V54.6105C60.0697 55.8721 59.8021 57.2395 59.8375 58.6161L60.2843 59.737L61.4053 62.5354L62.1891 64.1031L62.291 64.0796L65.3246 63.3193L63.2811 62.6381C63.084 62.5724 62.921 62.4312 62.828 62.2454Z" fill="#AD726A"/>
<path d="M59.8375 38.2354C60.2704 38.2354 60.6214 37.5335 60.6214 36.6677C60.6214 35.8018 60.2704 35.0999 59.8375 35.0999C59.4046 35.0999 59.0537 35.8018 59.0537 36.6677C59.0537 37.5335 59.4046 38.2354 59.8375 38.2354Z" fill="#333940"/>
<path d="M53.5665 38.2354C53.9995 38.2354 54.3504 37.5335 54.3504 36.6677C54.3504 35.8018 53.9995 35.0999 53.5665 35.0999C53.1336 35.0999 52.7827 35.8018 52.7827 36.6677C52.7827 37.5335 53.1336 38.2354 53.5665 38.2354Z" fill="#333940"/>
<path d="M57.4859 39.6911C57.4859 40.99 57.1347 41.371 56.702 41.371C56.2693 41.371 55.9182 40.99 55.9182 39.6911C55.9182 38.3922 56.2693 36.6677 56.702 36.6677C57.1347 36.6677 57.4859 38.3922 57.4859 39.6911Z" fill="#8C5956"/>
<path d="M42.6959 67.6447L38.4983 66.4994L36.8412 66.0479C36.8143 66.0933 36.7899 66.1401 36.7683 66.1882L36.5332 66.7769L38.2044 67.2323L42.4882 68.4003C42.5221 68.41 42.5572 68.4148 42.5924 68.4144C42.6872 68.4142 42.7787 68.3797 42.85 68.3173C42.9213 68.2548 42.9675 68.1686 42.9801 68.0747C42.9928 67.9808 42.9709 67.8854 42.9187 67.8064C42.8664 67.7273 42.7873 67.6699 42.6959 67.6447Z" fill="#8C5956"/>
<path d="M41.9159 69.7831L37.654 68.6198L35.9852 68.1652L35.6936 68.8981L37.3608 69.3527L41.7129 70.5395C41.7466 70.5488 41.7814 70.5535 41.8163 70.5536C41.9116 70.5541 42.0038 70.5199 42.0757 70.4574C42.1476 70.3949 42.1943 70.3083 42.207 70.2138C42.2196 70.1194 42.1975 70.0236 42.1446 69.9443C42.0918 69.865 42.0119 69.8077 41.9198 69.7831H41.9159Z" fill="#8C5956"/>
<path d="M41.1282 71.5641L36.9737 70.4298L35.2688 69.965L34.978 70.6979L37.0827 71.2725L40.9236 72.3197C40.9565 72.3291 40.9905 72.3339 41.0247 72.3338C41.1195 72.3336 41.211 72.2991 41.2823 72.2367C41.3536 72.1742 41.3998 72.088 41.4124 71.9941C41.4251 71.9002 41.4032 71.8048 41.351 71.7258C41.2987 71.6467 41.2196 71.5893 41.1282 71.5641Z" fill="#8C5956"/>
<path d="M35.1065 70.1257C34.4525 69.9946 33.8091 69.8157 33.1814 69.5903C33.8088 69.8166 34.4523 69.9956 35.1065 70.1257Z" fill="#333940"/>
<path d="M34.4104 69.1693C34.4558 69.1814 34.5005 69.1943 34.546 69.2056C34.5005 69.1943 34.4558 69.1814 34.4104 69.1693Z" fill="#333940"/>
<path d="M37.4973 58.616C33.0002 58.616 29.1334 61.1471 27.8032 63.1687C27.737 63.6078 27.7022 64.051 27.6989 64.4951C27.6978 64.5448 27.7004 64.5946 27.7068 64.644C27.7148 65.0403 27.7481 65.4356 27.8063 65.8276C29.1812 67.591 31.0532 68.9016 33.1805 69.5902H33.186L33.5309 68.9004C30.6369 67.89 28.6129 66.0048 28.1787 64.887H45.7279V64.1031H28.1802C28.7799 62.4884 32.6843 59.3999 37.4973 59.3999C40.6023 59.426 43.5832 60.6224 45.8447 62.7502C45.9291 62.5347 46.0606 62.3408 46.2295 62.1826C46.257 62.1552 46.2891 62.1348 46.3181 62.1105C43.9224 59.877 40.7726 58.6292 37.4973 58.616Z" fill="#333940"/>
<path d="M33.531 68.9004C33.8155 68.9999 34.1102 69.0885 34.4105 69.1693C34.1102 69.0885 33.8132 68.9999 33.531 68.9004Z" fill="#23272B"/>
<path d="M35.4858 69.41C35.1644 69.3535 34.8524 69.2838 34.5451 69.2046C34.8516 69.283 35.1636 69.3543 35.4858 69.4107V69.41Z" fill="#23272B"/>
<path d="M35.1935 70.1461C35.1637 70.1406 35.1355 70.132 35.1057 70.1265C35.1362 70.1312 35.1637 70.139 35.1935 70.1461Z" fill="#23272B"/>
<path d="M33.1806 69.5927L33.1814 69.5934L33.1806 69.5927Z" fill="#23272B"/>
<path d="M33.1806 69.5903C33.8084 69.8146 34.4519 69.9925 35.1058 70.1225C35.1356 70.128 35.1638 70.1366 35.1936 70.1421L35.4821 69.4147V69.4076C35.1607 69.3512 34.8487 69.2807 34.5414 69.2015C34.4959 69.1905 34.4513 69.178 34.4058 69.1662C34.1056 69.0878 33.8108 68.9969 33.5263 68.8973L33.1861 69.5903H33.1806Z" fill="#23272B"/>
<path d="M41.9958 64.5805L39.8488 64.1031H36.6436C36.2624 64.2941 35.9242 64.5609 35.6496 64.887H45.7278V64.1031H43.4914C43.3061 64.3072 43.0702 64.4587 42.8077 64.5425C42.5451 64.6264 42.2651 64.6395 41.9958 64.5805Z" fill="#23272B"/>
<path d="M45.8447 62.7502C45.9291 62.5347 46.0606 62.3408 46.2295 62.1827C46.257 62.1552 46.2891 62.1348 46.3181 62.1105C45.8809 61.6876 45.409 61.3021 44.9072 60.9583C44.7286 61.1548 44.5849 61.3804 44.4823 61.6253C44.9696 61.9581 45.4256 62.3346 45.8447 62.7502Z" fill="#23272B"/>
<path d="M38.5938 57.6724C38.821 57.4453 38.749 57.005 38.4331 56.6891C38.1172 56.3732 37.6769 56.3012 37.4498 56.5284C37.2227 56.7555 37.2946 57.1957 37.6105 57.5117C37.9265 57.8276 38.3667 57.8995 38.5938 57.6724Z" fill="#F6FAFD"/>
<path d="M35.1209 58.454C35.2351 58.3398 35.1989 58.1184 35.04 57.9596C34.8811 57.8007 34.6597 57.7645 34.5456 57.8786C34.4314 57.9928 34.4676 58.2142 34.6265 58.3731C34.7854 58.5319 35.0067 58.5682 35.1209 58.454Z" fill="#F6FAFD"/>
<path d="M34.179 57.4245C34.2359 57.3676 34.2178 57.2571 34.1385 57.1778C34.0592 57.0986 33.9488 57.0804 33.8919 57.1374C33.8349 57.1943 33.853 57.3048 33.9323 57.384C34.0116 57.4633 34.122 57.4814 34.179 57.4245Z" fill="#F6FAFD"/>
<path d="M52.2291 54.1686C52.7318 53.6659 52.572 52.6912 51.8722 51.9914C51.1724 51.2916 50.1976 51.1318 49.695 51.6344C49.1923 52.1371 49.3522 53.1118 50.0519 53.8116C50.7517 54.5114 51.7265 54.6712 52.2291 54.1686Z" fill="#F6FAFD"/>
<path d="M69.6271 55.9063C69.8796 55.6538 69.7995 55.1642 69.448 54.8128C69.0966 54.4613 68.607 54.3812 68.3545 54.6337C68.1019 54.8863 68.1821 55.3759 68.5335 55.7273C68.8849 56.0787 69.3745 56.1589 69.6271 55.9063Z" fill="#F6FAFD"/>
<path d="M52.3788 56.6848C52.6313 56.4322 52.5512 55.9426 52.1997 55.5912C51.8483 55.2398 51.3587 55.1596 51.1062 55.4122C50.8536 55.6647 50.9338 56.1543 51.2852 56.5058C51.6366 56.8572 52.1262 56.9373 52.3788 56.6848Z" fill="#F6FAFD"/>
<path d="M54.3503 42.1548H59.0535C59.0535 42.7785 58.8057 43.3766 58.3647 43.8176C57.9237 44.2586 57.3256 44.5064 56.7019 44.5064C56.0782 44.5064 55.4801 44.2586 55.0391 43.8176C54.5981 43.3766 54.3503 42.7785 54.3503 42.1548Z" fill="#8C5956"/>
</svg>
