<svg width="104" height="104" viewBox="0 0 104 104" fill="none" xmlns="http://www.w3.org/2000/svg">
<rect x="0.000335693" y="0.043335" width="103.036" height="103.036" rx="51.5179" fill="#FEEAD9"/>
<g clip-path="url(#clip0_1_86)">
<path d="M47.6968 46.0722L48.0956 49.2615L38.9763 50.9194L38.3364 51.0341C38.3071 51.039 38.2777 51.0448 38.2492 51.0517L31.1435 52.3441C31.1395 52.2295 31.1376 52.1148 31.1376 52.0002V49.2096C31.8793 49.2096 32.5603 48.9519 33.0973 48.5208C33.6342 48.9519 34.3152 49.2096 35.0569 49.2096C36.0387 49.2096 36.9147 48.7579 37.4899 48.0514C37.9318 48.2905 38.4384 48.4257 38.9763 48.4257C40.3441 48.4257 41.5062 47.5498 41.9354 46.3279C42.4341 46.663 43.0338 46.858 43.6795 46.858C44.6613 46.858 45.5373 46.4063 46.1124 45.6998C46.5544 45.9389 47.0609 46.0741 47.5989 46.0741C47.6312 46.0741 47.6645 46.0731 47.6968 46.0722Z" fill="#FCD770"/>
<path d="M38.9763 57.0484V59.4696C38.9763 60.4817 38.9361 61.4919 38.8577 62.4992C34.3789 61.101 31.2875 57.018 31.1434 52.3442L38.2492 51.0518C37.5643 51.1948 36.9725 51.5642 36.5472 52.0727C36.1034 52.6028 35.8408 53.2838 35.8408 54.0177C35.8408 55.6913 37.1979 57.0484 38.8714 57.0484H38.9763Z" fill="#656D78"/>
<path d="M64.0601 52.3451C70.121 52.3451 75.0343 47.4318 75.0343 41.3709C75.0343 35.31 70.121 30.3967 64.0601 30.3967C57.9993 30.3967 53.0859 35.31 53.0859 41.3709C53.0859 47.4318 57.9993 52.3451 64.0601 52.3451Z" fill="#FF826E"/>
<path d="M47.5988 39.8032C49.3302 39.8032 50.7343 41.2073 50.7343 42.9386C50.7343 44.6377 49.3831 46.0212 47.6968 46.0722C47.6645 46.0731 47.6312 46.0741 47.5988 46.0741C47.0609 46.0741 46.5543 45.9389 46.1124 45.6998C45.5373 46.4063 44.6613 46.858 43.6795 46.858C43.0338 46.858 42.4341 46.663 41.9354 46.3279C41.5062 47.5498 40.3441 48.4257 38.9763 48.4257C38.4383 48.4257 37.9318 48.2905 37.4899 48.0514C36.9147 48.7579 36.0387 49.2096 35.0569 49.2096C34.3152 49.2096 33.6342 48.9519 33.0972 48.5208C32.5603 48.9519 31.8793 49.2096 31.1376 49.2096C29.4062 49.2096 28.0021 47.8055 28.0021 46.0741C28.0021 44.3427 29.4062 42.9386 31.1376 42.9386C31.1709 42.9386 31.2042 42.9406 31.2375 42.9416C31.1719 42.6898 31.1376 42.4262 31.1376 42.1548C31.1376 40.4234 32.5417 39.0193 34.273 39.0193C34.9188 39.0193 35.5184 39.2143 36.0172 39.5494C36.4463 38.3275 37.6084 37.4515 38.9763 37.4515C39.9581 37.4515 40.834 37.9032 41.4092 38.6097C41.8511 38.3706 42.3577 38.2354 42.8956 38.2354C44.2635 38.2354 45.4256 39.1114 45.8547 40.3332C46.3535 39.9981 46.9531 39.8032 47.5988 39.8032Z" fill="#656D78"/>
<path d="M71.9802 33.7733L71.9792 33.7742C70.0303 35.485 68.7634 38.2501 68.7634 41.3709C68.7634 41.563 68.7683 41.754 68.7781 41.9441C68.9221 44.8288 70.1508 47.3626 71.9792 48.9676C73.0933 47.8065 73.9546 46.4014 74.4739 44.8405C74.8374 43.75 75.0343 42.584 75.0343 41.3709C75.0343 38.4226 73.8713 35.7457 71.9802 33.7733Z" fill="#FC6E51"/>
<path d="M56.1411 33.7742L56.1401 33.7733C54.249 35.7457 53.0859 38.4226 53.0859 41.3709C53.0859 42.584 53.2829 43.75 53.6464 44.8405C54.1657 46.4014 55.027 47.8065 56.1411 48.9676C57.9695 47.3626 59.1982 44.8288 59.3422 41.9441C59.352 41.754 59.3569 41.563 59.3569 41.3709C59.3569 38.2501 58.09 35.485 56.1411 33.7742Z" fill="#FC6E51"/>
<path d="M45.2472 60.8961V64.2658C44.53 64.4686 43.8882 64.8527 43.3748 65.3662C42.5938 66.1461 42.1118 67.2239 42.1118 68.4144C42.1118 69.6049 42.5938 70.6828 43.3748 71.4627C44.1547 72.2437 45.2325 72.7257 46.423 72.7257H39.4711C38.3325 72.7257 37.4085 71.8017 37.4085 70.6632C37.4085 70.4711 37.435 70.281 37.4879 70.0968C37.9817 68.3684 38.3541 66.6096 38.602 64.8341C38.7107 64.0591 38.796 63.2801 38.8577 62.4992C38.9361 61.4919 38.9763 60.4817 38.9763 59.4695V57.0483H38.8714C37.1979 57.0483 35.8408 55.6912 35.8408 54.0177C35.8408 53.2838 36.1034 52.6028 36.5473 52.0727C36.9725 51.5642 37.5643 51.1948 38.2492 51.0517L38.9763 50.9194L48.0956 49.2615L48.2985 50.8881C48.3514 51.3084 48.611 51.6749 48.9902 51.865L49.2489 51.9943C49.6791 52.2089 49.9505 52.6488 49.9505 53.129C49.9505 53.369 49.8829 53.5993 49.7614 53.7962C49.6389 53.9932 49.4645 54.1558 49.2489 54.2636L49.0843 54.3459C48.6541 54.5605 48.3827 55.0005 48.3827 55.4806V57.0875C48.3827 58.9757 47.0335 60.5493 45.2472 60.8961Z" fill="#F0D0B4"/>
<path d="M67.1956 51.8905V65.6709C67.1956 69.5668 64.0366 72.7258 60.1408 72.7258H49.1666H46.423C45.2325 72.7258 44.1547 72.2437 43.3748 71.4628C42.5938 70.6828 42.1118 69.605 42.1118 68.4145C42.1118 67.224 42.5938 66.1462 43.3748 65.3662C43.8882 64.8528 44.53 64.4687 45.2472 64.2659C45.6215 64.16 46.0154 64.1032 46.423 64.1032C47.7262 64.1032 49.0275 64.2237 50.3091 64.4648L55.1808 65.378L60.9247 66.4548L62.4924 53.9129C61.685 53.5092 61.1275 52.7518 60.9707 51.8827H60.9697C60.9403 51.7171 60.9247 51.5475 60.9247 51.3761V51.2614C60.9247 49.6957 62.1945 48.4258 63.7603 48.4258H64.0356H64.36C65.9258 48.4258 67.1956 49.6957 67.1956 51.2614V51.8905Z" fill="#F0D0B4"/>
<path d="M62.4924 53.9129L60.9247 66.4548L55.1808 65.378L58.2389 53.7228C57.3502 53.1202 56.8779 52.0659 57.02 51.0018L57.0347 50.8881C57.0768 50.5765 57.167 50.2826 57.2983 50.0151C58.3663 50.8519 59.595 51.4956 60.9286 51.8915L60.9697 51.8826H60.9707C61.1275 52.7518 61.685 53.5092 62.4924 53.9129Z" fill="#F0D0B4"/>
<path d="M64.0601 29.6129C57.5767 29.6129 52.3021 34.8875 52.3021 41.3709C52.3021 43.9559 53.1249 46.4087 54.6818 48.4641C55.1793 49.1209 55.7471 49.7212 56.3686 50.2582C56.3192 50.43 56.2818 50.6057 56.258 50.7846L56.2429 50.8979C56.0863 52.0744 56.5054 53.2234 57.3524 54.0148L54.6079 64.4729L50.4534 63.6939C49.1279 63.4453 47.772 63.3193 46.423 63.3193C46.2911 63.3193 46.1606 63.326 46.0311 63.3359V61.4931C47.8541 60.8587 49.1666 59.1241 49.1666 57.0878V55.4806C49.1666 55.2959 49.2692 55.1298 49.434 55.0474L49.6 54.9645C50.2997 54.6145 50.7343 53.9112 50.7343 53.129C50.7343 52.3468 50.2997 51.6433 49.5999 51.2934L49.3404 51.1637C49.1952 51.0911 49.0964 50.9516 49.0763 50.7905L48.5696 46.7362C50.2626 46.3031 51.5182 44.7649 51.5182 42.9387C51.5182 40.7775 49.76 39.0193 47.5988 39.0193C47.1185 39.0193 46.6482 39.1061 46.2068 39.274C45.4989 38.1576 44.2561 37.4516 42.8956 37.4516C42.4528 37.4516 42.0127 37.5271 41.597 37.6727C40.8822 37.0282 39.9551 36.6677 38.9763 36.6677C37.6158 36.6677 36.373 37.3738 35.6651 38.4901C35.2237 38.3222 34.7534 38.2354 34.273 38.2354C32.1119 38.2354 30.3537 39.9937 30.3537 42.1548C30.3537 42.181 30.3539 42.2072 30.3545 42.2334C28.5671 42.5972 27.2182 44.181 27.2182 46.0741C27.2182 47.9669 28.5669 49.5505 30.3537 49.9146V51.9999C30.3537 54.5301 31.1462 56.9448 32.6456 58.9828C34.0178 60.8478 35.8678 62.2396 38.0225 63.0398C37.8037 65.3523 37.3738 67.6422 36.7342 69.8809C36.6615 70.1353 36.6247 70.3983 36.6247 70.6629C36.6247 72.2327 37.9017 73.5096 39.4713 73.5096H46.423H49.1666H60.1408C64.463 73.5096 67.9795 69.9932 67.9795 65.6709V52.4573C70.1305 51.6942 72.053 50.2933 73.4385 48.4641C74.9953 46.4088 75.8182 43.9559 75.8182 41.3709C75.8182 34.8875 70.5435 29.6129 64.0601 29.6129V29.6129ZM74.0291 43.4644C72.7771 42.5561 71.2459 41.8369 69.5475 41.3448C69.5537 38.8804 70.4345 36.5356 71.9358 34.9115C73.3814 36.671 74.2505 38.9213 74.2505 41.3709C74.2505 42.0836 74.1739 42.7843 74.0291 43.4644ZM64.8304 40.6016L64.8429 31.2103C67.1408 31.3857 69.2276 32.327 70.849 33.7782C69.1242 35.6094 68.0809 38.2162 67.9873 40.9664C66.9711 40.7657 65.912 40.6417 64.8304 40.6016ZM60.1723 50.7907C59.0967 50.3449 58.1196 49.7219 57.2739 48.9606C58.829 47.3082 59.8303 45.0252 60.0795 42.5751C61.0934 42.3539 62.1624 42.2167 63.2605 42.1716L63.2531 47.6782C61.6505 47.9041 60.3824 49.1831 60.1723 50.7907ZM60.133 40.9665C60.0395 38.2164 58.9961 35.6095 57.2713 33.7783C58.8922 32.3276 60.9782 31.3864 63.2752 31.2106L63.2626 40.6025C62.1904 40.6436 61.1406 40.7673 60.133 40.9665ZM56.1845 34.9115C57.6858 36.5357 58.5666 38.8805 58.5727 41.3448C56.8744 41.8369 55.3433 42.556 54.0912 43.4644C53.9463 42.7843 53.8698 42.0836 53.8698 41.3709C53.8698 38.9213 54.7388 36.671 56.1845 34.9115ZM54.5754 45.0697C55.62 44.2109 56.9425 43.5167 58.4405 43.0217C58.1429 44.8685 57.3537 46.5625 56.1907 47.8236C55.5152 46.9977 54.9683 46.0682 54.5754 45.0697ZM59.1383 53.3852L58.6793 53.0739C58.0887 52.6735 57.7567 52.0104 57.781 51.3084C58.5773 51.8132 59.4328 52.2221 60.3259 52.5219C60.5644 53.2422 61.024 53.8718 61.6517 54.3192L60.2502 65.5308L56.1525 64.7624L59.1383 53.3852ZM38.8301 50.1498L38.1986 50.263C38.1714 50.2679 38.1448 50.2738 38.1178 50.2793L31.9214 51.4058V49.9131C32.334 49.8285 32.7319 49.6783 33.0972 49.4675C33.69 49.8095 34.3682 49.9935 35.0569 49.9935C36.0358 49.9935 36.9629 49.633 37.6777 48.9885C38.0933 49.1341 38.5335 49.2096 38.9763 49.2096C40.3368 49.2096 41.5795 48.5036 42.2874 47.3872C42.7289 47.5551 43.1992 47.6419 43.6795 47.6419C44.6583 47.6419 45.5855 47.2814 46.3003 46.6369C46.527 46.7162 46.7612 46.774 46.9989 46.8109L47.2254 48.6233L38.8301 50.1498ZM28.7859 46.0741C28.7859 44.7774 29.8408 43.7225 31.1376 43.7225C31.1543 43.7225 31.171 43.7232 31.1875 43.7238L32.2576 43.7579L31.996 42.7451C31.9465 42.5535 31.9214 42.3549 31.9214 42.1548C31.9214 40.8581 32.9763 39.8032 34.273 39.8032C34.7414 39.8032 35.1936 39.9405 35.5807 40.2002L36.4218 40.7645L36.7571 39.8088C37.0871 38.8677 37.979 38.2354 38.9763 38.2354C39.6866 38.2354 40.3519 38.5521 40.8012 39.1045L41.2106 39.6075L41.7814 39.2995C42.1262 39.1136 42.501 39.0193 42.8956 39.0193C43.8929 39.0193 44.7847 39.6516 45.1148 40.5925L45.4501 41.5483L46.2912 40.984C46.6783 40.7243 47.1305 40.587 47.5988 40.587C48.8956 40.587 49.9505 41.6419 49.9505 42.9387C49.9505 44.2354 48.8956 45.2903 47.5988 45.2903C47.2043 45.2903 46.8294 45.196 46.4846 45.0099L45.9137 44.702L45.5043 45.205C45.0551 45.7575 44.3899 46.0741 43.6795 46.0741C43.2111 46.0741 42.7589 45.9369 42.3718 45.6771L41.5307 45.1128L41.1954 46.0686C40.8654 47.0096 39.9735 47.6419 38.9763 47.6419C38.5817 47.6419 38.2068 47.5476 37.862 47.3616L37.2911 47.0536L36.8818 47.5566C36.4325 48.1091 35.7673 48.4258 35.0569 48.4258C34.5169 48.4258 34.0088 48.2472 33.5876 47.9095L33.0972 47.5162L32.6068 47.9095C32.1857 48.2472 31.6775 48.4258 31.1376 48.4258C29.8408 48.4258 28.7859 47.3709 28.7859 46.0741ZM31.9704 52.9904L35.435 52.3605C35.1922 52.864 35.0569 53.4269 35.0569 54.0176C35.0569 55.8893 36.4119 57.4504 38.1924 57.7717V59.4693C38.1924 60.1142 38.1755 60.7584 38.1427 61.4014C34.686 59.9409 32.3274 56.7277 31.9704 52.9904ZM38.1924 70.663C38.1924 70.5441 38.209 70.426 38.2416 70.3117C39.2492 66.7851 39.7601 63.1371 39.7601 59.4693V56.2645H38.8715C37.6326 56.2645 36.6247 55.2565 36.6247 54.0176C36.6247 52.9413 37.3849 52.0218 38.4374 51.8146L47.4203 50.1813L47.5208 50.9849C47.6061 51.6673 48.0243 52.2583 48.6393 52.5658L48.8987 52.6955C49.064 52.7782 49.1666 52.9443 49.1666 53.129C49.1666 53.3137 49.064 53.4798 48.8992 53.5622L48.7332 53.6451C48.0335 53.9951 47.5988 54.6984 47.5988 55.4806V57.0877C47.5988 58.7949 46.2099 60.1838 44.5028 60.1838C43.6758 60.1838 42.8983 59.8617 42.3135 59.2771L41.8822 58.8458L40.7736 59.9542L41.2049 60.3857C42.0765 61.2571 43.2324 61.7405 44.4634 61.7507V63.7118C42.6239 64.4812 41.3279 66.2992 41.3279 68.4146C41.3279 69.7827 41.871 71.0257 42.7516 71.942H39.4712C38.7661 71.9419 38.1924 71.3682 38.1924 70.663ZM66.4117 65.6709C66.4117 69.1288 63.5986 71.9419 60.1408 71.9419H49.1666H46.423C44.478 71.9419 42.8956 70.3595 42.8956 68.4145C42.8956 66.4694 44.478 64.887 46.423 64.887C47.6753 64.887 48.934 65.004 50.1644 65.2348L60.3269 67.1402L60.9649 69.0543L62.4522 68.5584L61.7246 66.3755L63.3391 53.4598L62.843 53.2118C62.1432 52.8619 61.7084 52.1584 61.7084 51.3761V51.2618C61.7084 50.1303 62.6291 49.2097 63.7606 49.2097H64.3595C65.4911 49.2097 66.4116 50.1304 66.4116 51.2619V65.6709H66.4117ZM64.821 47.6724L64.8283 42.1702C65.9376 42.2139 67.0172 42.3518 68.0407 42.5752C68.29 45.0252 69.2913 47.3083 70.8464 48.9606C70.0007 49.7219 69.0236 50.3449 67.9478 50.7907C67.7358 49.1677 66.4453 47.88 64.821 47.6724ZM71.9297 47.8235C70.7666 46.5624 69.9775 44.8685 69.6799 43.0216C71.1779 43.5166 72.5004 44.2108 73.545 45.0696C73.152 46.0682 72.6051 46.9976 71.9297 47.8235Z" fill="black"/>
<path d="M34.3774 45.6817C34.3081 45.5619 34.273 45.4302 34.273 45.2903C34.273 44.8581 34.6247 44.5064 35.0569 44.5064H35.8408V43.7225C35.8408 43.2903 36.1924 42.9387 36.6246 42.9387V41.3709C35.5652 41.3709 34.6673 42.0749 34.3741 43.0397C33.4093 43.3329 32.7053 44.2309 32.7053 45.2903C32.7053 45.7035 32.8142 46.1103 33.0204 46.4666L34.3774 45.6817Z" fill="black"/>
</g>
<defs>
<clipPath id="clip0_1_86">
<rect width="48.6" height="48.6" fill="white" transform="translate(27.2182 27.2612)"/>
</clipPath>
</defs>
</svg>
