<svg width="104" height="104" viewBox="0 0 104 104" fill="none" xmlns="http://www.w3.org/2000/svg">
<rect x="0.961304" y="0.043335" width="103.036" height="103.036" rx="51.5179" fill="#FFE3B9"/>
<path d="M41.8213 59.2306V65.7305C41.8213 66.8495 40.8669 67.7566 39.6897 67.7566C38.5124 67.7566 37.5581 66.8495 37.5581 65.7305V59.2306C37.5581 58.1206 38.5048 57.2207 39.6726 57.2207H39.7067C40.8746 57.2207 41.8213 58.1206 41.8213 59.2306Z" fill="#FFE0B2"/>
<path d="M46.0845 57.6179V64.1582C46.063 65.2577 45.1182 66.1377 43.9614 66.1357H43.9443C43.3809 66.137 42.8401 65.9248 42.4416 65.5461C42.0432 65.1674 41.8199 64.6533 41.8213 64.1177V57.6179C41.8199 57.0823 42.0432 56.5682 42.4416 56.1895C42.8401 55.8108 43.3809 55.5986 43.9443 55.5999H43.9614C44.5249 55.5986 45.0657 55.8108 45.4641 56.1895C45.8626 56.5682 46.0858 57.0823 46.0845 57.6179Z" fill="#FFE0B2"/>
<path d="M50.3391 63.9394C50.3391 63.9439 50.3429 63.9475 50.3476 63.9475V64.604C50.0832 65.5139 49.2092 66.142 48.2161 66.1357C47.6533 66.1386 47.1116 65.932 46.7069 65.5603C46.3084 65.1923 46.0838 64.6864 46.0845 64.1582V56.775C46.0925 55.672 47.0386 54.7836 48.199 54.7894H48.2331C49.3935 54.7836 50.3397 55.672 50.3476 56.775V59.9682L50.3988 60.0249C49.4288 61.1596 49.4042 62.7785 50.3391 63.9394Z" fill="#FFE0B2"/>
<path d="M64.8423 40.2012C64.8409 45.9781 60.5649 50.9571 54.6108 52.1149C53.7691 52.2784 52.912 52.3598 52.0529 52.358C51.4824 52.3574 50.9126 52.3195 50.3476 52.2446C43.5662 51.3774 38.7042 45.5903 39.3144 39.1123C39.9245 32.6342 45.7907 27.7601 52.6263 28.0517C59.4618 28.3433 64.8451 33.6972 64.8423 40.2012Z" fill="#FF9801"/>
<path d="M52.0529 28.0447C51.6206 28.0447 51.1943 28.0666 50.7739 28.1063C57.3062 28.7337 62.2776 33.9607 62.2776 40.2015C62.2776 46.4422 57.3062 51.6692 50.7739 52.2967C51.1943 52.3364 51.6206 52.3583 52.0529 52.3583C59.1163 52.3583 64.8423 46.9155 64.8423 40.2015C64.8423 33.4875 59.1163 28.0447 52.0529 28.0447Z" fill="#F57C00"/>
<path d="M54.6108 52.1148V61.8483H54.6023L52.7521 60.0735C52.1118 59.4523 51.0669 59.4307 50.3988 60.0248L50.3477 59.9681V52.2445C50.9127 52.3194 51.4824 52.3573 52.0529 52.3579C52.912 52.3598 53.7691 52.2783 54.6108 52.1148Z" fill="#DFC49C"/>
<path d="M50.3476 63.9474C50.3798 63.9942 50.417 64.0376 50.4585 64.0771C50.953 64.5472 51.3878 64.9605 51.763 65.3252C53.0505 66.5571 53.6899 67.1731 53.6899 67.1731C51.8028 67.7373 50.1656 68.8802 49.0346 70.423C48.8949 70.6075 48.7668 70.7996 48.6509 70.9984" fill="#FFE0B2"/>
<path d="M59.2833 68.5508L58.2346 70.2528L57.7742 70.9984L56.12 73.6729C55.5965 74.5262 54.6355 75.0508 53.5963 75.0507H41.3354C39.7442 75.0642 38.4389 73.8561 38.4109 72.3438V67.3514C39.0568 67.8118 39.921 67.8859 40.6431 67.5427C41.3653 67.1995 41.8214 66.4979 41.8214 65.7305V64.1177C41.8201 64.6533 42.0433 65.1673 42.4417 65.546C42.8402 65.9248 43.381 66.137 43.9445 66.1357H43.9615C45.1183 66.1376 46.0632 65.2576 46.0846 64.1582C46.0839 64.6863 46.3085 65.1922 46.707 65.5603C47.1117 65.932 47.6534 66.1385 48.2162 66.1357C49.2093 66.1419 50.0833 65.5139 50.3477 64.6039V63.9475C50.343 63.9475 50.3392 63.9438 50.3392 63.9394C49.4043 62.7784 49.4289 61.1595 50.3989 60.0249C51.067 59.4308 52.1119 59.4523 52.7522 60.0735L54.6024 61.8484L56.4611 63.6314L58.2346 65.3252L58.9678 66.0303C59.6706 66.7014 59.8008 67.7417 59.2833 68.5508Z" fill="#FFE0B2"/>
<path d="M58.9678 66.0303L58.2345 65.3252L56.461 63.6314L54.6023 61.8484L52.7521 60.0735C52.1118 59.4523 51.0669 59.4308 50.3988 60.0249C50.3562 60.0662 50.3263 60.1181 50.2871 60.1626L52.0444 61.8484L53.9031 63.6314L55.6766 65.3252L56.4099 66.0303C57.1126 66.7014 57.2428 67.7417 56.7253 68.5508L55.6766 70.2528L55.2162 70.9984L53.5621 73.6729C53.0385 74.5262 52.0775 75.0508 51.0383 75.0507H53.5962C54.6354 75.0508 55.5964 74.5262 56.12 73.6729L57.7741 70.9984L58.2345 70.2528L59.2832 68.5508C59.8007 67.7417 59.6705 66.7014 58.9678 66.0303Z" fill="#DFC49C"/>
<path d="M48.1981 53.9789C47.1707 53.9799 46.2172 54.4869 45.6786 55.3186C44.9047 54.7901 43.9107 54.6476 43.0073 54.9355C42.1038 55.2234 41.4011 55.9066 41.1187 56.7717C40.2006 56.2807 39.0772 56.2903 38.1685 56.7969C37.2598 57.3035 36.7027 58.2309 36.7055 59.2322V65.7305C36.7055 66.471 37.0118 67.1818 37.5581 67.7096V72.3486C37.5862 74.3068 39.2725 75.876 41.3327 75.8611H53.5996C54.9396 75.8588 56.1787 75.184 56.8583 74.0862L60.013 68.9698C60.7289 67.8423 60.5476 66.3967 59.5731 65.4606L55.4634 61.521V52.7413C62.1819 51.0797 66.5112 44.8816 65.5146 38.3511C64.5181 31.8207 58.5145 27.0472 51.5762 27.2686C44.6379 27.49 38.9846 32.6355 38.451 39.2148C37.9175 45.794 42.6744 51.7022 49.495 52.9318V54.2609C49.0899 54.0771 48.647 53.9808 48.1981 53.9789ZM46.9371 56.775C46.9371 56.1036 47.5097 55.5593 48.216 55.5593C48.9224 55.5593 49.495 56.1036 49.495 56.775V59.8142C48.5848 61.1447 48.5848 62.8601 49.495 64.1906V64.4913C49.2907 64.9936 48.7826 65.325 48.216 65.3252C47.876 65.3288 47.5481 65.2054 47.3029 64.9816C47.0685 64.7657 46.9365 64.4685 46.9371 64.1582V56.775ZM42.6739 57.6138C42.6739 56.9424 43.2465 56.3981 43.9529 56.3981C44.6592 56.3981 45.2318 56.9424 45.2318 57.6138V64.1217C45.2309 64.786 44.6646 65.3243 43.9657 65.3252H43.9401C43.2412 65.3243 42.6749 64.786 42.6739 64.1217V57.6138ZM38.4108 59.2347C38.4108 58.5633 38.9834 58.019 39.6897 58.019C40.3961 58.019 40.9687 58.5633 40.9687 59.2347V65.7305C40.9687 66.4019 40.3961 66.9461 39.6897 66.9461C38.9834 66.9461 38.4108 66.4019 38.4108 65.7305V59.2347ZM58.5474 68.1416L55.3867 73.2677C55.0134 73.8706 54.3322 74.2406 53.5961 74.2402H41.3327C40.2036 74.2524 39.2775 73.3928 39.2634 72.3194V68.5265C39.4043 68.5496 39.5468 68.5631 39.6897 68.567C40.9855 68.5626 42.1295 67.7619 42.5188 66.5871C42.9528 66.8194 43.4419 66.943 43.9401 66.9461H43.9657C44.7604 66.9461 45.5217 66.6423 46.0785 66.1033C46.0896 66.1146 46.0981 66.1284 46.11 66.1397C46.6735 66.6608 47.4299 66.9505 48.216 66.9461C49.2752 66.945 50.2598 66.4276 50.8242 65.5757C50.9359 65.6826 51.0545 65.7961 51.1576 65.8998L52.1705 66.8724C50.6411 67.5739 49.3246 68.6337 48.3448 69.9521C48.1864 70.1627 48.0407 70.3816 47.9082 70.6078C47.7458 70.8608 47.7416 71.1779 47.8974 71.4347C48.0531 71.6915 48.3439 71.847 48.6556 71.8402C48.9674 71.8334 49.2504 71.6653 49.3935 71.402C49.4967 71.2272 49.6106 71.0584 49.7346 70.8963C50.7529 69.5169 52.2144 68.4886 53.8997 67.9657C54.197 67.8953 54.4317 67.6788 54.5146 67.3984C54.5974 67.1181 54.5157 66.817 54.3004 66.6098L52.3726 64.7579C51.9958 64.3908 51.5584 63.9758 51.057 63.4969C51.0313 63.4619 51.0028 63.4288 50.9717 63.398C50.3363 62.5574 50.3484 61.422 51.0016 60.5938C51.142 60.4704 51.3262 60.4021 51.5174 60.4025C51.7515 60.4023 51.9764 60.4896 52.1433 60.6457L58.3624 66.6001C58.7898 67.0123 58.8661 67.6485 58.5474 68.1416ZM61.1641 32.8869C62.2976 34.1623 63.1199 35.6605 63.5719 37.2738C62.4337 37.051 61.2477 36.8751 60.0284 36.7438C60.1464 35.4013 60.5318 34.0925 61.1641 32.8869ZM58.3325 36.5906C57.7715 36.5509 57.2079 36.5169 56.6383 36.4958C56.4239 33.9438 55.7393 31.4475 54.6159 29.1207C56.5805 29.5339 58.4028 30.414 59.9124 31.6785C59.0196 33.1885 58.4806 34.8642 58.3325 36.5906ZM55.0746 38.0835C55.3824 42.2784 54.9578 47.7522 53.2901 51.1585C53.2287 51.2809 53.163 51.3846 53.0999 51.4973C52.7546 51.5257 52.4067 51.5475 52.0529 51.5475C49.3311 51.5494 46.6912 50.6624 44.5753 49.0351C49.6101 47.09 52.9055 43.0086 52.9055 38.5244C52.9055 38.3874 52.8953 38.2512 52.8893 38.1143C53.6169 38.0883 54.3453 38.0781 55.0746 38.0835ZM55.1479 51.1472C56.6716 47.5001 57.0715 42.1981 56.7867 38.1289C57.2829 38.1499 57.7732 38.1832 58.2635 38.2188C58.3317 41.8286 59.7862 44.9812 62.0022 46.4563C60.3932 48.7598 57.9566 50.4274 55.1479 51.1472ZM62.837 45.0339C61.1922 43.8474 60.0719 41.2799 59.9721 38.3752C61.2999 38.5172 62.6186 38.7277 63.9224 39.0058C63.9668 39.4029 63.9893 39.8019 63.9897 40.2012C63.9879 41.8735 63.5941 43.5244 62.837 45.0339ZM52.44 28.8735C53.5893 30.2083 54.5119 33.0425 54.9228 36.4553C54.1759 36.4553 53.4265 36.4682 52.6787 36.4982C51.9955 33.7004 50.2267 31.2506 47.7258 29.6386C49.1039 29.1226 50.5717 28.8568 52.0529 28.8549C52.1833 28.8549 52.3087 28.8694 52.44 28.8735ZM45.9489 30.4685C48.4069 31.7972 50.2074 34.0012 50.953 36.5939C50.2373 36.6479 49.5268 36.716 48.8214 36.7981C45.8562 37.1083 42.9533 37.8215 40.2013 38.9158C40.6274 35.4025 42.7527 32.2789 45.9489 30.4685ZM40.1442 40.7353C42.9542 39.501 45.9586 38.7141 49.0371 38.406C49.7431 38.325 50.4627 38.2577 51.1875 38.2059C51.1875 38.312 51.2003 38.4182 51.2003 38.5244C51.2003 42.5483 48.0071 46.2156 43.2051 47.7903C41.3538 45.8479 40.2715 43.3535 40.1442 40.7353ZM52.0529 53.1684C52.6232 53.165 53.1928 53.1274 53.7581 53.0558V59.8871L53.3549 59.5005C52.8668 59.0411 52.2078 58.7831 51.5208 58.7824H51.5123C51.4077 58.7856 51.3035 58.7953 51.2003 58.8116V53.1271C51.4833 53.1441 51.7647 53.1684 52.0529 53.1684Z" fill="black"/>
<path d="M36.0669 44.3799C36.1285 44.3928 36.1914 44.3993 36.2545 44.3993C36.6876 44.3972 37.0503 44.0867 37.0976 43.6774C37.1449 43.2681 36.8618 42.8902 36.4395 42.7987C31.2649 41.6957 29.8845 40.3916 29.8845 39.796C29.8845 39.1873 31.3152 37.8565 36.6765 36.73C36.974 36.6675 37.2137 36.4588 37.3055 36.1827C37.3972 35.9066 37.327 35.6049 37.1213 35.3913C36.9156 35.1777 36.6056 35.0847 36.3082 35.1472C30.9144 36.281 28.1792 37.8452 28.1792 39.796C28.1792 41.7216 30.8326 43.2639 36.0669 44.3799Z" fill="black"/>
<path d="M67.3952 36.5542C73.4694 37.7091 75.074 39.1801 75.074 39.796C75.074 40.4119 73.5188 41.8489 67.6314 42.9892C67.2021 43.072 66.9087 43.4506 66.9528 43.8649C66.9968 44.2791 67.3639 44.5943 67.8019 44.5939C67.8592 44.5941 67.9163 44.5886 67.9724 44.5777C73.8155 43.443 76.7793 41.8367 76.7793 39.796C76.7793 37.7326 73.7345 36.1068 67.7303 34.9657C67.4274 34.8985 67.1101 34.9934 66.9022 35.2133C66.6944 35.4332 66.629 35.7432 66.7316 36.0223C66.8342 36.3014 67.0885 36.5052 67.3952 36.5542Z" fill="black"/>
<path d="M37.0848 47.3979C37.1357 47.1877 37.0963 46.9668 36.9753 46.7843C36.8543 46.6017 36.6617 46.4726 36.4402 46.4254C33.572 45.8111 31.4395 45.0266 30.436 44.2153C30.2051 44.0184 29.88 43.9562 29.587 44.0529C29.2939 44.1496 29.0793 44.3899 29.0264 44.6804C28.9736 44.9709 29.0908 45.2658 29.3327 45.4504C30.5767 46.457 32.8421 47.3145 36.0685 48.0066C36.1304 48.0195 36.1935 48.026 36.2569 48.026C36.6528 48.0248 36.9957 47.7646 37.0848 47.3979Z" fill="black"/>
<path d="M75.721 44.3094C75.4145 43.9702 74.877 43.931 74.5197 44.2218C73.4112 45.1255 70.9642 45.9765 67.6313 46.62C67.202 46.7028 66.9086 47.0814 66.9526 47.4957C66.9966 47.9099 67.3637 48.2251 67.8018 48.2247C67.8591 48.2248 67.9162 48.2194 67.9723 48.2085C70.5302 47.7149 73.9305 46.8372 75.6298 45.4529C75.8015 45.3128 75.9077 45.1136 75.9248 44.8991C75.9419 44.6846 75.8686 44.4725 75.721 44.3094Z" fill="black"/>
</svg>
